<svg width="168" height="121" viewBox="0 0 168 121" fill="none" xmlns="http://www.w3.org/2000/svg">
<path d="M4.45033 2.22018C4.45033 3.44636 3.45409 4.44037 2.22517 4.44037C0.996241 4.44037 0 3.44636 0 2.22018C0 0.99401 0.996241 0 2.22517 0C3.45409 0 4.45033 0.99401 4.45033 2.22018Z" fill="url(#paint0_radial_149_463)" fill-opacity="0.3"/>
<path d="M31.7086 2.22018C31.7086 3.44636 30.7124 4.44037 29.4834 4.44037C28.2545 4.44037 27.2583 3.44636 27.2583 2.22018C27.2583 0.99401 28.2545 0 29.4834 0C30.7124 0 31.7086 0.99401 31.7086 2.22018Z" fill="url(#paint1_radial_149_463)" fill-opacity="0.3"/>
<path d="M58.9669 2.22018C58.9669 3.44636 57.9706 4.44037 56.7417 4.44037C55.5128 4.44037 54.5166 3.44636 54.5166 2.22018C54.5166 0.99401 55.5128 0 56.7417 0C57.9706 0 58.9669 0.99401 58.9669 2.22018Z" fill="url(#paint2_radial_149_463)" fill-opacity="0.3"/>
<path d="M86.2252 2.22018C86.2252 3.44636 85.2289 4.44037 84 4.44037C82.7711 4.44037 81.7748 3.44636 81.7748 2.22018C81.7748 0.99401 82.7711 0 84 0C85.2289 0 86.2252 0.99401 86.2252 2.22018Z" fill="url(#paint3_radial_149_463)" fill-opacity="0.3"/>
<path d="M113.483 2.22018C113.483 3.44636 112.487 4.44037 111.258 4.44037C110.029 4.44037 109.033 3.44636 109.033 2.22018C109.033 0.99401 110.029 0 111.258 0C112.487 0 113.483 0.99401 113.483 2.22018Z" fill="url(#paint4_radial_149_463)" fill-opacity="0.3"/>
<path d="M140.742 2.22018C140.742 3.44636 139.745 4.44037 138.517 4.44037C137.288 4.44037 136.291 3.44636 136.291 2.22018C136.291 0.99401 137.288 0 138.517 0C139.745 0 140.742 0.99401 140.742 2.22018Z" fill="url(#paint5_radial_149_463)" fill-opacity="0.3"/>
<path d="M168 2.22018C168 3.44636 167.004 4.44037 165.775 4.44037C164.546 4.44037 163.55 3.44636 163.55 2.22018C163.55 0.99401 164.546 0 165.775 0C167.004 0 168 0.99401 168 2.22018Z" fill="url(#paint6_radial_149_463)" fill-opacity="0.3"/>
<path d="M4.45033 25.5321C4.45033 26.7583 3.45409 27.7523 2.22517 27.7523C0.996241 27.7523 0 26.7583 0 25.5321C0 24.3059 0.996241 23.3119 2.22517 23.3119C3.45409 23.3119 4.45033 24.3059 4.45033 25.5321Z" fill="url(#paint7_radial_149_463)" fill-opacity="0.3"/>
<path d="M31.7086 25.5321C31.7086 26.7583 30.7124 27.7523 29.4834 27.7523C28.2545 27.7523 27.2583 26.7583 27.2583 25.5321C27.2583 24.3059 28.2545 23.3119 29.4834 23.3119C30.7124 23.3119 31.7086 24.3059 31.7086 25.5321Z" fill="url(#paint8_radial_149_463)" fill-opacity="0.3"/>
<path d="M58.9669 25.5321C58.9669 26.7583 57.9706 27.7523 56.7417 27.7523C55.5128 27.7523 54.5166 26.7583 54.5166 25.5321C54.5166 24.3059 55.5128 23.3119 56.7417 23.3119C57.9706 23.3119 58.9669 24.3059 58.9669 25.5321Z" fill="url(#paint9_radial_149_463)" fill-opacity="0.3"/>
<path d="M86.2252 25.5321C86.2252 26.7583 85.2289 27.7523 84 27.7523C82.7711 27.7523 81.7748 26.7583 81.7748 25.5321C81.7748 24.3059 82.7711 23.3119 84 23.3119C85.2289 23.3119 86.2252 24.3059 86.2252 25.5321Z" fill="url(#paint10_radial_149_463)" fill-opacity="0.3"/>
<path d="M113.483 25.5321C113.483 26.7583 112.487 27.7523 111.258 27.7523C110.029 27.7523 109.033 26.7583 109.033 25.5321C109.033 24.3059 110.029 23.3119 111.258 23.3119C112.487 23.3119 113.483 24.3059 113.483 25.5321Z" fill="url(#paint11_radial_149_463)" fill-opacity="0.3"/>
<path d="M140.742 25.5321C140.742 26.7583 139.745 27.7523 138.517 27.7523C137.288 27.7523 136.291 26.7583 136.291 25.5321C136.291 24.3059 137.288 23.3119 138.517 23.3119C139.745 23.3119 140.742 24.3059 140.742 25.5321Z" fill="url(#paint12_radial_149_463)" fill-opacity="0.3"/>
<path d="M168 25.5321C168 26.7583 167.004 27.7523 165.775 27.7523C164.546 27.7523 163.55 26.7583 163.55 25.5321C163.55 24.3059 164.546 23.3119 165.775 23.3119C167.004 23.3119 168 24.3059 168 25.5321Z" fill="url(#paint13_radial_149_463)" fill-opacity="0.3"/>
<path d="M4.45033 48.844C4.45033 50.0702 3.45409 51.0642 2.22517 51.0642C0.996241 51.0642 0 50.0702 0 48.844C0 47.6179 0.996241 46.6239 2.22517 46.6239C3.45409 46.6239 4.45033 47.6179 4.45033 48.844Z" fill="url(#paint14_radial_149_463)" fill-opacity="0.3"/>
<path d="M31.7086 48.844C31.7086 50.0702 30.7124 51.0642 29.4834 51.0642C28.2545 51.0642 27.2583 50.0702 27.2583 48.844C27.2583 47.6179 28.2545 46.6239 29.4834 46.6239C30.7124 46.6239 31.7086 47.6179 31.7086 48.844Z" fill="url(#paint15_radial_149_463)" fill-opacity="0.3"/>
<path d="M58.9669 48.844C58.9669 50.0702 57.9706 51.0642 56.7417 51.0642C55.5128 51.0642 54.5166 50.0702 54.5166 48.844C54.5166 47.6179 55.5128 46.6239 56.7417 46.6239C57.9706 46.6239 58.9669 47.6179 58.9669 48.844Z" fill="url(#paint16_radial_149_463)" fill-opacity="0.3"/>
<path d="M86.2252 48.844C86.2252 50.0702 85.2289 51.0642 84 51.0642C82.7711 51.0642 81.7748 50.0702 81.7748 48.844C81.7748 47.6179 82.7711 46.6239 84 46.6239C85.2289 46.6239 86.2252 47.6179 86.2252 48.844Z" fill="url(#paint17_radial_149_463)" fill-opacity="0.3"/>
<path d="M113.483 48.844C113.483 50.0702 112.487 51.0642 111.258 51.0642C110.029 51.0642 109.033 50.0702 109.033 48.844C109.033 47.6179 110.029 46.6239 111.258 46.6239C112.487 46.6239 113.483 47.6179 113.483 48.844Z" fill="url(#paint18_radial_149_463)" fill-opacity="0.3"/>
<path d="M140.742 48.844C140.742 50.0702 139.745 51.0642 138.517 51.0642C137.288 51.0642 136.291 50.0702 136.291 48.844C136.291 47.6179 137.288 46.6239 138.517 46.6239C139.745 46.6239 140.742 47.6179 140.742 48.844Z" fill="url(#paint19_radial_149_463)" fill-opacity="0.3"/>
<path d="M168 48.844C168 50.0702 167.004 51.0642 165.775 51.0642C164.546 51.0642 163.55 50.0702 163.55 48.844C163.55 47.6179 164.546 46.6239 165.775 46.6239C167.004 46.6239 168 47.6179 168 48.844Z" fill="url(#paint20_radial_149_463)" fill-opacity="0.3"/>
<path d="M4.45033 72.156C4.45033 73.3821 3.45409 74.3761 2.22517 74.3761C0.996241 74.3761 0 73.3821 0 72.156C0 70.9298 0.996241 69.9358 2.22517 69.9358C3.45409 69.9358 4.45033 70.9298 4.45033 72.156Z" fill="url(#paint21_radial_149_463)" fill-opacity="0.3"/>
<path d="M31.7086 72.156C31.7086 73.3821 30.7124 74.3761 29.4834 74.3761C28.2545 74.3761 27.2583 73.3821 27.2583 72.156C27.2583 70.9298 28.2545 69.9358 29.4834 69.9358C30.7124 69.9358 31.7086 70.9298 31.7086 72.156Z" fill="url(#paint22_radial_149_463)" fill-opacity="0.3"/>
<path d="M58.9669 72.156C58.9669 73.3821 57.9706 74.3761 56.7417 74.3761C55.5128 74.3761 54.5166 73.3821 54.5166 72.156C54.5166 70.9298 55.5128 69.9358 56.7417 69.9358C57.9706 69.9358 58.9669 70.9298 58.9669 72.156Z" fill="url(#paint23_radial_149_463)" fill-opacity="0.3"/>
<path d="M86.2252 72.156C86.2252 73.3821 85.2289 74.3761 84 74.3761C82.7711 74.3761 81.7748 73.3821 81.7748 72.156C81.7748 70.9298 82.7711 69.9358 84 69.9358C85.2289 69.9358 86.2252 70.9298 86.2252 72.156Z" fill="url(#paint24_radial_149_463)" fill-opacity="0.3"/>
<path d="M113.483 72.156C113.483 73.3821 112.487 74.3761 111.258 74.3761C110.029 74.3761 109.033 73.3821 109.033 72.156C109.033 70.9298 110.029 69.9358 111.258 69.9358C112.487 69.9358 113.483 70.9298 113.483 72.156Z" fill="url(#paint25_radial_149_463)" fill-opacity="0.3"/>
<path d="M140.742 72.156C140.742 73.3821 139.745 74.3761 138.517 74.3761C137.288 74.3761 136.291 73.3821 136.291 72.156C136.291 70.9298 137.288 69.9358 138.517 69.9358C139.745 69.9358 140.742 70.9298 140.742 72.156Z" fill="url(#paint26_radial_149_463)" fill-opacity="0.3"/>
<path d="M168 72.156C168 73.3821 167.004 74.3761 165.775 74.3761C164.546 74.3761 163.55 73.3821 163.55 72.156C163.55 70.9298 164.546 69.9358 165.775 69.9358C167.004 69.9358 168 70.9298 168 72.156Z" fill="url(#paint27_radial_149_463)" fill-opacity="0.3"/>
<path d="M4.45033 95.4679C4.45033 96.6941 3.45409 97.6881 2.22517 97.6881C0.996241 97.6881 0 96.6941 0 95.4679C0 94.2417 0.996241 93.2477 2.22517 93.2477C3.45409 93.2477 4.45033 94.2417 4.45033 95.4679Z" fill="url(#paint28_radial_149_463)" fill-opacity="0.3"/>
<path d="M31.7086 95.4679C31.7086 96.6941 30.7124 97.6881 29.4834 97.6881C28.2545 97.6881 27.2583 96.6941 27.2583 95.4679C27.2583 94.2417 28.2545 93.2477 29.4834 93.2477C30.7124 93.2477 31.7086 94.2417 31.7086 95.4679Z" fill="url(#paint29_radial_149_463)" fill-opacity="0.3"/>
<path d="M58.9669 95.4679C58.9669 96.6941 57.9706 97.6881 56.7417 97.6881C55.5128 97.6881 54.5166 96.6941 54.5166 95.4679C54.5166 94.2417 55.5128 93.2477 56.7417 93.2477C57.9706 93.2477 58.9669 94.2417 58.9669 95.4679Z" fill="url(#paint30_radial_149_463)" fill-opacity="0.3"/>
<path d="M86.2252 95.4679C86.2252 96.6941 85.2289 97.6881 84 97.6881C82.7711 97.6881 81.7748 96.6941 81.7748 95.4679C81.7748 94.2417 82.7711 93.2477 84 93.2477C85.2289 93.2477 86.2252 94.2417 86.2252 95.4679Z" fill="url(#paint31_radial_149_463)" fill-opacity="0.3"/>
<path d="M113.483 95.4679C113.483 96.6941 112.487 97.6881 111.258 97.6881C110.029 97.6881 109.033 96.6941 109.033 95.4679C109.033 94.2417 110.029 93.2477 111.258 93.2477C112.487 93.2477 113.483 94.2417 113.483 95.4679Z" fill="url(#paint32_radial_149_463)" fill-opacity="0.3"/>
<path d="M140.742 95.4679C140.742 96.6941 139.745 97.6881 138.517 97.6881C137.288 97.6881 136.291 96.6941 136.291 95.4679C136.291 94.2417 137.288 93.2477 138.517 93.2477C139.745 93.2477 140.742 94.2417 140.742 95.4679Z" fill="url(#paint33_radial_149_463)" fill-opacity="0.3"/>
<path d="M168 95.4679C168 96.6941 167.004 97.6881 165.775 97.6881C164.546 97.6881 163.55 96.6941 163.55 95.4679C163.55 94.2417 164.546 93.2477 165.775 93.2477C167.004 93.2477 168 94.2417 168 95.4679Z" fill="url(#paint34_radial_149_463)" fill-opacity="0.3"/>
<path d="M4.45033 118.78C4.45033 120.006 3.45409 121 2.22517 121C0.996241 121 0 120.006 0 118.78C0 117.554 0.996241 116.56 2.22517 116.56C3.45409 116.56 4.45033 117.554 4.45033 118.78Z" fill="url(#paint35_radial_149_463)" fill-opacity="0.3"/>
<path d="M31.7086 118.78C31.7086 120.006 30.7124 121 29.4834 121C28.2545 121 27.2583 120.006 27.2583 118.78C27.2583 117.554 28.2545 116.56 29.4834 116.56C30.7124 116.56 31.7086 117.554 31.7086 118.78Z" fill="url(#paint36_radial_149_463)" fill-opacity="0.3"/>
<path d="M58.9669 118.78C58.9669 120.006 57.9706 121 56.7417 121C55.5128 121 54.5166 120.006 54.5166 118.78C54.5166 117.554 55.5128 116.56 56.7417 116.56C57.9706 116.56 58.9669 117.554 58.9669 118.78Z" fill="url(#paint37_radial_149_463)" fill-opacity="0.3"/>
<path d="M86.2252 118.78C86.2252 120.006 85.2289 121 84 121C82.7711 121 81.7748 120.006 81.7748 118.78C81.7748 117.554 82.7711 116.56 84 116.56C85.2289 116.56 86.2252 117.554 86.2252 118.78Z" fill="url(#paint38_radial_149_463)" fill-opacity="0.3"/>
<path d="M113.483 118.78C113.483 120.006 112.487 121 111.258 121C110.029 121 109.033 120.006 109.033 118.78C109.033 117.554 110.029 116.56 111.258 116.56C112.487 116.56 113.483 117.554 113.483 118.78Z" fill="url(#paint39_radial_149_463)" fill-opacity="0.3"/>
<path d="M140.742 118.78C140.742 120.006 139.745 121 138.517 121C137.288 121 136.291 120.006 136.291 118.78C136.291 117.554 137.288 116.56 138.517 116.56C139.745 116.56 140.742 117.554 140.742 118.78Z" fill="url(#paint40_radial_149_463)" fill-opacity="0.3"/>
<path d="M168 118.78C168 120.006 167.004 121 165.775 121C164.546 121 163.55 120.006 163.55 118.78C163.55 117.554 164.546 116.56 165.775 116.56C167.004 116.56 168 117.554 168 118.78Z" fill="url(#paint41_radial_149_463)" fill-opacity="0.3"/>
<defs>
<radialGradient id="paint0_radial_149_463" cx="0" cy="0" r="1" gradientTransform="matrix(68.4238 60.5 -84 94.5768 84 60.5)" gradientUnits="userSpaceOnUse">
<stop stop-color="#D9D9D9" stop-opacity="0.38"/>
<stop offset="1" stop-color="white" stop-opacity="0"/>
</radialGradient>
<radialGradient id="paint1_radial_149_463" cx="0" cy="0" r="1" gradientTransform="matrix(68.4238 60.5 -84 94.5768 84 60.5)" gradientUnits="userSpaceOnUse">
<stop stop-color="#D9D9D9" stop-opacity="0.38"/>
<stop offset="1" stop-color="white" stop-opacity="0"/>
</radialGradient>
<radialGradient id="paint2_radial_149_463" cx="0" cy="0" r="1" gradientTransform="matrix(68.4238 60.5 -84 94.5768 84 60.5)" gradientUnits="userSpaceOnUse">
<stop stop-color="#D9D9D9" stop-opacity="0.38"/>
<stop offset="1" stop-color="white" stop-opacity="0"/>
</radialGradient>
<radialGradient id="paint3_radial_149_463" cx="0" cy="0" r="1" gradientTransform="matrix(68.4238 60.5 -84 94.5768 84 60.5)" gradientUnits="userSpaceOnUse">
<stop stop-color="#D9D9D9" stop-opacity="0.38"/>
<stop offset="1" stop-color="white" stop-opacity="0"/>
</radialGradient>
<radialGradient id="paint4_radial_149_463" cx="0" cy="0" r="1" gradientTransform="matrix(68.4238 60.5 -84 94.5768 84 60.5)" gradientUnits="userSpaceOnUse">
<stop stop-color="#D9D9D9" stop-opacity="0.38"/>
<stop offset="1" stop-color="white" stop-opacity="0"/>
</radialGradient>
<radialGradient id="paint5_radial_149_463" cx="0" cy="0" r="1" gradientTransform="matrix(68.4238 60.5 -84 94.5768 84 60.5)" gradientUnits="userSpaceOnUse">
<stop stop-color="#D9D9D9" stop-opacity="0.38"/>
<stop offset="1" stop-color="white" stop-opacity="0"/>
</radialGradient>
<radialGradient id="paint6_radial_149_463" cx="0" cy="0" r="1" gradientTransform="matrix(68.4238 60.5 -84 94.5768 84 60.5)" gradientUnits="userSpaceOnUse">
<stop stop-color="#D9D9D9" stop-opacity="0.38"/>
<stop offset="1" stop-color="white" stop-opacity="0"/>
</radialGradient>
<radialGradient id="paint7_radial_149_463" cx="0" cy="0" r="1" gradientTransform="matrix(68.4238 60.5 -84 94.5768 84 60.5)" gradientUnits="userSpaceOnUse">
<stop stop-color="#D9D9D9" stop-opacity="0.38"/>
<stop offset="1" stop-color="white" stop-opacity="0"/>
</radialGradient>
<radialGradient id="paint8_radial_149_463" cx="0" cy="0" r="1" gradientTransform="matrix(68.4238 60.5 -84 94.5768 84 60.5)" gradientUnits="userSpaceOnUse">
<stop stop-color="#D9D9D9" stop-opacity="0.38"/>
<stop offset="1" stop-color="white" stop-opacity="0"/>
</radialGradient>
<radialGradient id="paint9_radial_149_463" cx="0" cy="0" r="1" gradientTransform="matrix(68.4238 60.5 -84 94.5768 84 60.5)" gradientUnits="userSpaceOnUse">
<stop stop-color="#D9D9D9" stop-opacity="0.38"/>
<stop offset="1" stop-color="white" stop-opacity="0"/>
</radialGradient>
<radialGradient id="paint10_radial_149_463" cx="0" cy="0" r="1" gradientTransform="matrix(68.4238 60.5 -84 94.5768 84 60.5)" gradientUnits="userSpaceOnUse">
<stop stop-color="#D9D9D9" stop-opacity="0.38"/>
<stop offset="1" stop-color="white" stop-opacity="0"/>
</radialGradient>
<radialGradient id="paint11_radial_149_463" cx="0" cy="0" r="1" gradientTransform="matrix(68.4238 60.5 -84 94.5768 84 60.5)" gradientUnits="userSpaceOnUse">
<stop stop-color="#D9D9D9" stop-opacity="0.38"/>
<stop offset="1" stop-color="white" stop-opacity="0"/>
</radialGradient>
<radialGradient id="paint12_radial_149_463" cx="0" cy="0" r="1" gradientTransform="matrix(68.4238 60.5 -84 94.5768 84 60.5)" gradientUnits="userSpaceOnUse">
<stop stop-color="#D9D9D9" stop-opacity="0.38"/>
<stop offset="1" stop-color="white" stop-opacity="0"/>
</radialGradient>
<radialGradient id="paint13_radial_149_463" cx="0" cy="0" r="1" gradientTransform="matrix(68.4238 60.5 -84 94.5768 84 60.5)" gradientUnits="userSpaceOnUse">
<stop stop-color="#D9D9D9" stop-opacity="0.38"/>
<stop offset="1" stop-color="white" stop-opacity="0"/>
</radialGradient>
<radialGradient id="paint14_radial_149_463" cx="0" cy="0" r="1" gradientTransform="matrix(68.4238 60.5 -84 94.5768 84 60.5)" gradientUnits="userSpaceOnUse">
<stop stop-color="#D9D9D9" stop-opacity="0.38"/>
<stop offset="1" stop-color="white" stop-opacity="0"/>
</radialGradient>
<radialGradient id="paint15_radial_149_463" cx="0" cy="0" r="1" gradientTransform="matrix(68.4238 60.5 -84 94.5768 84 60.5)" gradientUnits="userSpaceOnUse">
<stop stop-color="#D9D9D9" stop-opacity="0.38"/>
<stop offset="1" stop-color="white" stop-opacity="0"/>
</radialGradient>
<radialGradient id="paint16_radial_149_463" cx="0" cy="0" r="1" gradientTransform="matrix(68.4238 60.5 -84 94.5768 84 60.5)" gradientUnits="userSpaceOnUse">
<stop stop-color="#D9D9D9" stop-opacity="0.38"/>
<stop offset="1" stop-color="white" stop-opacity="0"/>
</radialGradient>
<radialGradient id="paint17_radial_149_463" cx="0" cy="0" r="1" gradientTransform="matrix(68.4238 60.5 -84 94.5768 84 60.5)" gradientUnits="userSpaceOnUse">
<stop stop-color="#D9D9D9" stop-opacity="0.38"/>
<stop offset="1" stop-color="white" stop-opacity="0"/>
</radialGradient>
<radialGradient id="paint18_radial_149_463" cx="0" cy="0" r="1" gradientTransform="matrix(68.4238 60.5 -84 94.5768 84 60.5)" gradientUnits="userSpaceOnUse">
<stop stop-color="#D9D9D9" stop-opacity="0.38"/>
<stop offset="1" stop-color="white" stop-opacity="0"/>
</radialGradient>
<radialGradient id="paint19_radial_149_463" cx="0" cy="0" r="1" gradientTransform="matrix(68.4238 60.5 -84 94.5768 84 60.5)" gradientUnits="userSpaceOnUse">
<stop stop-color="#D9D9D9" stop-opacity="0.38"/>
<stop offset="1" stop-color="white" stop-opacity="0"/>
</radialGradient>
<radialGradient id="paint20_radial_149_463" cx="0" cy="0" r="1" gradientTransform="matrix(68.4238 60.5 -84 94.5768 84 60.5)" gradientUnits="userSpaceOnUse">
<stop stop-color="#D9D9D9" stop-opacity="0.38"/>
<stop offset="1" stop-color="white" stop-opacity="0"/>
</radialGradient>
<radialGradient id="paint21_radial_149_463" cx="0" cy="0" r="1" gradientTransform="matrix(68.4238 60.5 -84 94.5768 84 60.5)" gradientUnits="userSpaceOnUse">
<stop stop-color="#D9D9D9" stop-opacity="0.38"/>
<stop offset="1" stop-color="white" stop-opacity="0"/>
</radialGradient>
<radialGradient id="paint22_radial_149_463" cx="0" cy="0" r="1" gradientTransform="matrix(68.4238 60.5 -84 94.5768 84 60.5)" gradientUnits="userSpaceOnUse">
<stop stop-color="#D9D9D9" stop-opacity="0.38"/>
<stop offset="1" stop-color="white" stop-opacity="0"/>
</radialGradient>
<radialGradient id="paint23_radial_149_463" cx="0" cy="0" r="1" gradientTransform="matrix(68.4238 60.5 -84 94.5768 84 60.5)" gradientUnits="userSpaceOnUse">
<stop stop-color="#D9D9D9" stop-opacity="0.38"/>
<stop offset="1" stop-color="white" stop-opacity="0"/>
</radialGradient>
<radialGradient id="paint24_radial_149_463" cx="0" cy="0" r="1" gradientTransform="matrix(68.4238 60.5 -84 94.5768 84 60.5)" gradientUnits="userSpaceOnUse">
<stop stop-color="#D9D9D9" stop-opacity="0.38"/>
<stop offset="1" stop-color="white" stop-opacity="0"/>
</radialGradient>
<radialGradient id="paint25_radial_149_463" cx="0" cy="0" r="1" gradientTransform="matrix(68.4238 60.5 -84 94.5768 84 60.5)" gradientUnits="userSpaceOnUse">
<stop stop-color="#D9D9D9" stop-opacity="0.38"/>
<stop offset="1" stop-color="white" stop-opacity="0"/>
</radialGradient>
<radialGradient id="paint26_radial_149_463" cx="0" cy="0" r="1" gradientTransform="matrix(68.4238 60.5 -84 94.5768 84 60.5)" gradientUnits="userSpaceOnUse">
<stop stop-color="#D9D9D9" stop-opacity="0.38"/>
<stop offset="1" stop-color="white" stop-opacity="0"/>
</radialGradient>
<radialGradient id="paint27_radial_149_463" cx="0" cy="0" r="1" gradientTransform="matrix(68.4238 60.5 -84 94.5768 84 60.5)" gradientUnits="userSpaceOnUse">
<stop stop-color="#D9D9D9" stop-opacity="0.38"/>
<stop offset="1" stop-color="white" stop-opacity="0"/>
</radialGradient>
<radialGradient id="paint28_radial_149_463" cx="0" cy="0" r="1" gradientTransform="matrix(68.4238 60.5 -84 94.5768 84 60.5)" gradientUnits="userSpaceOnUse">
<stop stop-color="#D9D9D9" stop-opacity="0.38"/>
<stop offset="1" stop-color="white" stop-opacity="0"/>
</radialGradient>
<radialGradient id="paint29_radial_149_463" cx="0" cy="0" r="1" gradientTransform="matrix(68.4238 60.5 -84 94.5768 84 60.5)" gradientUnits="userSpaceOnUse">
<stop stop-color="#D9D9D9" stop-opacity="0.38"/>
<stop offset="1" stop-color="white" stop-opacity="0"/>
</radialGradient>
<radialGradient id="paint30_radial_149_463" cx="0" cy="0" r="1" gradientTransform="matrix(68.4238 60.5 -84 94.5768 84 60.5)" gradientUnits="userSpaceOnUse">
<stop stop-color="#D9D9D9" stop-opacity="0.38"/>
<stop offset="1" stop-color="white" stop-opacity="0"/>
</radialGradient>
<radialGradient id="paint31_radial_149_463" cx="0" cy="0" r="1" gradientTransform="matrix(68.4238 60.5 -84 94.5768 84 60.5)" gradientUnits="userSpaceOnUse">
<stop stop-color="#D9D9D9" stop-opacity="0.38"/>
<stop offset="1" stop-color="white" stop-opacity="0"/>
</radialGradient>
<radialGradient id="paint32_radial_149_463" cx="0" cy="0" r="1" gradientTransform="matrix(68.4238 60.5 -84 94.5768 84 60.5)" gradientUnits="userSpaceOnUse">
<stop stop-color="#D9D9D9" stop-opacity="0.38"/>
<stop offset="1" stop-color="white" stop-opacity="0"/>
</radialGradient>
<radialGradient id="paint33_radial_149_463" cx="0" cy="0" r="1" gradientTransform="matrix(68.4238 60.5 -84 94.5768 84 60.5)" gradientUnits="userSpaceOnUse">
<stop stop-color="#D9D9D9" stop-opacity="0.38"/>
<stop offset="1" stop-color="white" stop-opacity="0"/>
</radialGradient>
<radialGradient id="paint34_radial_149_463" cx="0" cy="0" r="1" gradientTransform="matrix(68.4238 60.5 -84 94.5768 84 60.5)" gradientUnits="userSpaceOnUse">
<stop stop-color="#D9D9D9" stop-opacity="0.38"/>
<stop offset="1" stop-color="white" stop-opacity="0"/>
</radialGradient>
<radialGradient id="paint35_radial_149_463" cx="0" cy="0" r="1" gradientTransform="matrix(68.4238 60.5 -84 94.5768 84 60.5)" gradientUnits="userSpaceOnUse">
<stop stop-color="#D9D9D9" stop-opacity="0.38"/>
<stop offset="1" stop-color="white" stop-opacity="0"/>
</radialGradient>
<radialGradient id="paint36_radial_149_463" cx="0" cy="0" r="1" gradientTransform="matrix(68.4238 60.5 -84 94.5768 84 60.5)" gradientUnits="userSpaceOnUse">
<stop stop-color="#D9D9D9" stop-opacity="0.38"/>
<stop offset="1" stop-color="white" stop-opacity="0"/>
</radialGradient>
<radialGradient id="paint37_radial_149_463" cx="0" cy="0" r="1" gradientTransform="matrix(68.4238 60.5 -84 94.5768 84 60.5)" gradientUnits="userSpaceOnUse">
<stop stop-color="#D9D9D9" stop-opacity="0.38"/>
<stop offset="1" stop-color="white" stop-opacity="0"/>
</radialGradient>
<radialGradient id="paint38_radial_149_463" cx="0" cy="0" r="1" gradientTransform="matrix(68.4238 60.5 -84 94.5768 84 60.5)" gradientUnits="userSpaceOnUse">
<stop stop-color="#D9D9D9" stop-opacity="0.38"/>
<stop offset="1" stop-color="white" stop-opacity="0"/>
</radialGradient>
<radialGradient id="paint39_radial_149_463" cx="0" cy="0" r="1" gradientTransform="matrix(68.4238 60.5 -84 94.5768 84 60.5)" gradientUnits="userSpaceOnUse">
<stop stop-color="#D9D9D9" stop-opacity="0.38"/>
<stop offset="1" stop-color="white" stop-opacity="0"/>
</radialGradient>
<radialGradient id="paint40_radial_149_463" cx="0" cy="0" r="1" gradientTransform="matrix(68.4238 60.5 -84 94.5768 84 60.5)" gradientUnits="userSpaceOnUse">
<stop stop-color="#D9D9D9" stop-opacity="0.38"/>
<stop offset="1" stop-color="white" stop-opacity="0"/>
</radialGradient>
<radialGradient id="paint41_radial_149_463" cx="0" cy="0" r="1" gradientTransform="matrix(68.4238 60.5 -84 94.5768 84 60.5)" gradientUnits="userSpaceOnUse">
<stop stop-color="#D9D9D9" stop-opacity="0.38"/>
<stop offset="1" stop-color="white" stop-opacity="0"/>
</radialGradient>
</defs>
</svg>
