<svg width="200" height="200" viewBox="0 0 200 200" fill="none" xmlns="http://www.w3.org/2000/svg">
<path d="M164.408 99.9631V194.138C164.408 197.421 161.83 200 158.547 200H41.3161C38.0333 200 35.4546 197.421 35.4546 194.138V109.107C35.4546 106.997 36.6265 105.121 38.3854 104.066L54.2111 94.9222C55.1494 94.3356 56.2044 94.1016 57.1419 94.1016H82.3469L99.9315 109.107L117.516 94.1016H158.547C161.83 94.1016 164.408 96.6802 164.408 99.9631Z" fill="#E63950"/>
<path d="M164.409 99.9631V194.138C164.409 197.421 161.83 200 158.547 200H99.9316V109.107L117.516 94.1016H158.547C161.83 94.1016 164.409 96.6802 164.409 99.9631Z" fill="#D0004F"/>
<path d="M103.918 11.7275C102.862 9.8514 101.455 8.09333 99.9313 6.80301C97.1178 3.87224 93.6012 1.87971 89.7322 0.825025C83.6358 -0.816206 77.3058 0.00440902 71.9128 3.16925C64.41 7.50757 59.9556 15.5957 60.1897 24.2712C60.3069 25.4435 60.8931 42.8718 60.8931 42.8718C59.6035 42.1684 46.2392 33.8446 46.2392 33.8446C44.7152 33.1413 34.1648 25.1696 21.1522 32.7892C15.7592 35.9548 11.8906 40.9953 10.249 46.9745C8.60814 53.0709 9.42914 59.401 12.5936 64.794C19.0413 76.0477 33.4611 79.7991 44.598 73.3514L59.6895 64.638L38.6653 63.2364C36.9064 64.2429 34.9155 64.7736 32.889 64.7764C28.6988 64.7764 24.818 62.5498 22.763 58.9606C21.126 56.1728 20.7364 53.1162 21.5664 50.0252C22.3851 47.0542 24.3483 44.5072 27.0845 42.9042C28.9965 41.7823 30.8167 41.2384 32.6428 41.2384C35.6767 41.2384 38.1894 42.721 39.5348 43.5166L40.2788 43.9402C42.1162 45.0851 54.0339 52.4804 55.2703 53.1561L55.7111 53.3964L55.6114 53.4538L55.7736 53.4609L69.8413 61.667L72.5767 43.6916L72.6443 43.4787L72.6091 42.4693C72.6091 42.4693 71.9737 24.2974 71.8479 23.0723C71.785 19.5577 74.0401 15.482 77.7782 13.3183C79.6043 12.248 81.5276 11.7212 83.5538 11.7212C84.5956 11.7212 85.6487 11.8643 86.6905 12.1448C88.5736 12.6599 90.2051 13.5989 91.4758 14.9267L92.3574 15.7567C92.6896 16.0314 93.2331 16.6441 93.6911 17.4624C96.496 22.2021 95.6317 28.4907 91.7736 32.2229C91.1382 32.8009 90.3024 33.4308 89.5411 33.8657L88.9585 34.2022L87.3927 48.6423L95.3581 44.0433C96.9994 43.1055 98.5238 41.9332 99.9301 40.644C107.434 33.3761 109.544 21.2232 103.918 11.7275ZM82.3467 94.1017V158.969C82.3467 161.314 83.7535 163.424 85.9808 164.362C88.091 165.3 90.6705 164.831 92.3109 163.072L99.9313 155.569L107.552 163.072C109.193 164.831 111.772 165.299 113.882 164.362C116.109 163.424 117.516 161.314 117.516 158.969V94.1017H82.3467Z" fill="#FED843"/>
<path d="M194.107 70.6556H188.245V64.794C188.245 61.5542 185.624 58.9325 182.384 58.9325C179.144 58.9325 176.522 61.5542 176.522 64.794V70.6556H170.661C167.421 70.6556 164.799 73.2772 164.799 76.5171C164.799 79.757 167.421 82.3787 170.661 82.3787H176.522V88.2402C176.522 91.4801 179.144 94.1017 182.384 94.1017C185.624 94.1017 188.245 91.4801 188.245 88.2402V82.3787H194.107C197.347 82.3787 199.969 79.757 199.969 76.5171C199.969 73.2772 197.347 70.6556 194.107 70.6556Z" fill="#FFB64C"/>
<path d="M175.862 24.7231C179.099 24.7231 181.723 22.0988 181.723 18.8615C181.723 15.6243 179.099 13 175.862 13C172.624 13 170 15.6243 170 18.8615C170 22.0988 172.624 24.7231 175.862 24.7231Z" fill="#FFB64C"/>
<path d="M146.823 82.3786C150.061 82.3786 152.685 79.7543 152.685 76.5171C152.685 73.2798 150.061 70.6555 146.823 70.6555C143.586 70.6555 140.962 73.2798 140.962 76.5171C140.962 79.7543 143.586 82.3786 146.823 82.3786Z" fill="#FFB64C"/>
<path d="M99.9316 94.1015H117.516V158.969C117.516 161.314 116.109 163.424 113.882 164.361C111.772 165.3 109.192 164.831 107.552 163.072L99.9316 155.569V94.1015ZM99.9316 40.6442V6.80322C101.456 8.09315 102.862 9.85122 103.918 11.7273C109.545 21.223 107.434 33.3763 99.9316 40.6442Z" fill="#FFB64C"/>
<path d="M150.693 46.0367L133.108 15.5567C131.467 12.7431 127.833 11.8053 125.019 13.4465L99.9317 27.9831L96.573 29.9206L29.916 68.3805L3.21628 83.7854C0.402742 85.3094 -0.925874 88.9435 0.715357 91.757L18.6907 122.237C20.332 125.051 23.8489 125.988 26.6624 124.347L99.9317 82.0269L148.465 54.0084C151.279 52.3679 152.217 48.851 150.693 46.0367Z" fill="#FF641A"/>
<path d="M148.465 54.0084L99.9316 82.0265V27.9831L125.019 13.4465C127.833 11.8053 131.467 12.7431 133.108 15.5567L150.693 46.0363C152.217 48.851 151.279 52.3675 148.465 54.0084Z" fill="#E63950"/>
</svg>
