<svg width="100" height="100" viewBox="0 0 100 100" fill="none" xmlns="http://www.w3.org/2000/svg">
<rect x="42.4215" y="36.4215" width="16.157" height="25.157" rx="8.07852" stroke="white" stroke-width="0.842955"/>
<rect x="49" y="41" width="1" height="4" rx="0.5" fill="white"/>
<path d="M88.7004 55.7577C89.1355 55.7579 89.462 55.6338 89.6801 55.3854C89.9032 55.1431 90.0363 54.8152 90.0795 54.4016C90.097 54.2339 90.0975 54.0673 90.0809 53.9017C90.0643 53.7361 90.0236 53.5849 89.9588 53.4482C89.8934 53.317 89.7977 53.2053 89.6717 53.1131C89.5507 53.027 89.3924 52.9737 89.1968 52.9533C89.0124 52.934 88.8559 52.9714 88.7275 53.0653C88.604 53.1654 88.4966 53.3011 88.4052 53.4723C88.3133 53.6492 88.2302 53.8496 88.156 54.0735C88.0873 54.298 88.0128 54.5247 87.9324 54.7536C87.8514 54.9881 87.7598 55.2158 87.6576 55.4368C87.561 55.6584 87.4391 55.8519 87.2918 56.0173C87.144 56.1883 86.9667 56.3167 86.76 56.4025C86.5527 56.4938 86.3009 56.524 86.0047 56.4931C85.6861 56.4598 85.4198 56.3585 85.2059 56.1893C84.9969 56.0262 84.8314 55.8252 84.7094 55.5865C84.5931 55.3483 84.5187 55.0863 84.4865 54.8004C84.448 54.5195 84.4431 54.2421 84.4717 53.9683C84.5067 53.6329 84.5819 53.3187 84.6973 53.0256C84.8121 52.7382 84.9653 52.4886 85.1569 52.277C85.3535 52.0715 85.5902 51.9154 85.8669 51.8087C86.1486 51.7082 86.4711 51.6769 86.8344 51.7149L86.7556 52.4694C86.5041 52.4431 86.2811 52.4679 86.0868 52.5436C85.8974 52.6255 85.7359 52.7386 85.6021 52.8829C85.4678 53.0327 85.3616 53.2109 85.2835 53.4174C85.2055 53.624 85.1547 53.8391 85.1314 54.0626C85.1127 54.2415 85.1108 54.4221 85.1256 54.6044C85.1399 54.7924 85.1786 54.9631 85.2416 55.1166C85.3103 55.2707 85.4098 55.3998 85.5402 55.5038C85.6706 55.6078 85.8448 55.6712 86.0628 55.694C86.2696 55.7156 86.4431 55.6772 86.5833 55.5789C86.723 55.4861 86.8415 55.3516 86.9391 55.1753C87.0416 55.0052 87.13 54.8082 87.2042 54.5843C87.2785 54.3604 87.3533 54.1309 87.4287 53.8958C87.5091 53.6669 87.5948 53.4414 87.6858 53.2192C87.7824 52.9976 87.8963 52.8005 88.0273 52.6277C88.1634 52.4611 88.3267 52.3313 88.5172 52.2382C88.7128 52.1512 88.9475 52.1221 89.2213 52.1507C89.5232 52.1822 89.7766 52.2709 89.9818 52.4166C90.1925 52.5629 90.3572 52.744 90.4759 52.9598C90.5997 53.1818 90.6816 53.4248 90.7218 53.6889C90.767 53.9592 90.7753 54.2313 90.7467 54.5052C90.7146 54.8126 90.6485 55.0939 90.5484 55.349C90.4483 55.6041 90.3098 55.8213 90.1328 56.0005C89.9553 56.1854 89.7405 56.3212 89.4885 56.4078C89.2415 56.5007 88.9525 56.5355 88.6216 56.5122L88.7004 55.7577Z" fill="white"/>
<path d="M86.7253 64.4747C87.1583 64.5292 87.5262 64.4452 87.829 64.2228C88.13 64.0057 88.3492 63.698 88.4869 63.2996C88.6043 62.9597 88.6415 62.6455 88.5985 62.3572C88.5536 62.0741 88.4498 61.8153 88.287 61.5807C88.1278 61.3532 87.9229 61.1546 87.6724 60.9848C87.4219 60.815 87.1479 60.6788 86.8505 60.576C86.5264 60.464 86.2055 60.3948 85.8877 60.3682C85.5752 60.3435 85.2834 60.3705 85.0124 60.4493C84.7449 60.5352 84.5052 60.6784 84.2933 60.8787C84.0814 61.0789 83.9167 61.3491 83.7993 61.689C83.713 61.9386 83.6767 62.1728 83.6903 62.3916C83.7074 62.6175 83.7638 62.8243 83.8595 63.0119C83.9587 63.2067 84.0954 63.3788 84.2697 63.5282C84.444 63.6776 84.6453 63.8007 84.8735 63.8974L84.612 64.6543C83.9206 64.3322 83.4482 63.8925 83.1948 63.3352C82.9415 62.778 82.9405 62.1355 83.1919 61.4078C83.3442 60.9669 83.5516 60.6075 83.8141 60.3296C84.0819 60.0535 84.3862 59.8524 84.7271 59.7264C85.0679 59.6004 85.4382 59.544 85.8379 59.5573C86.2358 59.5758 86.6419 59.6567 87.0562 59.7998C87.4705 59.943 87.8381 60.1353 88.1589 60.377C88.485 60.6205 88.745 60.9006 88.9388 61.2172C89.1308 61.5392 89.246 61.8941 89.2844 62.282C89.3263 62.677 89.272 63.0923 89.1215 63.5278C89.0188 63.8253 88.8817 64.093 88.7102 64.3311C88.5388 64.5691 88.3403 64.7651 88.1147 64.9191C87.8891 65.073 87.6355 65.1786 87.3541 65.236C87.078 65.2952 86.7812 65.2937 86.4638 65.2316L86.7253 64.4747Z" fill="white"/>
<path d="M85.1817 70.1603L83.6788 72.5611C83.3746 73.0469 83.0185 73.3511 82.6104 73.4735C82.1993 73.6007 81.7865 73.5345 81.3721 73.2751C81.0625 73.0813 80.8357 72.8399 80.6917 72.5509C80.5448 72.2666 80.5254 71.9428 80.6335 71.5796L80.6192 71.5706C80.4981 71.7004 80.376 71.7896 80.2526 71.8384C80.1263 71.8919 79.9991 71.9151 79.871 71.9078C79.7447 71.9083 79.617 71.8847 79.4878 71.837C79.3555 71.794 79.223 71.7409 79.0903 71.6776C78.9604 71.6096 78.8297 71.5378 78.6981 71.462C78.5666 71.3863 78.4329 71.3191 78.2971 71.2607C78.1613 71.2022 78.0258 71.1538 77.8906 71.1156C77.7572 71.0851 77.6253 71.0788 77.4948 71.0966L77.9689 70.3392C78.0512 70.3244 78.1435 70.3358 78.2459 70.3734C78.3454 70.4157 78.4514 70.4688 78.5639 70.5326C78.6812 70.5994 78.8056 70.6707 78.9372 70.7465C79.0688 70.8222 79.204 70.8869 79.3428 70.9406C79.4785 70.9991 79.6101 71.0484 79.7376 71.0884C79.8698 71.1313 79.9958 71.1472 80.1155 71.136C80.24 71.1277 80.3574 71.0885 80.4677 71.0183C80.5827 70.9511 80.6924 70.8341 80.7967 70.6674L81.8344 69.0097L79.6552 67.6455L80.0801 66.9668L85.1817 70.1603ZM81.5204 70.7823C81.422 70.9395 81.34 71.097 81.2743 71.2548C81.2087 71.4126 81.1764 71.5648 81.1775 71.7113C81.1804 71.8656 81.2196 72.0095 81.2952 72.143C81.3725 72.2842 81.504 72.413 81.6898 72.5292C81.947 72.6903 82.2014 72.75 82.4528 72.7085C82.7042 72.667 82.9298 72.4867 83.1296 72.1675L84.1851 70.4813L82.406 69.3676L81.5204 70.7823Z" fill="white"/>
<path d="M77.8114 74.2317C77.5968 74.0171 77.3564 73.8323 77.0902 73.6773C76.8279 73.5263 76.5537 73.427 76.2676 73.3793C75.9815 73.3316 75.6934 73.3495 75.4033 73.433C75.1172 73.5204 74.845 73.6932 74.5867 73.9515C74.3284 74.2098 74.1556 74.482 74.0682 74.7681C73.9847 75.0582 73.9668 75.3463 74.0145 75.6324C74.0622 75.9185 74.1615 76.1927 74.3125 76.455C74.4675 76.7212 74.6523 76.9616 74.8669 77.1762C75.0815 77.3908 75.3199 77.5736 75.5821 77.7246C75.8484 77.8796 76.1246 77.9809 76.4107 78.0286C76.6968 78.0763 76.9829 78.0564 77.269 77.969C77.5591 77.8855 77.8333 77.7147 78.0916 77.4564C78.3498 77.1981 78.5207 76.9239 78.6042 76.6338C78.6916 76.3477 78.7115 76.0616 78.6638 75.7755C78.6161 75.4894 78.5148 75.2132 78.3598 74.947C78.2088 74.6847 78.026 74.4463 77.8114 74.2317ZM78.3777 73.6654C78.6677 73.9555 78.9042 74.2754 79.087 74.6251C79.2698 74.9827 79.379 75.3503 79.4148 75.7278C79.4506 76.1053 79.4029 76.4828 79.2717 76.8603C79.1406 77.2378 78.9062 77.5954 78.5684 77.9332C78.2306 78.271 77.873 78.5054 77.4955 78.6366C77.118 78.7677 76.7405 78.8154 76.363 78.7796C75.9855 78.7438 75.6199 78.6326 75.2662 78.4458C74.9126 78.267 74.5907 78.0326 74.3006 77.7425C74.0105 77.4524 73.7741 77.1285 73.5913 76.7709C73.4085 76.4212 73.2992 76.0576 73.2635 75.6801C73.2277 75.3026 73.2754 74.9251 73.4065 74.5476C73.5416 74.1741 73.7781 73.8184 74.1158 73.4806C74.4536 73.1429 74.8093 72.9064 75.1828 72.7713C75.5603 72.6402 75.9378 72.5925 76.3153 72.6283C76.6928 72.664 77.0584 72.7713 77.412 72.9502C77.7657 73.1369 78.0876 73.3753 78.3777 73.6654Z" fill="white"/>
<path d="M73.5023 82.5384L72.8362 82.983L69.8688 78.5382L67.2188 80.3074L66.8443 79.7466L70.1604 77.5327L73.5023 82.5384Z" fill="white"/>
<path d="M68.551 86.6332L67.8256 86.9725L65.5618 82.1313L62.6754 83.481L62.3897 82.8701L66.0015 81.1812L68.551 86.6332Z" fill="white"/>
<path d="M53.9678 84.9318L52.6395 85.0293C52.5499 85.0359 52.4382 85.0497 52.3045 85.0708C52.1712 85.0975 52.0308 85.1416 51.8831 85.2032C51.7359 85.2703 51.5932 85.3597 51.4549 85.4713C51.3109 85.5833 51.1865 85.7305 51.0816 85.9128C50.9766 86.0952 50.8972 86.318 50.8433 86.5812C50.7841 86.8503 50.7682 87.1699 50.7953 87.5398C50.8217 87.8985 50.8815 88.2153 50.975 88.4902C51.0632 88.771 51.1958 89.0036 51.3728 89.1878C51.5445 89.3781 51.7602 89.5144 52.0198 89.5967C52.2798 89.6847 52.5948 89.7151 52.9647 89.688L54.3098 89.5892L53.9678 84.9318ZM55.1578 90.2031L53.0981 90.3543C52.1734 90.4222 51.4443 90.2391 50.9109 89.805C50.3776 89.3708 50.0755 88.6717 50.0047 87.7077C49.9677 87.2033 49.9908 86.7508 50.0741 86.3503C50.1578 85.9553 50.3074 85.6147 50.5231 85.3284C50.7391 85.0477 51.0242 84.8239 51.3782 84.657C51.7322 84.4902 52.1586 84.3884 52.6574 84.3518L54.7171 84.2006L55.1578 90.2031Z" fill="white"/>
<path d="M46.4966 87.7781C46.5443 87.4784 46.5527 87.1753 46.5218 86.8688C46.4901 86.5679 46.4095 86.2876 46.2801 86.028C46.1507 85.7684 45.9671 85.5457 45.7292 85.3599C45.4904 85.1796 45.1907 85.0608 44.83 85.0033C44.4692 84.9459 44.1474 84.9658 43.8645 85.063C43.5806 85.1658 43.3369 85.3205 43.1333 85.5271C42.9297 85.7337 42.7661 85.9751 42.6425 86.2513C42.518 86.5331 42.4319 86.8238 42.3842 87.1235C42.3365 87.4232 42.3285 87.7235 42.3602 88.0245C42.3911 88.331 42.4713 88.6141 42.6006 88.8736C42.73 89.1332 42.9141 89.3532 43.1529 89.5334C43.3907 89.7193 43.6901 89.8409 44.0508 89.8983C44.4115 89.9557 44.7338 89.933 45.0176 89.8303C45.3005 89.733 45.5438 89.5811 45.7474 89.3745C45.951 89.1679 46.1151 88.9238 46.2396 88.642C46.3632 88.3658 46.4489 88.0778 46.4966 87.7781ZM47.2874 87.904C47.2229 88.3091 47.1028 88.6884 46.9271 89.0416C46.7449 89.3996 46.5116 89.7039 46.227 89.9545C45.9424 90.2051 45.6088 90.3881 45.2262 90.5036C44.8437 90.6192 44.4165 90.6394 43.9448 90.5643C43.473 90.4892 43.0733 90.3373 42.7455 90.1088C42.4177 89.8802 42.1574 89.6026 41.9647 89.276C41.772 88.9494 41.6474 88.5882 41.5909 88.1922C41.528 87.801 41.5288 87.4028 41.5933 86.9976C41.6578 86.5925 41.7811 86.2109 41.9633 85.853C42.139 85.4997 42.3692 85.1978 42.6538 84.9472C42.9383 84.6966 43.2719 84.5135 43.6545 84.398C44.0362 84.288 44.4629 84.2706 44.9346 84.3457C45.4064 84.4208 45.8066 84.5698 46.1353 84.7929C46.4631 85.0215 46.7233 85.299 46.916 85.6256C47.1087 85.9522 47.2365 86.3111 47.2995 86.7024C47.3559 87.0983 47.3519 87.4989 47.2874 87.904Z" fill="white"/>
<path d="M34.2612 81.1587L35.0198 81.5065L34.1604 86.6766L34.1758 86.6837L37.5483 82.6661L38.3069 83.0139L37.2002 89.1278L36.457 88.787L37.4715 83.7437L37.4561 83.7366L34.143 87.7258L33.3538 87.3639L34.2303 82.2573L34.215 82.2503L31.0168 86.2922L30.2889 85.9584L34.2612 81.1587Z" fill="white"/>
<path d="M25.0984 82.7353L24.4422 82.1928L25.1095 76.4116L25.0965 76.4009L21.9865 80.1624L21.4018 79.679L25.237 75.0404L25.9126 75.5991L25.258 81.3251L25.271 81.3359L28.3489 77.6133L28.9335 78.0968L25.0984 82.7353Z" fill="white"/>
<path d="M11.0879 45.7681C10.6533 45.7863 10.3323 45.9241 10.1249 46.1816C9.91231 46.433 9.79318 46.7663 9.76752 47.1814C9.75712 47.3497 9.76372 47.5162 9.78732 47.6809C9.81092 47.8456 9.858 47.9949 9.92855 48.1288C9.99945 48.2571 10.0998 48.3646 10.2295 48.4515C10.354 48.5323 10.5144 48.5789 10.7108 48.591C10.8959 48.6024 11.0506 48.5585 11.175 48.4592C11.2941 48.354 11.3956 48.2139 11.4797 48.0389C11.564 47.8583 11.6385 47.6546 11.7032 47.4277C11.7623 47.2005 11.8272 46.9709 11.8978 46.7388C11.9688 46.501 12.0507 46.2696 12.1435 46.0445C12.2306 45.819 12.3442 45.6206 12.4843 45.449C12.6247 45.2719 12.7964 45.1361 12.9993 45.0417C13.2026 44.9417 13.4528 44.9008 13.7501 44.9192C14.0698 44.939 14.3402 45.0289 14.5611 45.1889C14.7768 45.343 14.9506 45.5367 15.0826 45.7701C15.209 46.0031 15.2943 46.2618 15.3387 46.5461C15.389 46.8251 15.4057 47.102 15.3887 47.3768C15.3679 47.7134 15.3061 48.0305 15.2032 48.3282C15.1007 48.6202 14.9582 48.876 14.7757 49.0956C14.588 49.3092 14.3581 49.4752 14.0862 49.5935C13.809 49.7059 13.4881 49.7508 13.1235 49.7283L13.1703 48.971C13.4227 48.9867 13.6444 48.9525 13.8354 48.8686C14.0211 48.7787 14.1777 48.6589 14.3052 48.5091C14.4331 48.3537 14.5316 48.1712 14.6009 47.9615C14.6701 47.7519 14.7117 47.5348 14.7256 47.3105C14.7367 47.131 14.7309 46.9505 14.7084 46.7689C14.6862 46.5817 14.6403 46.4128 14.5708 46.2621C14.4957 46.1111 14.3908 45.9864 14.2561 45.8879C14.1214 45.7895 13.9447 45.7336 13.726 45.72C13.5184 45.7072 13.3467 45.7529 13.2107 45.8571C13.0751 45.9557 12.9624 46.0951 12.8724 46.2754C12.7772 46.4497 12.6972 46.6502 12.6325 46.8771C12.5678 47.1039 12.5028 47.3364 12.4374 47.5744C12.3667 47.8066 12.2906 48.0355 12.2091 48.2613C12.122 48.4868 12.0166 48.6886 11.893 48.8668C11.7641 49.039 11.6065 49.1756 11.42 49.2767C11.2284 49.3718 10.9951 49.4109 10.7203 49.3939C10.4174 49.3752 10.1604 49.2974 9.94924 49.1605C9.73251 49.0232 9.56027 48.8493 9.43253 48.6387C9.29952 48.4221 9.20734 48.1828 9.15598 47.9206C9.09935 47.6525 9.07954 47.381 9.09652 47.1061C9.11559 46.7976 9.16973 46.5138 9.25894 46.2547C9.34816 45.9956 9.47735 45.7727 9.64654 45.5861C9.81607 45.3939 10.0249 45.2492 10.273 45.1519C10.5159 45.0487 10.8031 45.0017 11.1347 45.0109L11.0879 45.7681Z" fill="white"/>
<path d="M13.1491 37.9721C12.714 37.9373 12.3503 38.0378 12.0579 38.2737C11.7671 38.5042 11.562 38.8215 11.4425 39.2257C11.3406 39.5706 11.3177 39.8862 11.3737 40.1723C11.4314 40.453 11.5468 40.7069 11.72 40.9339C11.8894 41.1539 12.103 41.343 12.361 41.5013C12.6189 41.6596 12.8988 41.7833 13.2006 41.8725C13.5293 41.9697 13.8531 42.0243 14.1718 42.0365C14.4851 42.047 14.7753 42.0068 15.0425 41.9158C15.3058 41.8179 15.5388 41.6641 15.7414 41.4544C15.944 41.2447 16.0963 40.9674 16.1982 40.6225C16.2731 40.3692 16.2988 40.1336 16.2753 39.9157C16.248 39.6908 16.1823 39.4868 16.0782 39.3037C15.9703 39.1136 15.8259 38.9478 15.645 38.8065C15.4641 38.6651 15.2575 38.5513 15.0251 38.465L15.2521 37.6971C15.9574 37.9876 16.4492 38.4054 16.7275 38.9506C17.0059 39.4958 17.036 40.1376 16.8177 40.8759C16.6855 41.3232 16.4946 41.6916 16.245 41.9812C15.9899 42.2691 15.695 42.4838 15.3603 42.6251C15.0255 42.7664 14.6581 42.8395 14.2582 42.8443C13.8599 42.8438 13.4506 42.7814 13.0302 42.6572C12.6098 42.533 12.2339 42.3574 11.9025 42.1305C11.5657 41.9021 11.2933 41.634 11.0854 41.3265C10.879 41.0135 10.7478 40.6642 10.6919 40.2784C10.6322 39.8857 10.6676 39.4684 10.7982 39.0265C10.8874 38.7247 11.0122 38.451 11.1727 38.2055C11.3332 37.9599 11.5226 37.7551 11.741 37.5911C11.9595 37.4271 12.2079 37.3101 12.4865 37.2401C12.7596 37.1685 13.0562 37.1565 13.3761 37.2042L13.1491 37.9721Z" fill="white"/>
<path d="M13.9346 32.4475L15.33 29.9828C15.6124 29.484 15.9548 29.1644 16.3571 29.0241C16.7622 28.8789 17.1775 28.9267 17.603 29.1676C17.9209 29.3476 18.1581 29.5788 18.3146 29.8611C18.474 30.1386 18.5077 30.4612 18.4157 30.8289L18.4304 30.8372C18.5456 30.7022 18.6637 30.6077 18.7848 30.5535C18.9086 30.4945 19.0347 30.4657 19.1629 30.4673C19.2891 30.4612 19.4177 30.4792 19.5489 30.5212C19.6829 30.5583 19.8176 30.6055 19.9531 30.6628C20.0858 30.725 20.2195 30.7911 20.3543 30.8609C20.4891 30.9308 20.6257 30.9919 20.7639 31.0444C20.9021 31.0968 21.0396 31.1391 21.1763 31.1713C21.311 31.1959 21.4431 31.1964 21.5726 31.1729L21.1324 31.9505C21.0509 31.9689 20.9582 31.9616 20.8542 31.9286C20.753 31.8906 20.6447 31.8423 20.5295 31.7835C20.4093 31.7219 20.2819 31.6562 20.1471 31.5863C20.0123 31.5165 19.8744 31.4578 19.7334 31.4102C19.5951 31.3578 19.4615 31.3144 19.3324 31.2801C19.1984 31.243 19.0719 31.2327 18.9527 31.2492C18.8287 31.2629 18.7132 31.3073 18.6061 31.3823C18.4942 31.4546 18.3898 31.5763 18.2929 31.7474L17.3294 33.4493L19.5667 34.7159L19.1722 35.4128L13.9346 32.4475ZM17.5648 31.6646C17.6562 31.5032 17.7312 31.3422 17.7898 31.1817C17.8484 31.0211 17.8739 30.8677 17.8664 30.7213C17.8567 30.5673 17.8112 30.4253 17.7298 30.2953C17.6463 30.1576 17.5092 30.0348 17.3185 29.9268C17.0544 29.7773 16.7977 29.7288 16.5484 29.7814C16.299 29.834 16.0816 30.0241 15.8961 30.3517L14.916 32.0829L16.7425 33.117L17.5648 31.6646Z" fill="white"/>
<path d="M20.4744 26.3176C20.6982 26.5226 20.9464 26.6968 21.2191 26.84C21.4877 26.9794 21.766 27.0667 22.0539 27.1019C22.3418 27.137 22.6289 27.1066 22.915 27.0106C23.1971 26.9108 23.4615 26.7262 23.7083 26.4569C23.955 26.1876 24.1159 25.9081 24.1907 25.6185C24.2615 25.3251 24.2668 25.0365 24.2067 24.7527C24.1466 24.4689 24.0353 24.1993 23.8731 23.9439C23.7066 23.6847 23.5115 23.4525 23.2878 23.2475C23.0641 23.0425 22.8179 22.8703 22.5493 22.7309C22.2766 22.5876 21.9962 22.4984 21.7083 22.4633C21.4204 22.4281 21.1354 22.4604 20.8534 22.5602C20.5673 22.6562 20.3008 22.8389 20.054 23.1082C19.8072 23.3775 19.6484 23.6589 19.5777 23.9523C19.5029 24.242 19.4955 24.5287 19.5556 24.8124C19.6157 25.0962 19.729 25.3677 19.8954 25.6269C20.0577 25.8824 20.2507 26.1126 20.4744 26.3176ZM19.9334 26.908C19.6309 26.6309 19.3808 26.3216 19.1829 25.9802C18.9847 25.6309 18.8595 25.2684 18.8073 24.8928C18.7552 24.5172 18.7863 24.138 18.9009 23.7551C19.0154 23.3723 19.2341 23.0048 19.5568 22.6526C19.8795 22.3004 20.2266 22.0506 20.598 21.9032C20.9695 21.7557 21.3445 21.6916 21.7232 21.7109C22.1019 21.7301 22.472 21.8254 22.8335 21.9965C23.1946 22.1598 23.5264 22.38 23.8288 22.6571C24.1313 22.9343 24.3816 23.2475 24.5798 23.5969C24.7777 23.9382 24.9027 24.2967 24.9549 24.6723C25.0071 25.0479 24.9759 25.4271 24.8614 25.81C24.7427 26.1891 24.5219 26.5547 24.1992 26.9068C23.8765 27.259 23.5315 27.5107 23.1642 27.662C22.7928 27.8094 22.4177 27.8735 22.039 27.8543C21.6603 27.835 21.2904 27.7437 20.9293 27.5805C20.5678 27.4093 20.2359 27.1852 19.9334 26.908Z" fill="white"/>
<path d="M23.7745 18.1703L24.4203 17.6968L27.5799 22.0072L30.1498 20.1234L30.5485 20.6673L27.3327 23.0245L23.7745 18.1703Z" fill="white"/>
<path d="M28.7719 14.1169L29.4815 13.7458L31.9585 18.4814L34.7819 17.0046L35.0945 17.6022L31.5614 19.4501L28.7719 14.1169Z" fill="white"/>
<path d="M44.6235 14.8849L45.9465 14.7313C46.0358 14.7209 46.1468 14.7023 46.2795 14.6756C46.4115 14.6433 46.5499 14.5933 46.6948 14.5255C46.8391 14.4522 46.9779 14.3569 47.1114 14.2395C47.2504 14.1216 47.3685 13.9692 47.4656 13.7826C47.5628 13.5959 47.6327 13.37 47.6754 13.1048C47.7231 12.8333 47.7256 12.5134 47.6828 12.145C47.6413 11.7877 47.568 11.4737 47.4631 11.2031C47.363 10.9262 47.2207 10.6994 47.0361 10.5228C46.8565 10.34 46.6352 10.213 46.3723 10.1417C46.1088 10.0648 45.7929 10.0477 45.4244 10.0905L44.0847 10.2461L44.6235 14.8849ZM43.2115 9.66868L45.2629 9.4304C46.184 9.32342 46.9201 9.47553 47.4714 9.88673C48.0227 10.2979 48.3541 10.9836 48.4656 11.9437C48.5239 12.4461 48.52 12.8992 48.4537 13.3029C48.3868 13.701 48.2517 14.0477 48.0484 14.3429C47.8444 14.6325 47.5691 14.8681 47.2225 15.0498C46.8758 15.2315 46.4541 15.3512 45.9573 15.4089L43.9058 15.6472L43.2115 9.66868Z" fill="white"/>
<path d="M52.0198 12.1897C51.9848 12.4911 51.9892 12.7943 52.033 13.0992C52.0774 13.3986 52.1698 13.6752 52.31 13.9291C52.4502 14.183 52.6431 14.3977 52.8886 14.5734C53.1348 14.7434 53.4393 14.8495 53.8021 14.8916C54.1649 14.9338 54.4856 14.9003 54.7642 14.7912C55.0434 14.6765 55.2804 14.5117 55.4751 14.2967C55.6698 14.0817 55.8231 13.8336 55.9349 13.5524C56.0474 13.2656 56.1212 12.9715 56.1562 12.6701C56.1912 12.3687 56.1865 12.0683 56.1421 11.7689C56.0983 11.464 56.0063 11.1846 55.8661 10.9307C55.7258 10.6768 55.5326 10.4648 55.2865 10.2948C55.041 10.1192 54.7368 10.0103 54.374 9.96813C54.0111 9.92599 53.6901 9.96225 53.4109 10.0769C53.1323 10.186 52.8957 10.348 52.701 10.563C52.5063 10.778 52.3527 11.0289 52.2401 11.3157C52.1283 11.5969 52.0548 11.8882 52.0198 12.1897ZM51.2244 12.0973C51.2717 11.6898 51.3757 11.3058 51.5364 10.9454C51.7033 10.5801 51.9236 10.2662 52.1973 10.0039C52.4711 9.74146 52.7966 9.54449 53.174 9.41294C53.5513 9.28138 53.9773 9.24316 54.4518 9.29827C54.9262 9.35338 55.3321 9.48821 55.6692 9.70275C56.0064 9.9173 56.2781 10.1836 56.4844 10.5018C56.6908 10.8199 56.8305 11.1756 56.9036 11.5688C56.983 11.9571 56.999 12.355 56.9517 12.7625C56.9043 13.17 56.7972 13.5564 56.6303 13.9217C56.4697 14.2821 56.2525 14.5935 55.9787 14.8559C55.705 15.1183 55.3794 15.3153 55.0021 15.4468C54.6253 15.5728 54.1998 15.6082 53.7253 15.5531C53.2508 15.498 52.8446 15.366 52.5068 15.157C52.1697 14.9424 51.8979 14.6761 51.6916 14.3579C51.4853 14.0398 51.3424 13.6866 51.2631 13.2983C51.1899 12.9051 51.177 12.5048 51.2244 12.0973Z" fill="white"/>
<path d="M64.4291 17.7967L63.6569 17.4802L64.3034 12.2792L64.2878 12.2728L61.0829 16.4254L60.3107 16.1089L61.1656 9.9548L61.9222 10.2649L61.1154 15.3456L61.131 15.352L64.2778 11.2302L65.0812 11.5594L64.4148 16.6977L64.4304 16.7041L67.4602 12.5344L68.2012 12.838L64.4291 17.7967Z" fill="white"/>
<path d="M73.2659 15.4359L73.9451 15.9492L73.5311 21.754L73.5446 21.7642L76.4872 17.8703L77.0925 18.3277L73.4637 23.1295L72.7643 22.6009L73.168 16.8517L73.1545 16.8416L70.2424 20.6951L69.6371 20.2377L73.2659 15.4359Z" fill="white"/>
<circle cx="85" cy="35" r="2" fill="white"/>
<circle cx="17" cy="65" r="2" fill="white"/>
</svg>
