<svg width="56" height="56" viewBox="0 0 56 56" fill="none" xmlns="http://www.w3.org/2000/svg">
<path d="M51.8811 13.6582C55.7284 20.2715 56.5125 27.8801 54.6953 34.74C52.878 41.5999 48.386 47.7538 41.7666 51.6047C35.1471 55.4556 27.5772 56.3189 20.7156 54.508C13.8541 52.6971 7.67011 48.3283 3.77999 41.6415C-0.110125 34.9547 -0.882241 27.5358 0.934987 20.6759C2.75222 13.816 7.2443 7.66209 13.8637 3.81118C20.4831 -0.0397378 28.0531 -0.903022 34.9146 0.907885C41.8498 2.676 48.0337 7.04484 51.8811 13.6582ZM54.2301 34.6172C56.0165 27.8736 55.2444 20.4547 51.4398 13.9149C47.6779 7.44853 41.6103 3.11039 34.865 1.33018C28.1197 -0.450038 20.6233 0.370457 14.0775 4.17858C7.53159 7.98671 3.18661 14.0551 1.40018 20.7987C-0.386249 27.5423 0.385867 34.9612 4.14774 41.4275C7.90961 47.8939 13.9773 52.232 20.7225 54.0122C27.4678 55.7924 34.9642 54.9719 41.4365 51.2066C48.0251 47.472 52.4436 41.3608 54.2301 34.6172Z" fill="#D4AF37"/>
</svg>
