<svg width="22" height="22" viewBox="0 0 22 22" fill="none" xmlns="http://www.w3.org/2000/svg">
<g clip-path="url(#clip0_149_521)">
<path d="M20.9686 14.5269L19.7861 13.8394L12.0243 18.2875C11.7107 18.4685 11.3551 18.5638 10.993 18.5638C10.631 18.5638 10.2753 18.4685 9.96177 18.2875L2.21364 13.8531L1.03114 14.5406C0.925339 14.6006 0.837334 14.6875 0.776105 14.7926C0.714877 14.8977 0.682617 15.0171 0.682617 15.1387C0.682617 15.2603 0.714877 15.3798 0.776105 15.4849C0.837334 15.5899 0.925339 15.6769 1.03114 15.7369L10.6561 21.2369C10.7607 21.2972 10.8792 21.329 10.9999 21.329C11.1206 21.329 11.2391 21.2972 11.3436 21.2369L20.9686 15.7369C21.0744 15.6769 21.1625 15.5899 21.2237 15.4849C21.2849 15.3798 21.3172 15.2603 21.3172 15.1387C21.3172 15.0171 21.2849 14.8977 21.2237 14.7926C21.1625 14.6875 21.0744 14.6006 20.9686 14.5406V14.5269Z" fill="white"/>
<path d="M20.9686 10.4019L19.7861 9.71436L12.0243 14.1625C11.7107 14.3435 11.3551 14.4388 10.993 14.4388C10.631 14.4388 10.2753 14.3435 9.96177 14.1625L2.21364 9.72811L1.03114 10.4156C0.925339 10.4756 0.837334 10.5625 0.776105 10.6676C0.714877 10.7727 0.682617 10.8921 0.682617 11.0137C0.682617 11.1353 0.714877 11.2548 0.776105 11.3599C0.837334 11.4649 0.925339 11.5519 1.03114 11.6119L10.6561 17.1119C10.7607 17.1722 10.8792 17.204 10.9999 17.204C11.1206 17.204 11.2391 17.1722 11.3436 17.1119L20.9686 11.6119C21.0744 11.5519 21.1625 11.4649 21.2237 11.3599C21.2849 11.2548 21.3172 11.1353 21.3172 11.0137C21.3172 10.8921 21.2849 10.7727 21.2237 10.6676C21.1625 10.5625 21.0744 10.4756 20.9686 10.4156V10.4019Z" fill="white"/>
<path d="M1.03114 7.47311L10.6561 12.9731C10.7607 13.0335 10.8792 13.0652 10.9999 13.0652C11.1206 13.0652 11.2391 13.0335 11.3436 12.9731L20.9686 7.47311C21.0744 7.41315 21.1625 7.32619 21.2237 7.22112C21.2849 7.11604 21.3172 6.9966 21.3172 6.87499C21.3172 6.75337 21.2849 6.63393 21.2237 6.52886C21.1625 6.42378 21.0744 6.33682 20.9686 6.27686L11.3436 0.776861C11.2391 0.71652 11.1206 0.684753 10.9999 0.684753C10.8792 0.684753 10.7607 0.71652 10.6561 0.776861L1.03114 6.27686C0.925339 6.33682 0.837334 6.42378 0.776105 6.52886C0.714877 6.63393 0.682617 6.75337 0.682617 6.87499C0.682617 6.9966 0.714877 7.11604 0.776105 7.22112C0.837334 7.32619 0.925339 7.41315 1.03114 7.47311ZM13.578 5.60999L14.5474 4.64061L16.3005 6.38686C16.365 6.45077 16.4161 6.52681 16.451 6.61059C16.4859 6.69437 16.5039 6.78423 16.5039 6.87499C16.5039 6.96574 16.4859 7.0556 16.451 7.13938C16.4161 7.22316 16.365 7.2992 16.3005 7.36311L14.5474 9.10936L13.578 8.13999L14.843 6.87499L13.578 5.60999ZM10.9999 4.02186L12.3749 4.35186L10.9999 9.72811L9.66614 9.39811L10.9999 4.02186ZM5.69927 6.38686L7.45239 4.64061L8.42177 5.60999L7.15677 6.87499L8.42177 8.13999L7.45239 9.10936L5.69927 7.36311C5.63483 7.2992 5.58368 7.22316 5.54878 7.13938C5.51388 7.0556 5.49591 6.96574 5.49591 6.87499C5.49591 6.78423 5.51388 6.69437 5.54878 6.61059C5.58368 6.52681 5.63483 6.45077 5.69927 6.38686Z" fill="white"/>
</g>
<defs>
<clipPath id="clip0_149_521">
<rect width="22" height="22" fill="white"/>
</clipPath>
</defs>
</svg>
