<svg width="108" height="53" viewBox="0 0 108 53" fill="none" xmlns="http://www.w3.org/2000/svg">
<path d="M0.0495311 50.0428C0.949648 46.1752 2.2722 42.357 4.02916 38.7777C5.66981 35.1678 7.77565 31.6806 10.2423 28.4753C12.6355 25.3127 15.304 22.2851 18.376 19.6127C21.2274 17.0687 24.3234 14.7758 27.7067 12.8076L25.783 9.50092L25.5265 9.06004L25.9678 8.80331C29.6452 6.66391 33.5364 4.89192 37.378 3.54222C41.4094 2.18043 45.4646 1.19813 49.5438 0.595334C53.7393 0.0232326 57.8851 -0.126578 62.0548 0.103111C66.2246 0.332801 70.3446 0.984777 74.415 2.05904L74.8802 2.18182L74.757 2.64689L73.6243 6.45309C77.1132 7.37389 80.5098 8.64349 83.7403 10.3047C87.0872 11.9966 90.2989 13.9638 93.302 16.2492C94.7453 17.3765 96.1151 18.5466 97.4114 19.7595C98.7077 20.9724 99.9731 22.3016 101.122 23.6C102.314 24.972 103.433 26.3867 104.477 27.8443C105.553 29.1855 106.524 30.6858 107.465 32.3024L107.721 32.7433L107.28 33L102.132 35.9952L101.764 36.2091L101.55 35.8417C101.422 35.6213 101.251 35.3274 101.006 35.0762C100.835 34.7823 100.591 34.5312 100.462 34.3107C96.5277 28.7317 91.5017 23.9843 85.7025 20.2768C80.1051 16.747 73.7345 14.257 66.8352 13.0582C59.936 11.8593 53.0895 12.105 46.5902 13.624C39.9009 15.1551 33.6015 18.0331 28.0903 21.9277C23.0513 25.4493 18.7151 29.8406 15.2288 35.016C11.8041 39.9589 9.26015 45.5696 7.77482 51.6463L7.65162 52.1114L7.18642 51.9886L0.465062 50.5879L-0.000123931 50.4651L0.0495311 50.0428ZM4.92874 39.1395C3.34969 42.5169 2.08872 46.1027 1.17666 49.7805L6.96764 50.9357C8.56927 44.8897 11.156 39.3524 14.4644 34.3789C18.0242 29.1607 22.5075 24.6838 27.5773 21.0459C33.2356 17.0657 39.6086 14.145 46.4141 12.6445C53.0298 11.1562 59.9498 10.8678 67.0389 12.0545C73.9809 13.3269 80.5106 15.921 86.2243 19.4815C92.1398 23.2197 97.2085 28.0406 101.186 33.6931C101.357 33.987 101.602 34.2381 101.73 34.4586C101.815 34.6056 101.901 34.7525 101.986 34.8995L106.326 32.375C105.513 30.9788 104.628 29.6255 103.711 28.3884C102.666 26.9309 101.591 25.5896 100.399 24.2177C99.2496 22.9192 98.0269 21.6635 96.7306 20.4506C95.4343 19.2377 94.0645 18.0676 92.6639 17.0137C89.7036 14.8019 86.5655 12.7919 83.2613 11.1735C79.9572 9.55505 76.4444 8.25475 72.8392 7.30325L72.374 7.18048L72.4972 6.7154L73.6299 2.90921C69.8348 1.96982 65.9474 1.37922 61.9675 1.13744C57.8713 0.864963 53.7682 1.08825 49.6463 1.61757C45.6407 2.17757 41.6589 3.11708 37.7439 4.50957C34.0494 5.7737 30.3789 7.41733 26.9221 9.42836L28.8457 12.735L29.1022 13.1759L28.6609 13.4326C25.1306 15.4865 21.9611 17.8221 19.0361 20.4089C16.0376 23.0385 13.3999 25.9499 11.0068 29.1124C8.61364 32.275 6.61215 35.6031 4.92874 39.1395Z" fill="#D4AF37"/>
</svg>
