<svg width="101" height="101" viewBox="0 0 101 101" fill="none" xmlns="http://www.w3.org/2000/svg">
<path d="M57.3241 0.523456C71.056 2.46821 82.6544 9.8832 90.317 20.178C91.0199 21.0477 91.6919 22.0336 92.2476 22.9889L89.1158 24.7125L92.6571 31.3072L95.7889 29.5836C99.5967 37.9903 101.155 47.6071 99.6763 57.4174C97.7196 71.1446 90.292 82.7436 79.9863 90.411C79.4407 90.8268 78.8951 91.2426 78.2331 91.6277L76.0718 87.5741C76.5131 87.3174 76.8381 87.03 77.2366 86.6998C86.5553 79.7049 93.3261 69.1764 95.1338 56.7161C97.0577 44.2865 93.7088 32.269 86.6754 22.8866C79.6849 13.5778 69.157 6.81855 56.6925 5.02167C44.2279 3.22479 32.245 6.65535 22.8836 13.5767C13.5649 20.5716 6.7941 31.1001 4.98641 43.5604C3.17873 56.0207 6.60126 67.9954 13.5183 77.347C20.5089 86.6559 31.0367 93.4151 43.5013 95.212C51.8885 96.4304 60.0896 95.2983 67.3691 92.2436L69.5304 96.2971C61.3991 99.749 52.1445 101.101 42.796 99.753C29.0642 97.8083 17.4657 90.3933 9.80313 80.0985C9.01481 79.0818 8.34277 78.0959 7.70155 76.9937L10.9377 75.111L7.76237 69.4836L4.56896 71.4398C0.920204 63.1373 -0.918765 52.7001 0.455849 43.0489C2.41249 29.3217 9.84016 17.7226 20.1458 10.0552C30.4087 2.31437 43.6658 -1.46409 57.3241 0.523456Z" fill="#D4AF37" fill-opacity="0.5"/>
</svg>
