<svg width="55" height="55" viewBox="0 0 55 55" fill="none" xmlns="http://www.w3.org/2000/svg">
<rect width="55" height="55" rx="16.5" fill="url(#paint0_linear_8_8660)"/>
<path d="M23.2378 23.2372C23.2377 22.9953 23.3015 22.7576 23.4227 22.5482C23.5438 22.3388 23.7181 22.1651 23.9279 22.0445C24.1377 21.924 24.3755 21.861 24.6175 21.8618C24.8594 21.8626 25.0968 21.9273 25.3058 22.0492L33.5537 26.8603C33.7619 26.9811 33.9347 27.1544 34.0549 27.3629C34.1751 27.5714 34.2384 27.8078 34.2386 28.0484C34.2389 28.2891 34.1759 28.5256 34.0561 28.7343C33.9362 28.943 33.7637 29.1166 33.5558 29.2377L25.3058 34.0502C25.0968 34.1722 24.8594 34.2368 24.6175 34.2376C24.3755 34.2384 24.1377 34.1754 23.9279 34.0549C23.7181 33.9344 23.5438 33.7607 23.4227 33.5512C23.3015 33.3418 23.2377 33.1042 23.2378 32.8622V23.2372Z" stroke="#0C0C0C" stroke-width="1.375" stroke-linecap="round" stroke-linejoin="round"/>
<defs>
<linearGradient id="paint0_linear_8_8660" x1="0" y1="27.5" x2="55" y2="27.5" gradientUnits="userSpaceOnUse">
<stop stop-color="#D4AF37"/>
<stop offset="1" stop-color="#FFDA63"/>
</linearGradient>
</defs>
</svg>
