<svg width="50" height="50" viewBox="0 0 50 50" fill="none" xmlns="http://www.w3.org/2000/svg">
<path fill-rule="evenodd" clip-rule="evenodd" d="M29.9355 29.2052V27.1809C29.9355 27.0239 29.8731 26.8733 29.7621 26.7623C29.6511 26.6513 29.5006 26.589 29.3436 26.589C29.1866 26.589 29.0361 26.6513 28.9251 26.7623C28.8141 26.8733 28.7517 27.0239 28.7517 27.1809V29.7778C27.5937 30.2466 26.3279 30.5052 25.0016 30.5052C23.6752 30.5052 22.4077 30.2463 21.249 29.7768V27.1809C21.249 27.0239 21.1866 26.8733 21.0756 26.7623C20.9646 26.6513 20.8141 26.589 20.6571 26.589C20.5001 26.589 20.3496 26.6513 20.2386 26.7623C20.1276 26.8733 20.0652 27.0239 20.0652 27.1809V29.2038C19.2363 28.7321 18.4787 28.1448 17.8154 27.4595C17.8056 26.3962 17.8233 25.3216 17.8848 24.2048C17.9755 23.0241 18.2397 22.5804 18.9809 22.1458C19.732 21.7054 21.2259 21.3874 22.2811 21.1019L22.4323 21.0598C22.8413 20.9458 23.2443 21.0316 23.5716 21.302C23.8169 21.5047 24.087 21.6489 24.3675 21.735L23.8034 27.3754L25.0003 29.0886L26.1972 27.3754L25.6331 21.735C25.9137 21.6489 26.1837 21.5047 26.4289 21.302C26.7562 21.0316 27.1592 20.9458 27.5683 21.0598L27.7195 21.1019C28.7747 21.3874 30.2685 21.7054 31.0196 22.1458C31.7609 22.5803 32.025 23.0241 32.1158 24.2048C32.1773 25.3225 32.1949 26.3979 32.1851 27.462C31.5218 28.1469 30.7642 28.7338 29.9354 29.2051L29.9355 29.2052ZM25.0003 20.1135C28.639 19.8775 29.5998 12.659 25.0003 12.659C20.4008 12.659 21.3616 19.8776 25.0003 20.1135ZM21.7124 42.5049C21.7124 43.4045 22.4484 44.1405 23.348 44.1405H26.6525C27.5521 44.1405 28.2881 43.4045 28.2881 42.5049V42.4268H21.7123L21.7124 42.5049ZM19.0498 39.2644C18.9605 39.2644 18.8723 39.2597 18.7853 39.2507V40.1095C18.7853 40.7825 19.3359 41.3331 20.009 41.3331H29.9916C30.6647 41.3331 31.2153 40.7825 31.2153 40.1095V39.2507C31.1275 39.2598 31.0392 39.2644 30.9509 39.2644H19.0498ZM17.6466 34.3464L17.591 34.3837V36.7117C17.591 37.5141 18.2475 38.1705 19.0498 38.1705H30.9508C31.7531 38.1705 32.4096 37.5141 32.4096 36.7117V34.3837L32.3541 34.3464C27.623 36.8376 22.3647 36.8306 17.6466 34.3464H17.6466ZM25.0015 9.40789C30.7603 9.40789 35.4939 13.7953 36.0434 19.4098H39.605C39.0455 11.8329 32.7213 5.85938 25.0015 5.85938C17.2817 5.85938 10.9575 11.8328 10.398 19.4097H13.9596C14.509 13.7952 19.2427 9.40789 25.0015 9.40789ZM42.6823 23.446V20.5035H36.0971C36.0971 26.6314 31.1295 31.5991 25.0016 31.5991C18.8737 31.5991 13.906 26.6314 13.906 20.5035H7.31836V23.446L10.8739 24.1471L12.4354 27.9114L10.4155 30.9234L14.579 35.0867L17.5909 33.067C22.1817 35.7174 27.5256 35.8867 32.4095 33.067L35.4215 35.0867L39.5849 30.9234L37.5651 27.9114L39.1265 24.1471L42.6821 23.446H42.6823Z" fill="url(#paint0_linear_3824_1022)"/>
<defs>
<linearGradient id="paint0_linear_3824_1022" x1="7.31836" y1="25" x2="42.6823" y2="25" gradientUnits="userSpaceOnUse">
<stop stop-color="#D4AF37"/>
<stop offset="1" stop-color="#FFDA63"/>
</linearGradient>
</defs>
</svg>
