<svg width="50" height="50" viewBox="0 0 50 50" fill="none" xmlns="http://www.w3.org/2000/svg">
<path d="M38.4773 7.28115H37.2638V5.86279H38.4773V7.28115ZM42.2578 8.16561H33.4832V9.35654H42.2578V8.16561ZM25.0032 24.0257C22.3766 24.0257 22.0977 26.3427 22.075 27.0529C22.0117 28.9929 23.1727 31.1491 25.0032 31.2945C26.8345 31.1492 27.9946 28.9929 27.9321 27.0529C27.9084 26.3426 27.6297 24.0257 25.0032 24.0257ZM21.8343 30.8464C21.9349 30.8183 22.0372 30.7962 22.1405 30.7804C21.352 29.7376 20.9389 28.3348 20.9811 27.0179C21.0616 24.5359 22.6406 22.9318 25.0032 22.9318C27.3658 22.9318 28.9447 24.5359 29.0249 27.0179C29.0677 28.3348 28.6547 29.7376 27.8661 30.7804C27.968 30.7961 28.0701 30.818 28.1718 30.8464L28.341 30.8936C29.0995 31.105 30.0266 31.3036 30.8783 31.5754V15.7178H19.123V31.5769C19.9761 31.3044 20.9052 31.1054 21.6652 30.8936L21.8345 30.8464H21.8343ZM31.7421 33.1158C30.9012 32.6228 29.2288 32.2669 28.0473 31.9472L27.8781 31.9C27.4202 31.7724 26.969 31.8684 26.6025 32.1712C26.3292 32.3971 26.0284 32.5582 25.7159 32.6547L26.343 38.9265L25.0031 40.8446L23.6631 38.9265L24.2903 32.6546C23.9777 32.5581 23.677 32.397 23.4036 32.1712C23.0371 31.8683 22.5859 31.7723 22.128 31.8999L21.9587 31.9471C20.7773 32.2668 19.1048 32.6227 18.2639 33.1158C17.4341 33.6023 17.1383 34.099 17.0366 35.421C16.908 37.7565 16.9507 39.9272 17.0448 42.1582C17.0916 43.2648 18.0019 44.1375 19.1095 44.1375H19.5711V38.75C19.5711 38.5983 19.6313 38.4529 19.7386 38.3456C19.8458 38.2384 19.9913 38.1781 20.143 38.1781C20.2946 38.1781 20.4401 38.2384 20.5473 38.3456C20.6546 38.4529 20.7148 38.5983 20.7148 38.75V44.1375H29.2914V38.75C29.2914 38.5983 29.3517 38.4529 29.4589 38.3456C29.5662 38.2384 29.7116 38.1781 29.8633 38.1781C30.015 38.1781 30.1604 38.2384 30.2677 38.3456C30.3749 38.4529 30.4352 38.5983 30.4352 38.75V44.1375H30.8966C32.0043 44.1375 32.9146 43.2647 32.9613 42.1582C33.0555 39.9272 33.0981 37.7565 32.9695 35.421C32.8679 34.099 32.5721 33.6023 31.7423 33.1158L31.7421 33.1158ZM43.769 10.4504V35.878H34.0873C34.0796 35.7056 34.071 35.5332 34.0616 35.3609L34.0609 35.349L34.06 35.3372C33.9474 33.8729 33.5913 32.9321 32.2954 32.1722C32.1899 32.1107 32.082 32.0532 31.972 32V10.4504H43.7689H43.769ZM37.2878 27.9998C37.2878 27.928 37.2737 27.8569 37.2462 27.7906C37.2187 27.7242 37.1784 27.664 37.1277 27.6132C37.0769 27.5624 37.0166 27.5221 36.9503 27.4946C36.8839 27.4672 36.8128 27.453 36.741 27.453H34.8277C34.7558 27.453 34.6847 27.4671 34.6183 27.4945C34.552 27.522 34.4917 27.5623 34.4409 27.613C34.3901 27.6638 34.3498 27.7241 34.3224 27.7905C34.2949 27.8569 34.2808 27.928 34.2809 27.9998V29.9124C34.2809 30.2148 34.5252 30.4592 34.8277 30.4592C35.1301 30.4592 35.3745 30.2148 35.3745 29.9124V28.5466H36.741C36.886 28.5465 37.025 28.4888 37.1275 28.3863C37.23 28.2838 37.2877 28.1448 37.2878 27.9998ZM37.2878 23.3733C37.2878 23.2283 37.2302 23.0892 37.1277 22.9866C37.0252 22.884 36.8861 22.8263 36.741 22.8262H34.8277C34.7558 22.8262 34.6847 22.8403 34.6183 22.8678C34.5519 22.8953 34.4916 22.9356 34.4409 22.9864C34.3901 23.0373 34.3498 23.0976 34.3223 23.164C34.2949 23.2304 34.2808 23.3015 34.2809 23.3733V25.2859C34.2809 25.5879 34.5252 25.8327 34.8277 25.8327C35.1301 25.8327 35.3745 25.5879 35.3745 25.2859V23.9201H36.741C37.0427 23.9201 37.2878 23.6747 37.2878 23.3733ZM37.2878 18.7469C37.2878 18.6018 37.2302 18.4627 37.1277 18.3601C37.0252 18.2574 36.8861 18.1998 36.741 18.1997H34.8277C34.7558 18.1996 34.6847 18.2138 34.6183 18.2413C34.5519 18.2688 34.4916 18.3091 34.4408 18.3599C34.39 18.4107 34.3498 18.4711 34.3223 18.5375C34.2949 18.6039 34.2808 18.675 34.2809 18.7469V20.659C34.2809 20.9615 34.5252 21.2062 34.8277 21.2062C35.1301 21.2062 35.3745 20.9615 35.3745 20.659V19.2937H36.741C36.886 19.2935 37.025 19.2359 37.1275 19.1334C37.23 19.0308 37.2877 18.8918 37.2878 18.7469ZM37.2878 14.12C37.2878 14.0482 37.2737 13.9771 37.2462 13.9107C37.2187 13.8444 37.1784 13.7841 37.1277 13.7334C37.0769 13.6826 37.0166 13.6423 36.9503 13.6149C36.8839 13.5874 36.8128 13.5733 36.741 13.5733H34.8277C34.7558 13.5732 34.6847 13.5873 34.6183 13.6147C34.552 13.6422 34.4917 13.6824 34.4409 13.7332C34.3901 13.784 34.3498 13.8443 34.3224 13.9107C34.2949 13.977 34.2808 14.0482 34.2809 14.12V16.0326C34.2809 16.335 34.5252 16.5794 34.8277 16.5794C35.1301 16.5794 35.3745 16.335 35.3745 16.0326V14.6672H36.741C37.0427 14.6672 37.2878 14.4216 37.2878 14.12ZM41.4699 27.9998C41.47 27.9281 41.4559 27.857 41.4285 27.7907C41.4011 27.7244 41.3609 27.6641 41.3102 27.6133C41.2595 27.5626 41.1992 27.5223 41.133 27.4948C41.0667 27.4673 40.9957 27.4531 40.9239 27.453H39.0098C38.938 27.453 38.8668 27.467 38.8004 27.4945C38.7341 27.5219 38.6737 27.5622 38.6229 27.613C38.5721 27.6638 38.5318 27.7241 38.5043 27.7905C38.4768 27.8568 38.4626 27.928 38.4627 27.9998V29.9124C38.4627 30.2148 38.7074 30.4592 39.0098 30.4592C39.3123 30.4592 39.5566 30.2148 39.5566 29.9124V28.5466H40.924C41.2252 28.5466 41.47 28.3015 41.47 27.9998H41.4699ZM41.4699 23.3733C41.4699 23.071 41.2252 22.8262 40.9239 22.8262H39.0098C38.938 22.8262 38.8668 22.8403 38.8004 22.8678C38.734 22.8953 38.6737 22.9356 38.6229 22.9864C38.572 23.0372 38.5317 23.0975 38.5042 23.1639C38.4768 23.2303 38.4626 23.3015 38.4627 23.3733V25.2859C38.4627 25.3578 38.4768 25.4289 38.5043 25.4952C38.5318 25.5616 38.5722 25.6219 38.623 25.6727C38.6738 25.7235 38.7341 25.7637 38.8005 25.7912C38.8669 25.8186 38.938 25.8328 39.0098 25.8327C39.0817 25.8328 39.1528 25.8186 39.2191 25.7912C39.2855 25.7637 39.3458 25.7234 39.3966 25.6727C39.4474 25.6219 39.4876 25.5616 39.5151 25.4952C39.5426 25.4289 39.5567 25.3577 39.5566 25.2859V23.9201H40.924C41.2252 23.9201 41.47 23.6747 41.47 23.3733H41.4699ZM41.4699 18.7469C41.4699 18.4445 41.2252 18.1997 40.9239 18.1997H39.0098C38.938 18.1996 38.8668 18.2138 38.8004 18.2413C38.734 18.2687 38.6737 18.309 38.6229 18.3599C38.572 18.4107 38.5317 18.471 38.5042 18.5374C38.4768 18.6038 38.4626 18.675 38.4627 18.7469V20.659C38.4626 20.7309 38.4767 20.8021 38.5042 20.8685C38.5317 20.9349 38.572 20.9952 38.6228 21.0461C38.6737 21.0969 38.734 21.1372 38.8004 21.1647C38.8668 21.1921 38.938 21.2063 39.0098 21.2062C39.0817 21.2063 39.1528 21.1921 39.2192 21.1646C39.2856 21.1371 39.3459 21.0968 39.3967 21.046C39.4475 20.9952 39.4877 20.9348 39.5152 20.8684C39.5426 20.802 39.5567 20.7309 39.5566 20.659V19.2937H40.924C41.2252 19.2937 41.47 19.0485 41.47 18.7469H41.4699ZM41.4699 14.12C41.47 14.0482 41.4559 13.9772 41.4285 13.9109C41.4011 13.8446 41.3609 13.7843 41.3102 13.7335C41.2595 13.6828 41.1992 13.6425 41.133 13.615C41.0667 13.5875 40.9957 13.5733 40.9239 13.5733H39.0098C38.938 13.5732 38.8669 13.5873 38.8005 13.6147C38.7341 13.6422 38.6737 13.6824 38.6229 13.7332C38.5721 13.784 38.5318 13.8443 38.5043 13.9106C38.4768 13.977 38.4626 14.0481 38.4627 14.12V16.0326C38.4627 16.335 38.7074 16.5794 39.0098 16.5794C39.3123 16.5794 39.5566 16.335 39.5566 16.0326V14.6672H40.924C41.2252 14.6672 41.47 14.4216 41.47 14.12H41.4699ZM17.7109 32.1723C16.4149 32.9321 16.0588 33.8729 15.9462 35.3372L15.9453 35.3491L15.9447 35.361C15.9352 35.5333 15.9266 35.7057 15.919 35.8781H6.23242V10.4504H18.0293V32.0025C17.921 32.055 17.8148 32.1116 17.7109 32.1723ZM11.5436 27.9998C11.5436 27.8548 11.486 27.7157 11.3834 27.6132C11.2809 27.5106 11.1418 27.453 10.9968 27.453H9.08352C8.78117 27.453 8.53672 27.6974 8.53672 27.9998C8.53672 28.3022 8.78109 28.5466 9.08352 28.5466H10.4501V29.9124C10.4501 30.2148 10.6945 30.4592 10.9969 30.4592C11.2993 30.4592 11.5437 30.2148 11.5437 29.9124L11.5436 27.9998ZM11.5436 23.3733C11.5436 23.2283 11.486 23.0892 11.3835 22.9866C11.2809 22.884 11.1419 22.8263 10.9968 22.8262H9.08352C8.78117 22.8262 8.53672 23.071 8.53672 23.3733C8.53672 23.6757 8.78109 23.9201 9.08352 23.9201H10.4501V25.2859C10.4501 25.5879 10.6945 25.8327 10.9969 25.8327C11.2993 25.8327 11.5437 25.5879 11.5437 25.2859L11.5436 23.3733ZM11.5436 18.7469C11.5436 18.6018 11.486 18.4627 11.3835 18.3601C11.281 18.2574 11.1419 18.1998 10.9968 18.1997H9.08352C8.78117 18.1997 8.53672 18.4444 8.53672 18.7469C8.53672 19.0493 8.78109 19.2937 9.08352 19.2937H10.4501V20.659C10.4501 20.9615 10.6945 21.2062 10.9969 21.2062C11.2993 21.2062 11.5437 20.9615 11.5437 20.659L11.5436 18.7469ZM11.5436 14.12C11.5436 14.0482 11.5295 13.9771 11.502 13.9107C11.4745 13.8444 11.4342 13.7841 11.3834 13.7334C11.3327 13.6826 11.2724 13.6423 11.206 13.6149C11.1397 13.5874 11.0686 13.5733 10.9968 13.5733H9.08352C8.78117 13.5733 8.53672 13.8176 8.53672 14.12C8.53672 14.4223 8.78109 14.6672 9.08352 14.6672H10.4501V16.0326C10.4501 16.335 10.6945 16.5794 10.9969 16.5794C11.2993 16.5794 11.5437 16.335 11.5437 16.0326L11.5436 14.12ZM15.725 27.9998C15.7251 27.928 15.711 27.8569 15.6835 27.7905C15.656 27.7241 15.6158 27.6638 15.565 27.613C15.5142 27.5623 15.4539 27.522 15.3875 27.4945C15.3212 27.4671 15.25 27.453 15.1782 27.453H13.2656C12.9632 27.453 12.7188 27.6974 12.7188 27.9998C12.7188 28.3022 12.9632 28.5466 13.2656 28.5466H14.631V29.9124C14.631 30.2148 14.8758 30.4592 15.1782 30.4592C15.4806 30.4592 15.725 30.2148 15.725 29.9124V27.9998ZM15.725 23.3733C15.7251 23.3015 15.711 23.2303 15.6835 23.164C15.6561 23.0976 15.6158 23.0372 15.565 22.9864C15.5142 22.9356 15.4539 22.8953 15.3876 22.8678C15.3212 22.8403 15.25 22.8262 15.1782 22.8262H13.2656C12.9632 22.8262 12.7188 23.071 12.7188 23.3733C12.7188 23.6757 12.9632 23.9201 13.2656 23.9201H14.631V25.2859C14.631 25.3578 14.6452 25.4289 14.6727 25.4952C14.7002 25.5616 14.7405 25.6219 14.7913 25.6727C14.8421 25.7235 14.9025 25.7637 14.9688 25.7912C15.0352 25.8186 15.1064 25.8328 15.1782 25.8327C15.25 25.8328 15.3211 25.8186 15.3875 25.7912C15.4539 25.7637 15.5142 25.7234 15.5649 25.6727C15.6157 25.6219 15.656 25.5616 15.6835 25.4952C15.7109 25.4289 15.725 25.3577 15.725 25.2859V23.3733ZM15.725 18.7469C15.7251 18.675 15.711 18.6039 15.6835 18.5375C15.6561 18.4711 15.6158 18.4107 15.565 18.3599C15.5142 18.3091 15.4539 18.2688 15.3876 18.2413C15.3212 18.2138 15.25 18.1996 15.1782 18.1997H13.2656C12.9632 18.1997 12.7188 18.4444 12.7188 18.7469C12.7188 19.0493 12.9632 19.2937 13.2656 19.2937H14.631V20.659C14.631 20.7309 14.6451 20.8021 14.6726 20.8685C14.7001 20.9349 14.7404 20.9952 14.7912 21.0461C14.842 21.0969 14.9023 21.1372 14.9688 21.1647C15.0352 21.1921 15.1063 21.2063 15.1782 21.2062C15.2501 21.2063 15.3212 21.1921 15.3876 21.1646C15.454 21.1371 15.5143 21.0968 15.5651 21.046C15.6158 20.9952 15.6561 20.9348 15.6836 20.8684C15.711 20.802 15.7251 20.7309 15.725 20.659V18.7469ZM15.725 14.12C15.7251 14.0482 15.711 13.977 15.6835 13.9107C15.656 13.8443 15.6158 13.784 15.565 13.7332C15.5142 13.6824 15.4539 13.6422 15.3875 13.6147C15.3212 13.5873 15.25 13.5732 15.1782 13.5733H13.2656C12.9632 13.5733 12.7188 13.8176 12.7188 14.12C12.7188 14.4223 12.9632 14.6672 13.2656 14.6672H14.631V16.0326C14.631 16.335 14.8758 16.5794 15.1782 16.5794C15.4806 16.5794 15.725 16.335 15.725 16.0326V14.12ZM16.5182 8.16561H7.74352V9.35654H16.5181L16.5182 8.16561ZM12.7376 5.86279H11.5241V7.28115H12.7376V5.86279ZM29.388 13.4331H20.6134V14.624H29.388V13.4331ZM25.6074 11.1303H24.394V12.5486H25.6074V11.1303Z" fill="url(#paint0_linear_3824_155)"/>
<defs>
<linearGradient id="paint0_linear_3824_155" x1="6.23242" y1="25.0001" x2="43.769" y2="25.0001" gradientUnits="userSpaceOnUse">
<stop stop-color="#D4AF37"/>
<stop offset="1" stop-color="#FFDA63"/>
</linearGradient>
</defs>
</svg>
