<svg width="50" height="50" viewBox="0 0 50 50" fill="none" xmlns="http://www.w3.org/2000/svg">
<g clip-path="url(#clip0_3824_73)">
<path d="M43.9834 31.7021C43.96 31.8162 43.8993 31.8894 43.793 31.935L42.6094 32.437C42.5614 32.4576 42.5091 32.4662 42.457 32.4621C42.4049 32.4579 42.3545 32.4412 42.3104 32.4132C42.2662 32.3853 42.2295 32.3471 42.2034 32.3018C42.1773 32.2565 42.1626 32.2055 42.1606 32.1533C42.0089 28.5868 40.5384 25.4682 37.882 23.0818C37.8435 23.0476 37.8138 23.0046 37.7954 22.9564C37.777 22.9083 37.7704 22.8565 37.7762 22.8053C37.782 22.7541 37.7999 22.705 37.8286 22.6622C37.8573 22.6194 37.8958 22.5841 37.9409 22.5593L39.6032 21.6348C39.7243 21.5675 39.8513 21.5771 39.9603 21.6636C42.9917 24.0542 44.6834 28.2767 43.9833 31.7021L43.9834 31.7021ZM25.9801 40.0182C25.4907 39.7355 24.8619 39.9033 24.5793 40.3935L23.3725 42.483C23.0968 42.9718 23.2667 43.5941 23.753 43.875C24.2432 44.1585 24.8716 43.9895 25.1539 43.4993L26.3558 41.4195C26.638 40.9302 26.4679 40.2999 25.9801 40.0182ZM23.0846 38.3467C22.5983 38.0653 21.9673 38.2312 21.6841 38.722L20.065 41.5265C19.7997 42.0114 19.9732 42.6301 20.4526 42.9059C20.9421 43.1893 21.5704 43.0207 21.8531 42.5306L23.4599 39.7475C23.7433 39.2574 23.5747 38.6293 23.0846 38.3467ZM17.2943 35.0034C16.8041 34.72 16.1761 34.8886 15.8934 35.3787L14.6919 37.459C14.4093 37.9492 14.5771 38.5776 15.0672 38.8603C15.5566 39.1437 16.1858 38.9747 16.4685 38.4846L17.67 36.4047C17.9526 35.9146 17.7836 35.2861 17.2943 35.0035V35.0034ZM36.8565 23.9019L35.8909 24.4385C34.1984 25.3799 32.3128 25.5504 30.437 24.9318C28.8197 24.3987 27.119 24.7098 25.2381 25.8821L19.8068 29.269C19.5225 29.4458 19.5097 29.63 19.5054 29.6907C19.4911 29.9088 19.6269 30.1751 19.843 30.3546C21.0075 31.3194 21.9607 30.9285 23.5433 30.156C24.5607 29.6584 25.7147 29.0946 27.0704 29.0864C28.5888 29.0818 29.7386 29.7413 30.8482 30.3833L36.0553 33.3899C36.3162 33.5411 36.6484 33.8736 36.8181 34.1256L40.8715 32.2505C40.7445 28.9081 39.3951 26.1021 36.8566 23.9019H36.8565ZM20.1894 36.6748C19.7007 36.3926 19.0707 36.5627 18.7882 37.0505L16.8407 40.4234C16.5585 40.912 16.7276 41.5423 17.216 41.8246C17.7061 42.1073 18.3346 41.9383 18.6172 41.4489L20.5647 38.076C20.8457 37.5882 20.6779 36.9561 20.1894 36.6748ZM28.4915 41.9896L27.6994 41.5321C27.6471 41.7185 27.5717 41.8976 27.4749 42.0653L26.9154 43.034L27.3191 43.2614C28.0978 43.7103 28.6 43.4759 28.8122 43.108C29.0035 42.7771 28.982 42.2894 28.4915 41.9896V41.9896ZM35.3801 34.4921L30.2015 31.502C29.2032 30.9246 28.259 30.3787 27.1004 30.3787C26.029 30.3787 25.0508 30.8569 24.1102 31.3163C22.5976 32.0553 20.8833 32.8931 19.0195 31.3493C18.4815 30.9043 18.1747 30.2358 18.2167 29.6043C18.2556 29.0211 18.5776 28.5122 19.1226 28.1723L23.2595 25.5929C22.099 25.0542 21.0334 25.1468 19.7511 25.2581C18.034 25.4064 16.0881 25.5754 13.5694 24.1589L13.1312 23.9126C10.5771 26.1316 9.23036 28.9658 9.12497 32.3439L13.2003 34.4446C13.2667 34.4788 13.3265 34.5244 13.3771 34.5793L14.2936 35.5647L14.7741 34.7328C15.413 33.6259 16.8333 33.2455 17.9406 33.884C18.5087 34.2121 18.8853 34.7464 19.0307 35.3385C19.6162 35.1685 20.2673 35.2277 20.8354 35.5558C21.4039 35.8837 21.7807 36.4178 21.9265 37.0097C22.5118 36.84 23.1625 36.8993 23.7306 37.2273C24.2993 37.5553 24.6761 38.0896 24.8218 38.6816C25.4072 38.5118 26.058 38.5709 26.6266 38.8988C27.0548 39.1458 27.3924 39.5238 27.5897 39.9771L30.0641 41.4053C30.5138 41.6646 31.0904 41.5105 31.3505 41.0608C31.4747 40.8451 31.507 40.5917 31.4416 40.3468C31.3782 40.1101 31.2311 39.9125 31.0261 39.7867L28.1582 38.131C28.0123 38.0441 27.9065 37.9032 27.8636 37.7388C27.8208 37.5745 27.8443 37.3999 27.9292 37.2528C28.0141 37.1057 28.1535 36.9979 28.3172 36.9527C28.481 36.9076 28.6559 36.9288 28.8042 37.0116L32.1631 38.9505C32.4029 39.0895 32.6848 39.1257 32.955 39.0529C33.2257 38.9805 33.4511 38.8084 33.59 38.5686C33.7279 38.3288 33.7645 38.0477 33.6917 37.7767C33.6211 37.5146 33.4576 37.2943 33.2303 37.155L30.5341 35.5986C30.3857 35.5129 30.2774 35.3718 30.233 35.2063C30.1886 35.0408 30.2118 34.8644 30.2974 34.716C30.3398 34.6424 30.3962 34.578 30.4635 34.5263C30.5309 34.4746 30.6077 34.4367 30.6897 34.4147C30.7716 34.3927 30.8571 34.3871 30.9413 34.3982C31.0254 34.4093 31.1066 34.4368 31.18 34.4793L34.3653 36.3178C34.6051 36.4571 34.8866 36.4934 35.1572 36.4206C35.4279 36.3478 35.6532 36.1761 35.7918 35.9362C35.9218 35.71 35.9616 35.4328 35.9009 35.1724C35.7969 34.9049 35.7241 34.7449 35.3804 34.4922L35.3801 34.4921ZM12.1182 23.0826C12.1567 23.0484 12.1864 23.0054 12.2049 22.9572C12.2233 22.9091 12.2299 22.8573 12.2242 22.8061C12.2184 22.7549 12.2005 22.7058 12.1718 22.663C12.1432 22.6202 12.1047 22.5848 12.0596 22.56L10.3966 21.6349C10.2755 21.5675 10.1486 21.5772 10.0396 21.6637C7.00895 24.0543 5.31645 28.2768 6.01645 31.7021C6.03973 31.8159 6.10028 31.8893 6.20684 31.935L7.38973 32.4375C7.43776 32.4582 7.49008 32.4668 7.54218 32.4627C7.59428 32.4586 7.6446 32.4418 7.6888 32.4139C7.73299 32.386 7.76974 32.3478 7.79586 32.3025C7.82197 32.2573 7.83668 32.2063 7.83872 32.1541C7.99231 28.5818 9.46387 25.4642 12.1182 23.0826ZM21.6474 23.7139C21.7905 23.7968 21.9606 23.8195 22.1204 23.7769C22.2802 23.7343 22.4165 23.63 22.4994 23.4869L28.4195 13.2331C33.1065 13.3953 35.1498 21.9361 44.0253 15.243C35.3213 15.26 37.4517 9.27277 32.0993 6.84816C32.1594 6.70193 32.1617 6.53834 32.1057 6.39051C32.0497 6.24267 31.9396 6.12161 31.7978 6.05183C31.656 5.98205 31.4929 5.96875 31.3416 6.01463C31.1903 6.0605 31.0621 6.16213 30.9829 6.29894L21.4203 22.8618C21.3374 23.0049 21.3148 23.1751 21.3573 23.3349C21.3999 23.4946 21.5042 23.631 21.6473 23.7139L21.6474 23.7139ZM25.3608 19.7807L27.5005 23.4868C27.584 23.6286 27.7203 23.7316 27.8794 23.7734C28.0386 23.8152 28.2078 23.7923 28.3502 23.7099C28.4926 23.6274 28.5966 23.492 28.6396 23.3331C28.6826 23.1742 28.661 23.0048 28.5796 22.8618L26.0807 18.5336L25.3607 19.7806L25.3608 19.7807ZM21.5804 13.233L23.9192 17.2839L24.6392 16.0368L19.017 6.29894C18.9378 6.16213 18.8096 6.0605 18.6583 6.01463C18.507 5.96875 18.344 5.98205 18.2021 6.05183C18.0603 6.12161 17.9502 6.24267 17.8943 6.39051C17.8383 6.53834 17.8405 6.70193 17.9006 6.84816C12.5482 9.27277 14.6786 15.26 5.97465 15.243C14.8501 21.9361 16.8936 13.3951 21.5804 13.233Z" fill="url(#paint0_linear_3824_73)"/>
</g>
<defs>
<linearGradient id="paint0_linear_3824_73" x1="5.85938" y1="25.0002" x2="44.1405" y2="25.0002" gradientUnits="userSpaceOnUse">
<stop stop-color="#D4AF37"/>
<stop offset="1" stop-color="#FFDA63"/>
</linearGradient>
<clipPath id="clip0_3824_73">
<rect width="40" height="40" fill="white" transform="translate(5 5)"/>
</clipPath>
</defs>
</svg>
