<svg width="140" height="140" viewBox="0 0 140 140" fill="none" xmlns="http://www.w3.org/2000/svg">
<rect width="140" height="140" rx="70" fill="#0C0C0C" fill-opacity="0.7"/>
<rect x="0.5" y="0.5" width="139" height="139" rx="69.5" stroke="#  " stroke-opacity="0.5"/>
<rect x="10.5" y="10.5" width="119" height="119" rx="59.5" stroke="#D4AF37"/>
<path d="M65.832 56.8335H74.1654M74.1654 56.8335V65.1668M74.1654 56.8335L65.832 65.1668" stroke="#D9D9D9" stroke-width="1.25"/>
<path d="M36.1289 86.08C35.5889 86.08 35.0923 85.9933 34.6389 85.82C34.1856 85.64 33.7923 85.39 33.4589 85.07C33.1256 84.7433 32.8656 84.3633 32.6789 83.93C32.4923 83.4967 32.3989 83.02 32.3989 82.5C32.3989 81.98 32.4923 81.5033 32.6789 81.07C32.8656 80.6367 33.1256 80.26 33.4589 79.94C33.7989 79.6133 34.1956 79.3633 34.6489 79.19C35.1023 79.01 35.6023 78.92 36.1489 78.92C36.7023 78.92 37.2089 79.01 37.6689 79.19C38.1289 79.37 38.5189 79.64 38.8389 80L38.2189 80.62C37.9323 80.34 37.6189 80.1367 37.2789 80.01C36.9456 79.8767 36.5823 79.81 36.1889 79.81C35.7889 79.81 35.4156 79.8767 35.0689 80.01C34.7289 80.1433 34.4323 80.33 34.1789 80.57C33.9323 80.81 33.7389 81.0967 33.5989 81.43C33.4656 81.7567 33.3989 82.1133 33.3989 82.5C33.3989 82.88 33.4656 83.2367 33.5989 83.57C33.7389 83.8967 33.9323 84.1833 34.1789 84.43C34.4323 84.67 34.7289 84.8567 35.0689 84.99C35.4089 85.1233 35.7789 85.19 36.1789 85.19C36.5523 85.19 36.9089 85.1333 37.2489 85.02C37.5956 84.9 37.9156 84.7033 38.2089 84.43L38.7789 85.19C38.4323 85.4833 38.0256 85.7067 37.5589 85.86C37.0989 86.0067 36.6223 86.08 36.1289 86.08ZM37.8189 85.06V82.46H38.7789V85.19L37.8189 85.06ZM41.6036 82.02H45.2036V82.87H41.6036V82.02ZM41.6936 85.13H45.7736V86H40.6936V79H45.6336V79.87H41.6936V85.13ZM48.7828 86V79.87H46.3828V79H52.1728V79.87H49.7728V86H48.7828ZM54.8875 86L58.0575 79H59.0475L62.2275 86H61.1775L58.3475 79.56H58.7475L55.9175 86H54.8875ZM56.2375 84.25L56.5075 83.45H60.4475L60.7375 84.25H56.2375ZM63.2717 86V79H64.0917L68.7217 84.75H68.2917V79H69.2917V86H68.4717L63.8417 80.25H64.2717V86H63.2717ZM77.2325 86.08C76.6991 86.08 76.2025 85.99 75.7425 85.81C75.2891 85.63 74.8958 85.38 74.5625 85.06C74.2291 84.7333 73.9691 84.3533 73.7825 83.92C73.5958 83.4867 73.5025 83.0133 73.5025 82.5C73.5025 81.9867 73.5958 81.5133 73.7825 81.08C73.9691 80.6467 74.2291 80.27 74.5625 79.95C74.8958 79.6233 75.2891 79.37 75.7425 79.19C76.1958 79.01 76.6925 78.92 77.2325 78.92C77.7658 78.92 78.2558 79.01 78.7025 79.19C79.1558 79.3633 79.5491 79.6133 79.8825 79.94C80.2225 80.26 80.4825 80.6367 80.6625 81.07C80.8491 81.5033 80.9425 81.98 80.9425 82.5C80.9425 83.02 80.8491 83.4967 80.6625 83.93C80.4825 84.3633 80.2225 84.7433 79.8825 85.07C79.5491 85.39 79.1558 85.64 78.7025 85.82C78.2558 85.9933 77.7658 86.08 77.2325 86.08ZM77.2325 85.19C77.6191 85.19 77.9758 85.1233 78.3025 84.99C78.6358 84.8567 78.9225 84.67 79.1625 84.43C79.4091 84.1833 79.5991 83.8967 79.7325 83.57C79.8725 83.2433 79.9425 82.8867 79.9425 82.5C79.9425 82.1133 79.8725 81.7567 79.7325 81.43C79.5991 81.1033 79.4091 80.82 79.1625 80.58C78.9225 80.3333 78.6358 80.1433 78.3025 80.01C77.9758 79.8767 77.6191 79.81 77.2325 79.81C76.8391 79.81 76.4758 79.8767 76.1425 80.01C75.8158 80.1433 75.5291 80.3333 75.2825 80.58C75.0358 80.82 74.8425 81.1033 74.7025 81.43C74.5691 81.7567 74.5025 82.1133 74.5025 82.5C74.5025 82.8867 74.5691 83.2433 74.7025 83.57C74.8425 83.8967 75.0358 84.1833 75.2825 84.43C75.5291 84.67 75.8158 84.8567 76.1425 84.99C76.4758 85.1233 76.8391 85.19 77.2325 85.19ZM83.3709 82.31H86.9809V83.17H83.3709V82.31ZM83.4709 86H82.4709V79H87.4109V79.87H83.4709V86ZM89.7186 82.31H93.3286V83.17H89.7186V82.31ZM89.8186 86H88.8186V79H93.7586V79.87H89.8186V86ZM96.0762 82.02H99.6762V82.87H96.0762V82.02ZM96.1662 85.13H100.246V86H95.1662V79H100.106V79.87H96.1662V85.13ZM101.865 86V79H104.595C105.209 79 105.732 79.0967 106.165 79.29C106.599 79.4833 106.932 79.7633 107.165 80.13C107.399 80.4967 107.515 80.9333 107.515 81.44C107.515 81.9467 107.399 82.3833 107.165 82.75C106.932 83.11 106.599 83.3867 106.165 83.58C105.732 83.7733 105.209 83.87 104.595 83.87H102.415L102.865 83.41V86H101.865ZM106.545 86L104.765 83.46H105.835L107.635 86H106.545ZM102.865 83.51L102.415 83.02H104.565C105.205 83.02 105.689 82.8833 106.015 82.61C106.349 82.33 106.515 81.94 106.515 81.44C106.515 80.94 106.349 80.5533 106.015 80.28C105.689 80.0067 105.205 79.87 104.565 79.87H102.415L102.865 79.37V83.51Z" fill="#D9D9D9"/>
</svg>
