<svg width="50" height="50" viewBox="0 0 50 50" fill="none" xmlns="http://www.w3.org/2000/svg">
<path fill-rule="evenodd" clip-rule="evenodd" d="M42.872 40.6504L37.2144 42.1663V21.1257C37.2144 20.5779 37.0095 20.0834 36.622 19.6959L30.5303 13.6045L37.8353 17.822C38.1872 18.0252 38.4177 18.3254 38.5228 18.718L43.9153 38.8432C44.1256 39.6282 43.657 40.44 42.872 40.6504V40.6504ZM29.7336 36.0373C29.3155 35.7918 28.8984 35.6924 28.4736 35.5913C28.3197 35.5547 28.1648 35.5178 28.0688 35.491C27.8967 35.4429 27.7356 35.3874 27.6048 35.3132C27.4475 35.2242 27.2837 35.068 27.3081 34.8705C27.3285 34.7057 27.4614 34.5837 27.6004 34.5088C27.85 34.3743 28.1987 34.3222 28.5433 34.352C28.8723 34.3804 29.1766 34.4809 29.3552 34.6524C29.392 34.687 29.4232 34.727 29.4476 34.7712C29.5169 34.8972 29.6332 34.9907 29.7712 35.0314C29.9091 35.0722 30.0575 35.0568 30.1842 34.9887C30.3108 34.9206 30.4055 34.8052 30.4476 34.6677C30.4897 34.5302 30.4758 34.3816 30.4089 34.2543C30.3307 34.1102 30.2303 33.9793 30.1115 33.8663C29.8055 33.5725 29.3777 33.3844 28.9233 33.301V32.8224C28.9233 32.6773 28.8657 32.5382 28.7631 32.4357C28.6605 32.3331 28.5214 32.2755 28.3764 32.2755C28.2314 32.2755 28.0923 32.3331 27.9897 32.4357C27.8871 32.5382 27.8295 32.6773 27.8295 32.8224V33.2975C27.5609 33.3448 27.3052 33.4282 27.0835 33.5476C26.9189 33.6363 26.7704 33.7457 26.6452 33.8762C26.4045 34.1268 26.2616 34.4266 26.223 34.7382C26.1838 35.0551 26.2521 35.3786 26.4348 35.6707C26.5977 35.9316 26.8155 36.1195 27.0666 36.2617C27.2881 36.3872 27.5298 36.4725 27.7785 36.5419C27.9651 36.5939 28.094 36.6247 28.2217 36.655C28.5718 36.7384 28.9155 36.8203 29.1827 36.9772C29.3441 37.072 29.4934 37.238 29.487 37.4361C29.4811 37.6222 29.3477 37.755 29.189 37.834C28.871 37.9922 28.4035 38.024 27.9752 37.9341C27.6234 37.8603 27.3205 37.7111 27.2016 37.4939C27.1315 37.3687 27.015 37.2761 26.8771 37.2363C26.7393 37.1965 26.5913 37.2127 26.4653 37.2813C26.3393 37.3499 26.2455 37.4655 26.2042 37.6028C26.1628 37.7402 26.1773 37.8884 26.2445 38.0151C26.5315 38.5393 27.1136 38.868 27.753 39.0022C27.7784 39.0075 27.8039 39.0125 27.8295 39.0173V39.5032C27.8295 39.6483 27.8871 39.7874 27.9897 39.8899C28.0923 39.9925 28.2314 40.0501 28.3764 40.0501C28.5214 40.0501 28.6605 39.9925 28.7631 39.8899C28.8657 39.7874 28.9233 39.6483 28.9233 39.5032V39.0382C29.196 38.998 29.4541 38.9229 29.676 38.8125C29.9861 38.6582 30.2193 38.4339 30.372 38.174C30.4981 37.9603 30.5684 37.7184 30.5765 37.4704C30.5845 37.2216 30.5305 36.9747 30.4193 36.752C30.282 36.4759 30.054 36.2254 29.7338 36.0373H29.7336ZM35.8486 20.4689C36.0346 20.6546 36.1205 20.8632 36.1205 21.1257V43.2121C36.1205 43.7242 35.704 44.1407 35.1915 44.1407H21.5632C21.0511 44.1407 20.6346 43.7242 20.6346 43.2121V34.1697H21.0224C22.0128 34.1697 22.8148 33.365 22.8148 32.376C22.8153 32.0451 22.7238 31.7206 22.5505 31.4386C23.1455 31.1112 23.5491 30.4785 23.5491 29.7532C23.5496 29.3226 23.4047 28.9043 23.1379 28.5662C23.626 28.2172 23.9445 27.646 23.9445 27.0017C23.9445 26.3632 23.6313 25.7964 23.1499 25.4468C23.421 25.1072 23.5684 24.6855 23.568 24.251C23.568 23.1909 22.7056 22.3283 21.6475 22.3283H20.6346V21.1258C20.6346 20.8634 20.7213 20.6547 20.9065 20.4691L24.3999 16.9656C23.4396 15.7925 22.8634 14.2936 22.8634 12.6607C22.8634 10.7826 23.6247 9.08239 24.8555 7.85161C26.0863 6.62083 27.7866 5.8595 29.6646 5.8595C31.5427 5.8595 33.2429 6.62083 34.4737 7.85161C35.7045 9.08239 36.4658 10.7827 36.4658 12.6607C36.4658 12.8057 36.4082 12.9448 36.3056 13.0474C36.203 13.1499 36.0639 13.2075 35.9189 13.2075C35.7739 13.2075 35.6348 13.1499 35.5322 13.0474C35.4297 12.9448 35.372 12.8057 35.372 12.6607C35.372 11.0846 34.7332 9.65762 33.7004 8.62489C32.6676 7.59215 31.2407 6.95325 29.6646 6.95325C28.0885 6.95325 26.6616 7.59208 25.6288 8.62489C24.5959 9.6577 23.9571 11.0846 23.9571 12.6607C23.9571 14.0432 24.448 15.3105 25.2648 16.2975C26.0968 17.3028 27.2653 18.0182 28.5965 18.2698C28.737 18.2982 28.8606 18.3808 28.9407 18.4996C29.0208 18.6185 29.0509 18.7641 29.0245 18.9049C28.9982 19.0458 28.9174 19.1706 28.7997 19.2524C28.6821 19.3343 28.5369 19.3665 28.3957 19.3422C27.6767 19.2063 26.9846 18.9547 26.3462 18.5972C26.3393 18.6651 26.3359 18.7341 26.3359 18.8039C26.3359 19.9314 27.25 20.8455 28.3776 20.8455C29.5052 20.8455 30.4192 19.9314 30.4192 18.8039C30.4192 17.6763 29.5052 16.7622 28.3776 16.7622C28.1223 16.7622 27.8781 16.8093 27.6529 16.8947C26.984 16.5417 26.3915 16.0599 25.9094 15.4772L25.898 15.4632L27.6344 13.7218C27.8256 13.5309 28.1049 13.4205 28.3776 13.4205C28.6502 13.4205 28.9048 13.526 29.0961 13.7172L35.8487 20.469L35.8486 20.4689ZM24.2916 25.0452C24.2916 25.1902 24.3493 25.3293 24.4518 25.4319C24.5544 25.5345 24.6935 25.5921 24.8385 25.5921H31.9166C32.0617 25.5921 32.2008 25.5345 32.3033 25.4319C32.4059 25.3293 32.4635 25.1902 32.4635 25.0452C32.4635 24.9002 32.4059 24.7611 32.3033 24.6585C32.2008 24.5559 32.0617 24.4983 31.9166 24.4983H24.8385C24.6935 24.4983 24.5544 24.5559 24.4518 24.6585C24.3493 24.7611 24.2916 24.9002 24.2916 25.0452ZM24.2916 27.8811C24.2916 28.0261 24.3493 28.1652 24.4518 28.2678C24.5544 28.3703 24.6935 28.4279 24.8385 28.4279H31.9166C32.0617 28.4279 32.2008 28.3703 32.3033 28.2678C32.4059 28.1652 32.4635 28.0261 32.4635 27.8811C32.4635 27.736 32.4059 27.5969 32.3033 27.4944C32.2008 27.3918 32.0617 27.3342 31.9166 27.3342H24.8385C24.6935 27.3342 24.5544 27.3918 24.4518 27.4944C24.3493 27.5969 24.2916 27.736 24.2916 27.8811ZM33.6252 36.1628C33.6252 33.2725 31.2678 30.9152 28.3776 30.9152C25.4873 30.9152 23.1299 33.2725 23.1299 36.1628C23.1299 39.053 25.4873 41.4104 28.3776 41.4104C31.2679 41.4104 33.6252 39.053 33.6252 36.1628ZM18.9173 25.0797H21.6474C22.103 25.0797 22.4759 24.7079 22.4759 24.2508C22.4759 23.7938 22.103 23.4219 21.6474 23.4219H18.9173C18.4617 23.4219 18.0889 23.7938 18.0889 24.2508C18.0889 24.7079 18.4617 25.0797 18.9173 25.0797ZM18.3827 27.8304H22.0203C22.4759 27.8304 22.8488 27.4594 22.8488 27.0015C22.8488 26.5436 22.4759 26.1734 22.0203 26.1734H18.3827C17.927 26.1734 17.5542 26.5445 17.5542 27.0015C17.5542 27.4586 17.927 27.8304 18.3827 27.8304ZM21.6248 30.582C22.0843 30.582 22.4533 30.2101 22.4533 29.7531C22.4533 29.2961 22.0842 28.9243 21.6248 28.9243H18.4918C18.0362 28.9243 17.6634 29.2961 17.6634 29.7531C17.6634 30.21 18.0362 30.582 18.4918 30.582H21.6248ZM21.7227 32.3758C21.7227 31.9898 21.4102 31.6757 21.0223 31.6757H19.0868C18.6989 31.6757 18.3864 31.9898 18.3864 32.3758C18.3864 32.7618 18.6989 33.0758 19.0868 33.0758H21.0223C21.1143 33.0759 21.2054 33.0578 21.2903 33.0227C21.3753 32.9875 21.4525 32.9359 21.5176 32.8709C21.5826 32.8059 21.6342 32.7287 21.6694 32.6438C21.7046 32.5588 21.7227 32.4678 21.7227 32.3758ZM16.5713 29.7531C16.5713 29.2412 16.7724 28.7754 17.0995 28.4305C16.8159 28.1756 16.6145 27.8423 16.5205 27.4728C16.0902 27.833 15.5602 28.1175 14.9332 28.3234C14.6495 28.4175 14.3378 28.2618 14.2441 27.975C14.1499 27.6882 14.3043 27.3789 14.5905 27.2843C16.4055 26.6874 17.0345 25.4272 16.7595 22.9343C16.7539 22.8776 16.7569 22.8204 16.7684 22.7646C16.9314 21.4991 17.386 17.8305 16.108 16.5304C15.7541 16.1711 15.2796 16.0312 14.662 16.1007C14.6569 16.1011 14.6521 16.1034 14.6486 16.1072C14.6451 16.1109 14.6432 16.1159 14.6432 16.1211C14.8579 18.678 14.6357 20.3687 13.9202 21.6047C13.1541 22.9221 11.8416 23.7254 9.80813 24.111V32.6158C10.5685 32.6888 11.0674 32.8376 11.5516 32.9827C11.8943 33.0843 12.2483 33.1898 12.7152 33.275C14.1188 33.5302 15.9005 33.3747 17.5019 33.2192C17.3628 32.9598 17.2902 32.67 17.2905 32.3757C17.2905 32.0302 17.3889 31.7072 17.5591 31.4331C16.9705 31.1042 16.5712 30.4744 16.5712 29.753L16.5713 29.7531ZM8.49781 23.5884H6.24969C6.13297 23.5884 6.03125 23.6875 6.03125 23.8055V33.1C6.03125 33.2173 6.13297 33.3173 6.24969 33.3173H8.49781C8.61453 33.3173 8.71617 33.2172 8.71617 33.1V23.8055C8.71617 23.6875 8.61453 23.5884 8.49781 23.5884Z" fill="url(#paint0_linear_63_132)"/>
<defs>
<linearGradient id="paint0_linear_63_132" x1="6.03125" y1="25.0001" x2="43.9656" y2="25.0001" gradientUnits="userSpaceOnUse">
<stop stop-color="#D4AF37"/>
<stop offset="1" stop-color="#FFDA63"/>
</linearGradient>
</defs>
</svg>
