<svg width="50" height="50" viewBox="0 0 50 50" fill="none" xmlns="http://www.w3.org/2000/svg">
<path d="M21.241 26.0326H23.7573V28.5489H21.241V26.0326ZM33.768 33.5542V31.0379H31.2517V32.3455C31.5257 32.7258 31.7644 33.1304 31.9648 33.5542H33.7681H33.768ZM31.9181 36.8337C31.9181 40.6473 28.8155 43.75 25.0018 43.75C21.1881 43.75 18.0855 40.6473 18.0855 36.8337C18.0855 33.0202 21.1881 29.9174 25.0018 29.9174C28.8155 29.9174 31.9181 33.0201 31.9181 36.8337ZM31.2223 36.8337C31.2223 33.4038 28.4318 30.6133 25.0018 30.6133C21.5718 30.6133 18.7813 33.4038 18.7813 36.8337C18.7813 40.2637 21.5718 43.0542 25.0018 43.0542C28.4318 43.0542 31.2223 40.2637 31.2223 36.8337ZM16.2356 31.038V33.5543H18.0389C18.2394 33.1305 18.4781 32.7259 18.752 32.3455V31.038H16.2356ZM38.7734 26.0327H36.257V28.549H38.7734V26.0327ZM38.7734 21.0273H36.257V23.5437H38.7734V21.0273ZM38.7734 16.022H36.257V18.5384H38.7734V16.022ZM30.441 36.8338C30.441 39.833 28.001 42.273 25.0018 42.273C22.0026 42.273 19.5626 39.833 19.5626 36.8338C19.5626 33.8346 22.0026 31.3946 25.0018 31.3946C28.001 31.3946 30.441 33.8346 30.441 36.8338ZM25.5613 36.6321C25.5053 36.6129 25.449 36.5947 25.3924 36.5774V34.3713C25.4058 34.3742 25.4192 34.3765 25.4325 34.3797C25.6635 34.4363 26.2122 34.6298 26.3186 35.2049C26.3578 35.417 26.5617 35.5577 26.7737 35.5179C26.8756 35.499 26.9658 35.4405 27.0245 35.3551C27.0832 35.2698 27.1056 35.1646 27.0868 35.0627C26.9554 34.3529 26.4065 33.8138 25.6183 33.6209C25.5437 33.6031 25.4683 33.5887 25.3924 33.5777V32.8466C25.3924 32.743 25.3513 32.6437 25.278 32.5704C25.2048 32.4972 25.1054 32.456 25.0018 32.456C24.8982 32.456 24.7988 32.4972 24.7256 32.5704C24.6523 32.6437 24.6112 32.743 24.6112 32.8466V33.5811C24.0944 33.6644 23.6309 33.9063 23.3444 34.2732C22.7952 34.9761 22.8721 35.9741 23.523 36.595C23.825 36.8829 24.2244 37.0387 24.6112 37.1591V39.2741C24.1818 39.1587 23.7747 38.8783 23.6755 38.3555C23.6664 38.3046 23.6474 38.256 23.6195 38.2125C23.5915 38.169 23.5552 38.1315 23.5127 38.1021C23.4701 38.0728 23.4222 38.0522 23.3716 38.0415C23.321 38.0308 23.2688 38.0302 23.218 38.0399C23.1672 38.0495 23.1189 38.0691 23.0757 38.0976C23.0326 38.1261 22.9955 38.1628 22.9667 38.2057C22.9378 38.2486 22.9178 38.2968 22.9077 38.3475C22.8976 38.3982 22.8977 38.4504 22.908 38.5011C23.0825 39.4214 23.8327 39.927 24.6112 40.074V40.8212C24.6112 40.8725 24.6213 40.9233 24.6409 40.9707C24.6605 41.0181 24.6893 41.0611 24.7256 41.0974C24.7619 41.1337 24.8049 41.1624 24.8523 41.1821C24.8997 41.2017 24.9505 41.2118 25.0018 41.2118C25.0531 41.2118 25.1039 41.2017 25.1513 41.1821C25.1987 41.1624 25.2417 41.1337 25.278 41.0974C25.3143 41.0611 25.3431 41.0181 25.3627 40.9707C25.3823 40.9233 25.3924 40.8725 25.3924 40.8212V40.1036C26.2369 40.0146 26.8827 39.537 27.047 38.8463C27.1859 38.262 27.1777 37.1971 25.5612 36.6322L25.5613 36.6321ZM20.7677 10.0104H21.9337C22.038 10.0104 22.126 9.92234 22.126 9.81813V6.44227C22.126 6.33805 22.038 6.25 21.9337 6.25H20.7677C20.6635 6.25 20.5755 6.33805 20.5755 6.44227V9.81813C20.5755 9.92234 20.6635 10.0104 20.7677 10.0104ZM13.4655 10.0104H14.6315C14.7357 10.0104 14.8237 9.92234 14.8237 9.81813V6.44227C14.8237 6.33805 14.7357 6.25 14.6315 6.25H13.4655C13.3613 6.25 13.2733 6.33805 13.2733 6.44227V9.81813C13.2733 9.92234 13.3613 10.0104 13.4655 10.0104ZM23.96 34.754C23.698 35.0895 23.6489 35.6352 24.0622 36.0294C24.1995 36.1602 24.3948 36.2549 24.6112 36.3343V34.3745C24.3391 34.439 24.1041 34.5695 23.96 34.754ZM25.3924 37.4021V39.3141C25.8059 39.248 26.1974 39.0417 26.287 38.6654C26.3427 38.4311 26.4877 37.8188 25.3924 37.4021ZM12.5861 38.0322C12.5861 37.2551 11.9538 36.6228 11.1767 36.6228H9.8157C9.04781 36.6228 8.35102 36.3135 7.84258 35.8133C7.99445 36.7735 8.4325 37.6219 9.15266 38.342L10.867 40.0563C11.5871 40.7765 12.4355 41.2145 13.3957 41.3663C12.8955 40.8578 12.5862 40.1611 12.5862 39.3932V38.0321L12.5861 38.0322ZM18.752 21.0272H16.2356V23.5435H18.752V21.0272ZM18.752 26.0325H16.2356V28.5488H18.752V26.0325ZM28.7627 21.0272H26.2463V23.5435H28.7627V21.0272ZM28.7627 16.0218H26.2463V18.5382H28.7627V16.0218ZM23.7573 16.0218H21.241V18.5382H23.7573V16.0218ZM38.7734 31.0379H36.257V33.5542H38.7734V31.0379ZM18.752 16.0218H16.2357V18.5382H18.752V16.0218ZM23.7573 21.0272H21.241V23.5435H23.7573V21.0272ZM28.07 10.0103H29.2359C29.3402 10.0103 29.4282 9.92227 29.4282 9.81805V6.44227C29.4282 6.33805 29.3402 6.25 29.2359 6.25H28.07C27.9658 6.25 27.8777 6.33805 27.8777 6.44227V9.81813C27.8777 9.92234 27.9658 10.0103 28.07 10.0103ZM13.7467 16.0218H11.2304V18.5382H13.7467V16.0218ZM13.7467 26.0326H11.2304V28.5489H13.7467V26.0326ZM33.768 26.0326H31.2517V28.5489H33.768V26.0326ZM16.2356 36.0433V38.5596H17.4995C17.3694 37.9935 17.304 37.4146 17.3043 36.8337C17.3043 36.5669 17.318 36.3032 17.3446 36.0433H16.2356ZM38.9935 8.27531H37.5118V9.81813C37.5118 10.3549 37.0751 10.7916 36.5383 10.7916H35.3723C34.8355 10.7916 34.3987 10.3549 34.3987 9.81813V8.27531H30.2095V9.81813C30.2095 10.3549 29.7728 10.7916 29.236 10.7916H28.0701C27.5333 10.7916 27.0966 10.3549 27.0966 9.81813V8.27531H22.9073V9.81813C22.9073 10.3549 22.4706 10.7916 21.9338 10.7916H20.7678C20.231 10.7916 19.7943 10.3549 19.7943 9.81813V8.27531H15.6051V9.81813C15.6051 10.3549 15.1684 10.7916 14.6316 10.7916H13.4656C12.9288 10.7916 12.4921 10.3549 12.4921 9.81813V8.27531H11.0104C9.22992 8.27531 7.78141 9.72383 7.78141 11.5043V12.3724H42.2225V11.5043C42.2225 9.72383 40.774 8.27531 38.9935 8.27531ZM33.7681 21.0273H31.2518V23.5436H33.7681V21.0273ZM38.7734 36.0433H36.2571V38.5596H38.7734V36.0433ZM28.7627 26.0326H26.2464V28.5489H28.7627V26.0326ZM33.768 16.0218H31.2517V18.5382H33.768V16.0218ZM33.768 38.5595V36.0432H32.6591C32.6859 36.3058 32.6994 36.5697 32.6994 36.8337C32.6997 37.4145 32.6342 37.9935 32.5042 38.5595H33.768ZM13.7467 31.0379H11.2304V33.5542H13.7467V31.0379ZM7.78125 13.1537H42.2225V38.1987C42.2225 39.9792 40.774 41.4277 38.9935 41.4277H31.1745C31.6483 40.7932 32.0212 40.0892 32.2799 39.3408H34.1587C34.2624 39.3408 34.3617 39.2996 34.435 39.2264C34.5082 39.1531 34.5494 39.0538 34.5494 38.9502V35.6526C34.5494 35.549 34.5082 35.4496 34.435 35.3764C34.3617 35.3031 34.2624 35.262 34.1587 35.262H32.538C32.4726 34.9481 32.3874 34.6386 32.283 34.3355H34.1587C34.2624 34.3355 34.3617 34.2943 34.435 34.2211C34.5082 34.1478 34.5494 34.0484 34.5494 33.9448V30.6473C34.5494 30.5437 34.5082 30.4443 34.435 30.3711C34.3617 30.2978 34.2624 30.2566 34.1587 30.2566H30.8612C30.7576 30.2566 30.6582 30.2978 30.585 30.3711C30.5117 30.4443 30.4705 30.5437 30.4705 30.6473V31.422C29.4609 30.4018 28.1687 29.6616 26.7224 29.3301H29.1534C29.257 29.3301 29.3564 29.2889 29.4296 29.2157C29.5029 29.1424 29.5441 29.0431 29.5441 28.9395V25.6419C29.5441 25.5383 29.5029 25.4389 29.4296 25.3657C29.3564 25.2924 29.257 25.2513 29.1534 25.2513H25.8559C25.7523 25.2513 25.6529 25.2924 25.5796 25.3657C25.5064 25.4389 25.4652 25.5383 25.4652 25.6419V28.9395C25.4652 29.016 25.4878 29.0908 25.5302 29.1545C25.3555 29.1427 25.1795 29.1361 25.002 29.1361C24.8245 29.1361 24.6485 29.1427 24.4739 29.1545C24.5163 29.0908 24.5389 29.016 24.5388 28.9395V25.6419C24.5388 25.5383 24.4977 25.4389 24.4244 25.3657C24.3512 25.2924 24.2518 25.2513 24.1482 25.2513H20.8506C20.747 25.2513 20.6477 25.2924 20.5744 25.3657C20.5012 25.4389 20.46 25.5383 20.46 25.6419V28.9395C20.46 29.0431 20.5012 29.1424 20.5744 29.2157C20.6477 29.2889 20.747 29.3301 20.8506 29.3301H23.2816C21.8352 29.6616 20.5432 30.4018 19.5335 31.422V30.6473C19.5335 30.5437 19.4924 30.4443 19.4191 30.3711C19.3458 30.2978 19.2465 30.2566 19.1429 30.2566H15.8453C15.7417 30.2566 15.6424 30.2978 15.5691 30.3711C15.4958 30.4443 15.4547 30.5437 15.4547 30.6473V33.9448C15.4547 34.0484 15.4958 34.1478 15.5691 34.2211C15.6424 34.2943 15.7417 34.3355 15.8453 34.3355H17.721C17.6167 34.6386 17.5315 34.9481 17.4661 35.262H15.8453C15.7417 35.262 15.6424 35.3031 15.5691 35.3764C15.4958 35.4496 15.4547 35.549 15.4547 35.6526V38.9502C15.4547 39.0538 15.4958 39.1531 15.5691 39.2264C15.6424 39.2996 15.7417 39.3408 15.8453 39.3408H17.7241C17.9829 40.0892 18.3557 40.7932 18.8295 41.4277H15.4021C14.2803 41.4277 13.3677 40.5151 13.3677 39.3933V38.0322C13.3677 36.8243 12.3849 35.8416 11.177 35.8416H9.81602C8.69422 35.8416 7.78156 34.9289 7.78156 33.8071V13.1537H7.78125ZM35.4758 18.9288C35.4758 19.0324 35.5169 19.1318 35.5902 19.205C35.6634 19.2783 35.7628 19.3195 35.8664 19.3195H39.164C39.2676 19.3195 39.3669 19.2783 39.4402 19.205C39.5135 19.1318 39.5546 19.0324 39.5546 18.9288V15.6312C39.5546 15.5276 39.5135 15.4282 39.4402 15.355C39.3669 15.2817 39.2676 15.2405 39.164 15.2405H35.8664C35.7628 15.2405 35.6634 15.2817 35.5902 15.355C35.5169 15.4282 35.4758 15.5276 35.4758 15.6312V18.9288ZM35.4758 23.9341C35.4758 24.0377 35.5169 24.1371 35.5902 24.2104C35.6634 24.2836 35.7628 24.3248 35.8664 24.3248H39.164C39.2676 24.3248 39.3669 24.2836 39.4402 24.2104C39.5135 24.1371 39.5546 24.0377 39.5546 23.9341V20.6366C39.5546 20.533 39.5135 20.4336 39.4402 20.3603C39.3669 20.2871 39.2676 20.2459 39.164 20.2459H35.8664C35.7628 20.2459 35.6634 20.2871 35.5902 20.3603C35.5169 20.4336 35.4758 20.533 35.4758 20.6366V23.9341ZM35.4758 28.9395C35.4758 29.0431 35.5169 29.1424 35.5902 29.2157C35.6634 29.2889 35.7628 29.3301 35.8664 29.3301H39.164C39.2676 29.3301 39.3669 29.2889 39.4402 29.2157C39.5135 29.1424 39.5546 29.0431 39.5546 28.9395V25.6419C39.5546 25.5383 39.5135 25.4389 39.4402 25.3657C39.3669 25.2924 39.2676 25.2513 39.164 25.2513H35.8664C35.7628 25.2513 35.6634 25.2924 35.5902 25.3657C35.5169 25.4389 35.4758 25.5383 35.4758 25.6419V28.9395ZM35.4758 33.9448C35.4758 34.0484 35.5169 34.1477 35.5902 34.221C35.6634 34.2942 35.7628 34.3354 35.8664 34.3354H39.164C39.2676 34.3354 39.3669 34.2942 39.4402 34.221C39.5135 34.1477 39.5546 34.0484 39.5546 33.9448V30.6472C39.5546 30.5436 39.5135 30.4442 39.4402 30.371C39.3669 30.2977 39.2676 30.2566 39.164 30.2566H35.8664C35.7628 30.2566 35.6634 30.2977 35.5902 30.371C35.5169 30.4442 35.4758 30.5436 35.4758 30.6472V33.9448ZM35.4758 38.9501C35.4758 39.0537 35.5169 39.153 35.5902 39.2263C35.6634 39.2995 35.7628 39.3407 35.8664 39.3407H39.164C39.2676 39.3407 39.3669 39.2995 39.4402 39.2263C39.5135 39.153 39.5546 39.0537 39.5546 38.9501V35.6525C39.5546 35.5489 39.5135 35.4495 39.4402 35.3763C39.3669 35.303 39.2676 35.2619 39.164 35.2619H35.8664C35.7628 35.2619 35.6634 35.303 35.5902 35.3763C35.5169 35.4495 35.4758 35.5489 35.4758 35.6525V38.9501ZM30.4705 18.9287C30.4705 19.0323 30.5116 19.1317 30.5849 19.205C30.6581 19.2782 30.7575 19.3194 30.8611 19.3194H34.1587C34.2623 19.3194 34.3616 19.2782 34.4349 19.205C34.5081 19.1317 34.5493 19.0323 34.5493 18.9287V15.6311C34.5493 15.5275 34.5081 15.4281 34.4349 15.3549C34.3616 15.2816 34.2623 15.2405 34.1587 15.2405H30.8611C30.7575 15.2405 30.6581 15.2816 30.5849 15.3549C30.5116 15.4281 30.4705 15.5275 30.4705 15.6311V18.9287ZM30.4705 23.9341C30.4705 24.0377 30.5116 24.137 30.5849 24.2103C30.6581 24.2835 30.7575 24.3247 30.8611 24.3247H34.1587C34.2623 24.3247 34.3616 24.2835 34.4349 24.2103C34.5081 24.137 34.5493 24.0377 34.5493 23.9341V20.6365C34.5493 20.5329 34.5081 20.4335 34.4349 20.3603C34.3616 20.287 34.2623 20.2459 34.1587 20.2459H30.8611C30.7575 20.2459 30.6581 20.287 30.5849 20.3603C30.5116 20.4335 30.4705 20.5329 30.4705 20.6365V23.9341ZM30.4705 28.9394C30.4705 29.043 30.5116 29.1423 30.5849 29.2156C30.6581 29.2888 30.7575 29.33 30.8611 29.33H34.1587C34.2623 29.33 34.3616 29.2888 34.4349 29.2156C34.5081 29.1423 34.5493 29.043 34.5493 28.9394V25.6418C34.5493 25.5382 34.5081 25.4388 34.4349 25.3656C34.3616 25.2923 34.2623 25.2512 34.1587 25.2512H30.8611C30.7575 25.2512 30.6581 25.2923 30.5849 25.3656C30.5116 25.4388 30.4705 25.5382 30.4705 25.6418V28.9394ZM25.4652 18.9287C25.4652 19.0323 25.5063 19.1316 25.5796 19.2049C25.6528 19.2781 25.7522 19.3193 25.8558 19.3193H29.1534C29.257 19.3193 29.3563 19.2781 29.4296 19.2049C29.5028 19.1316 29.544 19.0323 29.544 18.9287V15.631C29.544 15.5274 29.5028 15.4281 29.4296 15.3548C29.3563 15.2815 29.257 15.2404 29.1534 15.2404H25.8558C25.7522 15.2404 25.6528 15.2815 25.5796 15.3548C25.5063 15.4281 25.4652 15.5274 25.4652 15.631V18.9287ZM25.4652 23.934C25.4652 24.0376 25.5063 24.1369 25.5796 24.2102C25.6528 24.2835 25.7522 24.3246 25.8558 24.3246H29.1534C29.257 24.3246 29.3563 24.2835 29.4296 24.2102C29.5028 24.1369 29.544 24.0376 29.544 23.934V20.6364C29.544 20.5328 29.5028 20.4334 29.4296 20.3602C29.3563 20.2869 29.257 20.2458 29.1534 20.2458H25.8558C25.7522 20.2458 25.6528 20.2869 25.5796 20.3602C25.5063 20.4334 25.4652 20.5328 25.4652 20.6364V23.934ZM20.4598 18.9287C20.4598 19.0323 20.501 19.1316 20.5743 19.2049C20.6475 19.2781 20.7469 19.3193 20.8505 19.3193H24.148C24.2516 19.3193 24.351 19.2781 24.4243 19.2049C24.4975 19.1316 24.5387 19.0323 24.5387 18.9287V15.631C24.5387 15.5274 24.4975 15.4281 24.4243 15.3548C24.351 15.2815 24.2516 15.2404 24.148 15.2404H20.8505C20.7469 15.2404 20.6475 15.2815 20.5743 15.3548C20.501 15.4281 20.4598 15.5274 20.4598 15.631V18.9287ZM20.4598 23.934C20.4598 24.0376 20.501 24.1369 20.5743 24.2102C20.6475 24.2835 20.7469 24.3246 20.8505 24.3246H24.148C24.2516 24.3246 24.351 24.2835 24.4243 24.2102C24.4975 24.1369 24.5387 24.0376 24.5387 23.934V20.6364C24.5387 20.5328 24.4975 20.4334 24.4243 20.3602C24.351 20.2869 24.2516 20.2458 24.148 20.2458H20.8505C20.7469 20.2458 20.6475 20.2869 20.5743 20.3602C20.501 20.4334 20.4598 20.5328 20.4598 20.6364V23.934ZM15.4545 18.9287C15.4545 19.0323 15.4957 19.1316 15.5689 19.2049C15.6422 19.2781 15.7416 19.3193 15.8452 19.3193H19.1427C19.2463 19.3193 19.3457 19.2781 19.4189 19.2049C19.4922 19.1316 19.5334 19.0323 19.5334 18.9287V15.631C19.5334 15.5274 19.4922 15.4281 19.4189 15.3548C19.3457 15.2815 19.2463 15.2404 19.1427 15.2404H15.8452C15.7416 15.2404 15.6422 15.2815 15.5689 15.3548C15.4957 15.4281 15.4545 15.5274 15.4545 15.631V18.9287ZM15.4545 23.934C15.4545 24.0376 15.4957 24.1369 15.5689 24.2102C15.6422 24.2835 15.7416 24.3246 15.8452 24.3246H19.1427C19.2463 24.3246 19.3457 24.2835 19.4189 24.2102C19.4922 24.1369 19.5334 24.0376 19.5334 23.934V20.6364C19.5334 20.5328 19.4922 20.4334 19.4189 20.3602C19.3457 20.2869 19.2463 20.2458 19.1427 20.2458H15.8452C15.7416 20.2458 15.6422 20.2869 15.5689 20.3602C15.4957 20.4334 15.4545 20.5328 15.4545 20.6364V23.934ZM15.4545 28.9393C15.4545 29.0429 15.4957 29.1423 15.5689 29.2155C15.6422 29.2888 15.7416 29.3299 15.8452 29.3299H19.1427C19.2463 29.3299 19.3457 29.2888 19.4189 29.2155C19.4922 29.1423 19.5334 29.0429 19.5334 28.9393V25.6417C19.5334 25.5381 19.4922 25.4388 19.4189 25.3655C19.3457 25.2922 19.2463 25.2511 19.1427 25.2511H15.8452C15.7416 25.2511 15.6422 25.2922 15.5689 25.3655C15.4957 25.4388 15.4545 25.5381 15.4545 25.6417V28.9393ZM10.4491 18.9288C10.4491 19.0324 10.4902 19.1318 10.5635 19.205C10.6367 19.2783 10.7361 19.3195 10.8397 19.3195H14.1373C14.2409 19.3195 14.3402 19.2783 14.4135 19.205C14.4867 19.1318 14.5279 19.0324 14.5279 18.9288V15.6312C14.5279 15.5276 14.4867 15.4282 14.4135 15.355C14.3402 15.2817 14.2409 15.2405 14.1373 15.2405H10.8397C10.7361 15.2405 10.6367 15.2817 10.5635 15.355C10.4902 15.4282 10.4491 15.5276 10.4491 15.6312V18.9288ZM10.4491 23.9341C10.4491 24.0377 10.4902 24.1371 10.5635 24.2104C10.6367 24.2836 10.7361 24.3248 10.8397 24.3248H14.1373C14.2409 24.3248 14.3402 24.2836 14.4135 24.2104C14.4867 24.1371 14.5279 24.0377 14.5279 23.9341V20.6366C14.5279 20.533 14.4867 20.4336 14.4135 20.3603C14.3402 20.2871 14.2409 20.2459 14.1373 20.2459H10.8397C10.7361 20.2459 10.6367 20.2871 10.5635 20.3603C10.4902 20.4336 10.4491 20.533 10.4491 20.6366V23.9341ZM10.4491 28.9395C10.4491 29.0431 10.4902 29.1424 10.5635 29.2157C10.6367 29.2889 10.7361 29.3301 10.8397 29.3301H14.1373C14.2409 29.3301 14.3402 29.2889 14.4135 29.2157C14.4867 29.1424 14.5279 29.0431 14.5279 28.9395V25.6419C14.5279 25.5383 14.4867 25.4389 14.4135 25.3657C14.3402 25.2924 14.2409 25.2513 14.1373 25.2513H10.8397C10.7361 25.2513 10.6367 25.2924 10.5635 25.3657C10.4902 25.4389 10.4491 25.5383 10.4491 25.6419V28.9395ZM10.4491 33.9448C10.4491 34.0484 10.4902 34.1477 10.5635 34.221C10.6367 34.2942 10.7361 34.3354 10.8397 34.3354H14.1373C14.2409 34.3354 14.3402 34.2942 14.4135 34.221C14.4867 34.1477 14.5279 34.0484 14.5279 33.9448V30.6472C14.5279 30.5436 14.4867 30.4442 14.4135 30.371C14.3402 30.2977 14.2409 30.2566 14.1373 30.2566H10.8397C10.7361 30.2566 10.6367 30.2977 10.5635 30.371C10.4902 30.4442 10.4491 30.5436 10.4491 30.6472V33.9448ZM13.7466 21.0271H11.2303V23.5434H13.7466V21.0271ZM35.3722 10.0104H36.5382C36.6424 10.0104 36.7305 9.92234 36.7305 9.81813V6.44227C36.7305 6.33805 36.6424 6.25 36.5382 6.25H35.3722C35.268 6.25 35.1799 6.33805 35.1799 6.44227V9.81813C35.1799 9.92234 35.268 10.0104 35.3722 10.0104Z" fill="url(#paint0_linear_8_509)"/>
<defs>
<linearGradient id="paint0_linear_8_509" x1="7.78125" y1="25" x2="42.2225" y2="25" gradientUnits="userSpaceOnUse">
<stop stop-color="#D4AF37"/>
<stop offset="1" stop-color="#FFDA63"/>
</linearGradient>
</defs>
</svg>
