<svg width="50" height="50" viewBox="0 0 50 50" fill="none" xmlns="http://www.w3.org/2000/svg">
<path d="M33.2263 35.2709L30.7361 31.4757C31.7007 28.6621 32.2146 25.5379 32.2485 22.445L35.1887 25.6073L33.2264 35.2709H33.2263ZM29.9732 31.2946L28.3136 32.6111C27.4989 31.5496 26.3614 30.99 25.004 30.99C23.6467 30.99 22.5083 31.5492 21.6938 32.6107L20.0347 31.2947C18.5607 27.0389 18.1516 22.041 18.913 17.5623C19.1118 16.3929 19.4203 15.0777 19.8958 13.7307C21.1214 12.2907 22.8909 11.4418 24.7609 11.4C26.74 11.3521 28.6506 12.2158 30.1441 13.8228C30.6014 15.1375 30.9009 16.4196 31.0951 17.5623C31.8564 22.041 31.4474 27.0389 29.9733 31.2947L29.9732 31.2946ZM29.6241 20.511C29.6241 17.9634 27.5515 15.8907 25.0039 15.8907C22.4562 15.8907 20.3836 17.9633 20.3836 20.511C20.3836 23.0586 22.4562 25.1312 25.0039 25.1312C27.5515 25.1312 29.6241 23.0586 29.6241 20.511ZM28.8429 20.511C28.8429 22.6278 27.1207 24.35 25.0039 24.35C22.8871 24.35 21.1649 22.6278 21.1649 20.511C21.1649 18.3942 22.8871 16.672 25.0039 16.672C27.1207 16.672 28.8429 18.3942 28.8429 20.511ZM28.2259 20.511C28.2259 18.7344 26.7805 17.289 25.0039 17.289C23.2274 17.289 21.7821 18.7344 21.7821 20.511C21.7821 22.2875 23.2274 23.7329 25.0039 23.7329C26.7805 23.7329 28.2259 22.2875 28.2259 20.511ZM25.004 31.7712C23.8814 31.7712 22.9747 32.2168 22.3057 33.096L22.8034 33.4908C22.8276 33.4596 22.8517 33.4282 22.8769 33.3981C23.4279 32.7401 24.1436 32.4066 25.0041 32.4066C25.8646 32.4066 26.58 32.7402 27.1311 33.398C27.1563 33.4282 27.1804 33.4596 27.2046 33.4909L27.7019 33.0964C27.0329 32.2172 26.1268 31.7712 25.0042 31.7712H25.004ZM25.004 33.1878C24.3768 33.1878 23.8769 33.4207 23.4758 33.8996C22.5682 34.9835 22.3683 37.1947 22.6411 38.725C22.9526 40.4714 23.7866 42.1739 25.0039 43.5618C26.2212 42.1739 27.0552 40.4714 27.3667 38.725C27.6395 37.1949 27.4397 34.9836 26.5318 33.8996C26.1307 33.4207 25.631 33.1878 25.0039 33.1878H25.004ZM25.004 18.0703C23.6582 18.0703 22.5634 19.1652 22.5634 20.511C22.5634 21.8567 23.6583 22.9517 25.004 22.9517C26.3497 22.9517 27.4447 21.8567 27.4447 20.511C27.4447 19.1652 26.3498 18.0703 25.004 18.0703ZM14.8193 25.6074L16.7817 35.271L19.2718 31.4758C18.3072 28.6621 17.7934 25.538 17.7596 22.4452L14.8193 25.6074ZM29.4959 12.1903C28.5387 10.0683 27.1161 7.97472 25.0039 6.34839C22.9444 7.93425 21.5417 9.96433 20.5856 12.0317C21.7896 11.1536 23.237 10.6525 24.7433 10.6188C26.4398 10.5819 28.08 11.1315 29.4959 12.1903ZM17.3688 41.343C17.1532 41.343 16.9782 41.518 16.9782 41.7336V43.4789C16.9782 43.6946 17.1532 43.8696 17.3688 43.8696C17.5844 43.8696 17.7594 43.6946 17.7594 43.4789V41.7336C17.7594 41.518 17.5844 41.343 17.3688 41.343ZM19.268 39.136C19.0524 39.136 18.8774 39.311 18.8774 39.5266V41.2719C18.8774 41.4875 19.0524 41.6625 19.268 41.6625C19.4836 41.6625 19.6586 41.4875 19.6586 41.2719V39.5266C19.6586 39.311 19.4836 39.136 19.268 39.136ZM17.3688 37.8274C17.1532 37.8274 16.9782 38.0024 16.9782 38.218V39.9633C16.9782 40.1789 17.1532 40.3539 17.3688 40.3539C17.5844 40.3539 17.7594 40.1789 17.7594 39.9633V38.218C17.7594 38.0024 17.5844 37.8274 17.3688 37.8274ZM19.268 35.5688C19.0524 35.5688 18.8774 35.7438 18.8774 35.9594V37.7047C18.8774 37.9203 19.0524 38.0953 19.268 38.0953C19.4836 38.0953 19.6586 37.9203 19.6586 37.7047V35.9594C19.6586 35.7438 19.4836 35.5688 19.268 35.5688ZM32.6391 41.343C32.4235 41.343 32.2485 41.518 32.2485 41.7336V43.4789C32.2485 43.6946 32.4235 43.8696 32.6391 43.8696C32.8547 43.8696 33.0297 43.6946 33.0297 43.4789V41.7336C33.0297 41.518 32.8547 41.343 32.6391 41.343ZM32.6391 37.8274C32.4235 37.8274 32.2485 38.0024 32.2485 38.218V39.9633C32.2485 40.1789 32.4235 40.3539 32.6391 40.3539C32.8547 40.3539 33.0297 40.1789 33.0297 39.9633V38.218C33.0297 38.0024 32.8547 37.8274 32.6391 37.8274ZM30.7399 39.136C30.5243 39.136 30.3493 39.311 30.3493 39.5266V41.2719C30.3493 41.4875 30.5243 41.6625 30.7399 41.6625C30.9555 41.6625 31.1305 41.4875 31.1305 41.2719V39.5266C31.1305 39.311 30.9555 39.136 30.7399 39.136ZM30.7399 35.5688C30.5243 35.5688 30.3493 35.7438 30.3493 35.9594V37.7047C30.3493 37.9203 30.5243 38.0953 30.7399 38.0953C30.9555 38.0953 31.1305 37.9203 31.1305 37.7047V35.9594C31.1305 35.7438 30.9555 35.5688 30.7399 35.5688Z" fill="url(#paint0_linear_85_52)"/>
<defs>
<linearGradient id="paint0_linear_85_52" x1="14.8193" y1="25.109" x2="35.1887" y2="25.109" gradientUnits="userSpaceOnUse">
<stop stop-color="#D4AF37"/>
<stop offset="1" stop-color="#FFDA63"/>
</linearGradient>
</defs>
</svg>
