<svg width="19" height="12" viewBox="0 0 19 12" fill="none" xmlns="http://www.w3.org/2000/svg">
<path d="M7.71873 5.30062C8.10807 5.10478 8.40242 4.88665 8.60412 4.65094C8.96297 4.22642 9.14005 3.66352 9.14005 2.96577C9.14005 2.28677 8.96297 1.70628 8.60881 1.21961C8.01777 0.426864 7.01745 0.0211087 5.60317 0H0V11.4374H5.22439C5.81309 11.4374 6.3584 11.3869 6.86266 11.2837C7.36692 11.1794 7.80317 10.9882 8.17257 10.7091C8.50092 10.4664 8.77534 10.165 8.99346 9.80966C9.33823 9.27256 9.51062 8.66393 9.51062 7.98611C9.51062 7.32939 9.35934 6.77001 9.05913 6.31032C8.7554 5.85062 8.30977 5.51405 7.71873 5.30062ZM2.3114 1.98656H4.83505C5.38974 1.98656 5.8471 2.04637 6.20594 2.16481C6.62108 2.3372 6.82865 2.68784 6.82865 3.22259C6.82865 3.70222 6.67033 4.03762 6.35722 4.22642C6.04177 4.41523 5.63249 4.51022 5.13058 4.51022H2.3114V1.98656ZM6.30211 9.25146C6.023 9.38632 5.63015 9.45316 5.12706 9.45316H2.3114V6.40296H5.16576C5.66298 6.40648 6.04997 6.47215 6.32673 6.59528C6.81927 6.8181 7.06436 7.2262 7.06436 7.8231C7.06436 8.52672 6.81106 9.0005 6.30211 9.25146Z" fill="#D9D9D9"/>
<path d="M16.9609 0.533691H11.9922V1.95799H16.9609V0.533691Z" fill="#D9D9D9"/>
<path d="M18.686 6.1525C18.5828 5.48993 18.3553 4.90709 18.0012 4.404C17.613 3.83407 17.1205 3.41659 16.5212 3.15273C15.9243 2.8877 15.2524 2.75518 14.5042 2.75636C13.2482 2.75636 12.228 3.14921 11.4387 3.92906C10.6518 4.71125 10.2578 5.83587 10.2578 7.30175C10.2578 8.86497 10.6929 9.99428 11.5677 10.6873C12.439 11.3816 13.4452 11.7275 14.5874 11.7275C15.97 11.7275 17.0454 11.3159 17.8135 10.495C18.3049 9.97669 18.5828 9.46656 18.6438 8.96582H16.3547C16.2222 9.21326 16.0686 9.40675 15.8927 9.54748C15.5737 9.80547 15.1585 9.93447 14.6496 9.93447C14.1653 9.93447 13.7548 9.82775 13.4124 9.61549C12.8471 9.27541 12.5516 8.67968 12.5141 7.83181H18.7611C18.7705 7.10122 18.747 6.5395 18.686 6.1525ZM12.5704 6.3718C12.6525 5.8218 12.8518 5.38556 13.1685 5.06306C13.4851 4.74174 13.9331 4.57991 14.5065 4.57874C15.0354 4.57874 15.4775 4.73001 15.8375 5.03374C16.1929 5.33982 16.3934 5.78427 16.4344 6.3718H12.5704Z" fill="#D9D9D9"/>
</svg>
