<svg width="24" height="24" viewBox="0 0 24 24" fill="none" xmlns="http://www.w3.org/2000/svg">
<path d="M2 4.77614C2 4.57029 2.06585 4.37288 2.18306 4.22733C2.30027 4.08177 2.45924 4 2.625 4H21.375C21.5408 4 21.6997 4.08177 21.8169 4.22733C21.9342 4.37288 22 4.57029 22 4.77614C22 4.98198 21.9342 5.1794 21.8169 5.32495C21.6997 5.47051 21.5408 5.55228 21.375 5.55228H2.625C2.45924 5.55228 2.30027 5.47051 2.18306 5.32495C2.06585 5.1794 2 4.98198 2 4.77614ZM21.375 11.2239H2.625C2.45924 11.2239 2.30027 11.3056 2.18306 11.4512C2.06585 11.5967 2 11.7942 2 12C2 12.2058 2.06585 12.4033 2.18306 12.5488C2.30027 12.6944 2.45924 12.7761 2.625 12.7761H21.375C21.5408 12.7761 21.6997 12.6944 21.8169 12.5488C21.9342 12.4033 22 12.2058 22 12C22 11.7942 21.9342 11.5967 21.8169 11.4512C21.6997 11.3056 21.5408 11.2239 21.375 11.2239ZM12 18.4477H2.625C2.45924 18.4477 2.30027 18.5295 2.18306 18.675C2.06585 18.8206 2 19.018 2 19.2239C2 19.4297 2.06585 19.6271 2.18306 19.7727C2.30027 19.9182 2.45924 20 2.625 20H12C12.1658 20 12.3247 19.9182 12.4419 19.7727C12.5592 19.6271 12.625 19.4297 12.625 19.2239C12.625 19.018 12.5592 18.8206 12.4419 18.675C12.3247 18.5295 12.1658 18.4477 12 18.4477Z" fill="#D9D9D9"/>
</svg>
