<svg width="13" height="13" viewBox="0 0 13 13" fill="none" xmlns="http://www.w3.org/2000/svg">
<g clip-path="url(#clip0_59_317)">
<path fill-rule="evenodd" clip-rule="evenodd" d="M8.00719 6.15748C7.87541 5.85279 7.73805 5.54861 7.59154 5.24773C8.84254 4.7059 9.84801 3.97008 10.597 3.03697C11.3278 3.90051 11.7866 4.99713 11.8541 6.19734C10.4594 5.96908 9.17668 5.95639 8.00719 6.15748ZM9.48035 10.9632C9.2432 9.68906 8.8951 8.44314 8.44061 7.2277C9.45648 7.08398 10.5749 7.12131 11.798 7.33408C11.5614 8.84305 10.7001 10.1466 9.48035 10.9632ZM3.2048 10.7306C4.27121 9.0576 5.63291 7.96859 7.32012 7.46586C7.82209 8.77703 8.19178 10.1253 8.4269 11.5065C6.66936 12.1857 4.69447 11.894 3.2048 10.7306ZM1.13775 6.36162C3.22207 6.35857 5.02023 6.11914 6.52691 5.6451C6.65311 5.9023 6.77396 6.16078 6.88949 6.42104C5.05959 6.99283 3.55088 8.16563 2.37428 9.93104C1.52725 8.91439 1.10551 7.68143 1.13775 6.36162ZM4.07748 1.71437C4.79883 2.65814 5.4374 3.63111 5.9932 4.62947C4.6767 5.01693 3.10578 5.216 1.28908 5.22844C1.66436 3.69281 2.69826 2.41566 4.07748 1.71437ZM9.77336 2.25316C9.12082 3.09461 8.21996 3.7601 7.07205 4.24607C6.52209 3.23832 5.89342 2.2552 5.18324 1.30102C6.79098 0.890957 8.45406 1.23424 9.77336 2.25316ZM6.49975 0C2.91002 0 0 2.91027 0 6.5C0 10.0897 2.91002 13 6.49975 13C10.09 13 13 10.0897 13 6.5C13 2.91027 10.0897 0 6.49975 0Z" fill="#D9D9D9"/>
</g>
<defs>
<clipPath id="clip0_59_317">
<rect width="13" height="13" fill="white"/>
</clipPath>
</defs>
</svg>
