<svg width="20" height="20" viewBox="0 0 20 20" fill="none" xmlns="http://www.w3.org/2000/svg">
<path d="M1.71615 10.2901C1.6467 10.103 1.6467 9.89715 1.71615 9.71006C2.39257 8.06993 3.54075 6.66759 5.01513 5.6808C6.48951 4.69402 8.22369 4.16724 9.99782 4.16724C11.7719 4.16724 13.5061 4.69402 14.9805 5.6808C16.4549 6.66759 17.6031 8.06993 18.2795 9.71006C18.3489 9.89715 18.3489 10.103 18.2795 10.2901C17.6031 11.9302 16.4549 13.3325 14.9805 14.3193C13.5061 15.3061 11.7719 15.8329 9.99782 15.8329C8.22369 15.8329 6.48951 15.3061 5.01513 14.3193C3.54075 13.3325 2.39257 11.9302 1.71615 10.2901Z" stroke="#D9D9D9" stroke-width="1.66667" stroke-linecap="round" stroke-linejoin="round"/>
<path d="M9.99782 12.5001C11.3785 12.5001 12.4978 11.3808 12.4978 10.0001C12.4978 8.61934 11.3785 7.50006 9.99782 7.50006C8.6171 7.50006 7.49782 8.61934 7.49782 10.0001C7.49782 11.3808 8.6171 12.5001 9.99782 12.5001Z" stroke="#D9D9D9" stroke-width="1.66667" stroke-linecap="round" stroke-linejoin="round"/>
</svg>
