<svg width="12" height="13" viewBox="0 0 12 13" fill="none" xmlns="http://www.w3.org/2000/svg">
<path d="M9.36837 9.21342C8.68353 9.80392 7.77932 10.1312 6.78706 10.1312C4.59966 10.1312 2.99332 8.5905 2.99332 6.47511C2.99332 4.35973 4.54856 2.88386 6.78706 2.88386C7.76203 2.88386 8.68353 3.19532 9.38566 3.78582L9.86292 4.17949L11.9835 2.1463L11.4528 1.68703C10.205 0.606336 8.54829 0 6.78627 0C2.85494 0 0 2.72097 0 6.45928C0 10.1817 2.92334 13 6.78627 13C8.58132 13 10.2553 12.3937 11.4874 11.2956L12 10.8364L9.84642 8.80468L9.36837 9.21342Z" fill="#D9D9D9"/>
<path d="M6.68013 4.32764C7.2832 4.32764 7.86157 4.55742 8.28801 4.96644C8.71444 5.37545 8.95401 5.9302 8.95401 6.50863C8.95401 7.08707 8.71444 7.64181 8.28801 8.05083C7.86157 8.45984 7.2832 8.68963 6.68013 8.68963C6.07706 8.68963 5.49869 8.45984 5.07225 8.05083C4.64582 7.64181 4.40625 7.08707 4.40625 6.50863C4.40625 5.9302 4.64582 5.37545 5.07225 4.96644C5.49869 4.55742 6.07706 4.32764 6.68013 4.32764Z" fill="#D9D9D9"/>
</svg>
