<svg width="13" height="13" viewBox="0 0 13 13" fill="none" xmlns="http://www.w3.org/2000/svg">
<g clip-path="url(#clip0_59_306)">
<path d="M2.95701 4.32495H0.164062V12.7122H2.95701V4.32495Z" fill="#D9D9D9"/>
<path d="M12.118 5.09108C11.5313 4.45065 10.7553 4.13037 9.79056 4.13037C9.4351 4.13037 9.11198 4.1741 8.82135 4.26161C8.53081 4.34906 8.28542 4.47175 8.08505 4.62976C7.88481 4.78776 7.72532 4.93444 7.60692 5.06979C7.49433 5.19836 7.38424 5.34812 7.27681 5.51754V4.3249H4.49219L4.50072 4.7312C4.50645 5.00212 4.50926 5.83713 4.50926 7.23637C4.50926 8.63572 4.50363 10.461 4.49231 12.7123H7.27681V8.03187C7.27681 7.74417 7.30766 7.5157 7.36986 7.34629C7.48843 7.05838 7.6674 6.81735 7.90734 6.62276C8.14724 6.42794 8.44478 6.33062 8.80036 6.33062C9.28546 6.33062 9.64246 6.49846 9.87102 6.83418C10.0995 7.16988 10.2137 7.63398 10.2137 8.22645V12.712H12.9982V7.90505C12.998 6.66925 12.7048 5.7313 12.118 5.09108Z" fill="#D9D9D9"/>
<path d="M1.57419 0.287598C1.10593 0.287598 0.726517 0.424524 0.435857 0.69811C0.145226 0.971755 0 1.31723 0 1.73485C0 2.14664 0.141047 2.49093 0.423169 2.76733C0.705203 3.04376 1.07765 3.18205 1.54031 3.18205H1.55723C2.03124 3.18205 2.41356 3.04388 2.7041 2.76733C2.99465 2.49093 3.13709 2.14676 3.13148 1.73485C3.12585 1.31726 2.98187 0.971755 2.69984 0.69811C2.41783 0.424405 2.04248 0.287598 1.57419 0.287598Z" fill="#D9D9D9"/>
</g>
<defs>
<clipPath id="clip0_59_306">
<rect width="13" height="13" fill="white"/>
</clipPath>
</defs>
</svg>
