<svg width="26" height="25" viewBox="0 0 26 25" fill="none" xmlns="http://www.w3.org/2000/svg">
<path d="M25.4614 11.2263L1.31916 0.0837207C0.934742 -0.0908464 0.476039 0.0131511 0.208617 0.343714C0.0777606 0.503833 0.00443802 0.703242 0.000397321 0.909992C-0.00364338 1.11674 0.0618317 1.31886 0.186332 1.48397L8.12542 12.0694L0.186332 22.6549C-0.0699474 22.9947 -0.0606619 23.4664 0.20676 23.7951C0.386899 24.0198 0.656178 24.1406 0.929171 24.1406C1.06102 24.1406 1.19288 24.1127 1.3173 24.0551L25.4596 12.9125C25.7901 12.7603 26 12.4316 26 12.0694C26 11.7073 25.7901 11.3786 25.4614 11.2263Z" fill="white"/>
</svg>
