<svg width="70" height="70" viewBox="0 0 70 70" fill="none" xmlns="http://www.w3.org/2000/svg">
<rect x="29.6778" y="25.3568" width="11.5087" height="17.5581" rx="5.75435" stroke="#D9D9D9" stroke-width="0.590068"/>
<rect x="34.5703" y="28.5186" width="0.864197" height="2.59259" rx="0.432099" fill="#D9D9D9"/>
<path d="M59.705 37.394C59.7369 37.0888 59.8165 36.8005 59.9437 36.529C60.0744 36.2618 60.226 36.0601 60.3985 35.9239L60.7152 36.129C60.5592 36.2591 60.4197 36.4403 60.2965 36.6726C60.1769 36.9093 60.1029 37.1626 60.0747 37.4326C60.0478 37.6908 60.0572 37.9034 60.103 38.0704C60.1524 38.2416 60.2279 38.3702 60.3297 38.4559C60.4311 38.5456 60.5483 38.5974 60.6813 38.6113C60.8417 38.6281 60.9758 38.5946 61.0834 38.5109C61.1906 38.4312 61.2794 38.3198 61.3497 38.1769C61.4239 38.0343 61.4919 37.8753 61.5538 37.6998C61.6156 37.5244 61.6794 37.3491 61.7451 37.174C61.8148 36.9993 61.8987 36.84 61.9968 36.696C62.0945 36.5559 62.2148 36.4459 62.3576 36.3659C62.5039 36.2902 62.6866 36.2638 62.9057 36.2867C63.1092 36.3079 63.2895 36.3802 63.4467 36.5034C63.6074 36.6309 63.727 36.8115 63.8054 37.0451C63.8878 37.2792 63.9107 37.5703 63.8744 37.9185C63.8502 38.1494 63.7931 38.3748 63.7029 38.5948C63.6165 38.8151 63.5081 39.0016 63.3775 39.154L63.0465 38.9711C63.1823 38.8073 63.288 38.6285 63.3636 38.4347C63.4388 38.2448 63.486 38.0579 63.5052 37.874C63.531 37.6276 63.519 37.4206 63.4692 37.2533C63.4195 37.0859 63.342 36.9572 63.2367 36.8671C63.1349 36.7813 63.0136 36.731 62.8727 36.7163C62.7123 36.6996 62.5785 36.7311 62.4713 36.8108C62.3637 36.8945 62.2747 37.0078 62.2044 37.1508C62.1337 37.2977 62.0674 37.4588 62.0056 37.6343C61.9437 37.8098 61.8782 37.9829 61.8089 38.1536C61.7393 38.3283 61.6556 38.4857 61.5579 38.6258C61.4637 38.7702 61.3454 38.8804 61.203 38.9565C61.0601 39.0365 60.8811 39.0653 60.6659 39.0428C60.4664 39.022 60.2863 38.9478 60.1256 38.8202C59.9688 38.6931 59.8494 38.5106 59.7675 38.2726C59.689 38.039 59.6682 37.7461 59.705 37.394Z" fill="#D9D9D9"/>
<path d="M58.5547 43.1185C58.6562 42.8248 58.7983 42.5701 58.981 42.3544C59.1675 42.1399 59.3814 41.9725 59.6228 41.8519C59.8642 41.7314 60.1238 41.6608 60.4014 41.6402C60.6778 41.6233 60.9591 41.6644 61.2454 41.7633C61.5317 41.8622 61.7784 42.0036 61.9854 42.1875C62.1911 42.3751 62.3517 42.5908 62.4672 42.8347C62.5814 43.0822 62.6439 43.3473 62.6545 43.6298C62.6688 43.9136 62.6252 44.2024 62.5237 44.4961C62.4261 44.7787 62.2859 45.0278 62.1032 45.2435C61.9241 45.4605 61.7103 45.6218 61.4616 45.7273L61.29 45.3746C61.5088 45.2713 61.687 45.1351 61.8244 44.9662C61.9656 44.7985 62.0747 44.6031 62.1518 44.3801C62.2327 44.1458 62.267 43.9142 62.2545 43.6851C62.2458 43.4574 62.1928 43.2434 62.0954 43.0433C62.0018 42.8445 61.8713 42.6683 61.7037 42.5147C61.5387 42.3661 61.339 42.2513 61.1048 42.1704C60.8705 42.0895 60.6407 42.0559 60.4154 42.0696C60.1925 42.0883 59.981 42.1463 59.7809 42.2437C59.5845 42.3423 59.4107 42.4779 59.2596 42.6504C59.1121 42.8242 58.9979 43.0282 58.917 43.2625C58.8399 43.4855 58.8052 43.7066 58.8127 43.9256C58.8203 44.1447 58.8783 44.3624 58.9866 44.5788L58.6339 44.7504C58.5034 44.5138 58.4328 44.2543 58.4222 43.9718C58.4116 43.6893 58.4558 43.4048 58.5547 43.1185Z" fill="#D9D9D9"/>
<path d="M56.373 47.0083L59.874 49.2L59.0537 50.5104C58.8679 50.8072 58.6599 51.032 58.4296 51.1848C58.2027 51.3398 57.9637 51.4176 57.7127 51.4183C57.4629 51.4243 57.2113 51.348 56.9579 51.1894C56.7112 51.035 56.5343 50.843 56.4273 50.6136C56.3215 50.3896 56.2871 50.1406 56.324 49.8667C56.3642 49.5949 56.4772 49.3106 56.663 49.0138L57.3549 47.9085L57.4217 48.18L56.1413 47.3785L56.373 47.0083ZM54.8764 49.3991L56.7103 49.2941L56.4598 49.6942L54.6228 49.8042L54.8764 49.3991ZM57.3917 48.1612L57.67 48.1057L56.9843 49.2011C56.7652 49.5512 56.6759 49.8643 56.7166 50.1403C56.7552 50.4197 56.9128 50.6461 57.1896 50.8193C57.4697 50.9946 57.7438 51.0386 58.012 50.9512C58.2781 50.8672 58.5207 50.6501 58.7399 50.3L59.4256 49.2047L59.4973 49.4793L57.3917 48.1612Z" fill="#D9D9D9"/>
<path d="M52.1221 52.082C52.3419 51.8623 52.5825 51.694 52.844 51.5772C53.1054 51.4659 53.3725 51.4075 53.6451 51.4019C53.9177 51.4019 54.1819 51.452 54.4378 51.5521C54.6937 51.6578 54.9288 51.8178 55.143 52.032C55.3571 52.2461 55.5157 52.4798 55.6186 52.7329C55.7215 52.9916 55.7716 53.2559 55.7688 53.5257C55.766 53.8011 55.7076 54.0681 55.5936 54.3268C55.4823 54.5883 55.3154 54.8303 55.0929 55.0528C54.8731 55.2725 54.6325 55.438 54.3711 55.5493C54.1124 55.6633 53.8481 55.7218 53.5783 55.7245C53.3057 55.7301 53.0415 55.68 52.7855 55.5743C52.5269 55.4714 52.2904 55.3129 52.0762 55.0987C51.862 54.8845 51.7035 54.6481 51.6006 54.3894C51.4949 54.1335 51.4448 53.8692 51.4504 53.5966C51.4532 53.3268 51.5102 53.0612 51.6214 52.7997C51.7355 52.541 51.9024 52.3018 52.1221 52.082ZM52.3975 52.3574C52.2223 52.5326 52.0901 52.7232 52.0011 52.929C51.9121 53.1404 51.8676 53.3546 51.8676 53.5716C51.8676 53.7941 51.9093 54.0083 51.9928 54.2141C52.079 54.4228 52.2097 54.6147 52.385 54.7899C52.5602 54.9652 52.7508 55.0945 52.9566 55.178C53.1652 55.2642 53.3794 55.3059 53.5992 55.3031C53.8189 55.3059 54.0331 55.2614 54.2417 55.1696C54.4503 55.0834 54.6423 54.9526 54.8175 54.7774C54.9927 54.6022 55.1249 54.4088 55.2139 54.1974C55.3057 53.9888 55.3516 53.7732 55.3516 53.5507C55.3516 53.3338 55.3099 53.1196 55.2264 52.9082C55.143 52.7023 55.0136 52.5118 54.8384 52.3365C54.6659 52.1641 54.4754 52.0347 54.2667 51.9485C54.0553 51.8651 53.8398 51.8219 53.62 51.8192C53.4003 51.8219 53.1847 51.8678 52.9733 51.9569C52.7647 52.0486 52.5727 52.1822 52.3975 52.3574Z" fill="#D9D9D9"/>
<path d="M49.3487 54.7538L51.6421 58.1891L51.2789 58.4315L49.1952 55.3103L47.2715 56.5947L47.0618 56.2806L49.3487 54.7538Z" fill="#D9D9D9"/>
<path d="M46.2316 57.2676L47.9812 61.0093L47.5857 61.1942L45.996 57.7947L43.9007 58.7745L43.7407 58.4324L46.2316 57.2676Z" fill="#D9D9D9"/>
<path d="M38.6284 59.2548L38.9309 63.3742L37.2537 63.4974C36.8143 63.5296 36.4233 63.4696 36.0808 63.3173C35.7347 63.1691 35.458 62.9469 35.2509 62.6505C35.0437 62.3541 34.9253 62.0038 34.8956 61.5997C34.866 61.1956 34.932 60.8319 35.0936 60.5084C35.2552 60.1849 35.4963 59.9226 35.8168 59.7216C36.1337 59.5248 36.5118 59.4103 36.9512 59.378L38.6284 59.2548ZM38.2206 59.6635L37.0024 59.7529C36.6376 59.7797 36.3269 59.8735 36.0705 60.0343C35.8105 60.1994 35.6151 60.4129 35.4845 60.6749C35.3541 60.9409 35.301 61.2386 35.3252 61.5682C35.3497 61.9017 35.4457 62.1885 35.6132 62.4286C35.7808 62.6687 36.0051 62.8495 36.2861 62.9709C36.5636 63.0964 36.8847 63.1458 37.2496 63.119L38.4677 63.0296L38.2206 59.6635Z" fill="#D9D9D9"/>
<path d="M31.4309 59.6134C31.7378 59.6622 32.0153 59.7582 32.2634 59.9012C32.507 60.0476 32.7111 60.2294 32.8756 60.4468C33.0357 60.6675 33.1503 60.9108 33.2195 61.1767C33.2842 61.4459 33.2928 61.7301 33.2452 62.0292C33.1975 62.3284 33.1015 62.5939 32.957 62.8258C32.8081 63.061 32.6235 63.2567 32.4035 63.4129C32.179 63.5723 31.9285 63.6819 31.6521 63.7414C31.3752 63.8049 31.0813 63.8119 30.7705 63.7624C30.4636 63.7136 30.1883 63.616 29.9447 63.4697C29.7005 63.3272 29.4981 63.1476 29.3374 62.9308C29.1728 62.7134 29.0582 62.4701 28.9935 62.2009C28.9249 61.9311 28.9145 61.6466 28.9621 61.3475C29.0097 61.0483 29.108 60.7812 29.257 60.546C29.402 60.3101 29.5865 60.1145 29.8105 59.9589C30.0305 59.8027 30.279 59.6929 30.556 59.6294C30.8324 59.5699 31.124 59.5645 31.4309 59.6134ZM31.3697 59.998C31.1249 59.959 30.8931 59.9639 30.6742 60.0127C30.4509 60.0648 30.2514 60.1545 30.0757 60.2819C29.8956 60.4126 29.7467 60.5721 29.6291 60.7605C29.5108 60.9528 29.4322 61.1714 29.3933 61.4161C29.3543 61.6609 29.3615 61.891 29.4148 62.1067C29.4675 62.3262 29.5595 62.524 29.6908 62.7003C29.8176 62.8798 29.9793 63.027 30.1761 63.142C30.3684 63.2603 30.587 63.3389 30.8317 63.3778C31.0764 63.4168 31.3105 63.4102 31.5339 63.3581C31.7567 63.3099 31.9581 63.2205 32.1383 63.0899C32.3139 62.9625 32.4628 62.8029 32.5849 62.6113C32.7025 62.4229 32.7808 62.2063 32.8198 61.9615C32.8581 61.7207 32.8509 61.4905 32.7982 61.271C32.7416 61.0509 32.65 60.851 32.5232 60.6715C32.3919 60.4953 32.2282 60.3477 32.032 60.2289C31.8352 60.1139 31.6144 60.0369 31.3697 59.998Z" fill="#D9D9D9"/>
<path d="M26.3527 58.2559L25.8968 62.5909L25.4891 62.404L25.9247 58.3258L26.1285 58.4192L23.2847 61.393L22.92 61.2258L23.3341 57.1378L23.5272 57.2263L20.7102 60.2124L20.3294 60.0378L23.3169 56.8637L23.7353 57.0556L23.3512 60.9367L23.2439 60.8875L25.9397 58.0665L26.3527 58.2559Z" fill="#D9D9D9"/>
<path d="M20.0676 55.417L17.4356 58.6003L17.1582 58.3709L17.2478 53.7899L17.3933 53.9103L15.1072 56.6752L14.7752 56.4007L17.4072 53.2174L17.6846 53.4468L17.5905 58.024L17.445 57.9037L19.731 55.1387L20.0676 55.417Z" fill="#D9D9D9"/>
<path d="M10.2027 33.0358C10.1837 33.3421 10.1165 33.6335 10.0008 33.9101C9.88151 34.1826 9.73859 34.3905 9.57208 34.534L9.24694 34.3424C9.39726 34.2059 9.52903 34.0189 9.64223 33.7816C9.75175 33.54 9.81488 33.2838 9.83163 33.0129C9.84765 32.7538 9.82922 32.5418 9.77635 32.3769C9.7198 32.2079 9.63886 32.0827 9.53353 32.0013C9.42845 31.9159 9.30916 31.8691 9.17567 31.8609C9.01469 31.8509 8.88221 31.8901 8.77823 31.9782C8.67449 32.0625 8.59052 32.1775 8.52633 32.3233C8.45822 32.4688 8.39698 32.6306 8.34263 32.8085C8.28827 32.9865 8.23196 33.1643 8.17368 33.342C8.11147 33.5194 8.03441 33.6822 7.9425 33.8302C7.85082 33.9743 7.73533 34.0894 7.59601 34.1753C7.453 34.2571 7.27157 34.2913 7.0517 34.2777C6.84753 34.265 6.6643 34.2005 6.50203 34.0841C6.33606 33.9634 6.20896 33.7881 6.12071 33.558C6.02853 33.3276 5.99324 33.0377 6.01484 32.6883C6.02916 32.4566 6.07673 32.229 6.15755 32.0054C6.23445 31.7816 6.33493 31.5907 6.45898 31.4329L6.79736 31.6016C6.66865 31.771 6.57062 31.9541 6.50328 32.1509C6.43617 32.3439 6.39692 32.5326 6.38551 32.7171C6.37022 32.9645 6.39098 33.1707 6.44777 33.3358C6.50457 33.5009 6.58747 33.6262 6.69648 33.7118C6.80181 33.7932 6.92514 33.8383 7.06649 33.847C7.22747 33.857 7.35983 33.8198 7.46357 33.7356C7.56755 33.6474 7.65163 33.5304 7.71582 33.3846C7.78026 33.2349 7.83965 33.0711 7.894 32.8931C7.94836 32.7152 8.00651 32.5394 8.06848 32.3659C8.13068 32.1885 8.20762 32.0277 8.2993 31.8836C8.38729 31.7353 8.50082 31.6201 8.6399 31.5381C8.77921 31.4521 8.95685 31.4158 9.17279 31.4291C9.37303 31.4415 9.55614 31.508 9.7221 31.6286C9.88413 31.749 10.0111 31.9263 10.1031 32.1606C10.1913 32.3907 10.2245 32.6825 10.2027 33.0358Z" fill="#D9D9D9"/>
<path d="M11.4464 28.1305C11.3583 28.4285 11.2279 28.6894 11.0551 28.9132C10.8785 29.1358 10.6724 29.3128 10.4367 29.4442C10.201 29.5755 9.94491 29.6577 9.66848 29.6909C9.39317 29.7203 9.11027 29.692 8.81979 29.6062C8.52931 29.5203 8.27652 29.3903 8.06141 29.2159C7.84742 29.0378 7.6772 28.8296 7.55075 28.5912C7.42542 28.3491 7.35106 28.0871 7.32768 27.8054C7.30053 27.5225 7.33099 27.2321 7.41907 26.9341C7.50381 26.6474 7.63257 26.3921 7.80536 26.1683C7.97437 25.9435 8.18072 25.7727 8.4244 25.656L8.61176 26.0006C8.39783 26.1137 8.22603 26.2578 8.09638 26.4328C7.96295 26.6067 7.86279 26.8068 7.79589 27.0331C7.72565 27.2708 7.70192 27.5037 7.72471 27.732C7.74372 27.9591 7.80638 28.1704 7.91268 28.3659C8.01521 28.5603 8.15362 28.7304 8.32792 28.8763C8.49956 29.0173 8.70421 29.1229 8.94188 29.1931C9.17955 29.2634 9.41061 29.2865 9.63508 29.2626C9.8569 29.2338 10.0656 29.1663 10.261 29.06C10.4528 28.9526 10.6202 28.8093 10.7634 28.6301C10.9029 28.4498 11.0077 28.2408 11.0779 28.0031C11.1448 27.7768 11.1696 27.5544 11.1521 27.3359C11.1346 27.1174 11.0669 26.9026 10.9488 26.6913L11.2934 26.5039C11.4345 26.7343 11.5167 26.9904 11.5401 27.2722C11.5635 27.5539 11.5323 27.84 11.4464 28.1305Z" fill="#D9D9D9"/>
<path d="M12.9342 24.3054L9.33985 22.2704L10.1015 20.925C10.274 20.6204 10.4719 20.3866 10.6952 20.2237C10.9151 20.0589 11.1504 19.9706 11.4012 19.9589C11.6504 19.9418 11.9052 20.0069 12.1653 20.1542C12.4186 20.2976 12.6038 20.4816 12.7208 20.706C12.8364 20.9251 12.8818 21.1723 12.857 21.4476C12.8288 21.721 12.7285 22.01 12.556 22.3147L11.9135 23.4495L11.8348 23.1812L13.1494 23.9254L12.9342 24.3054ZM14.3238 21.8509L12.4963 22.0368L12.7289 21.626L14.5593 21.435L14.3238 21.8509ZM11.8657 23.1986L11.59 23.2663L12.2267 22.1418C12.4302 21.7823 12.5055 21.4656 12.4527 21.1916C12.4018 20.9142 12.2343 20.695 11.9502 20.5342C11.6626 20.3714 11.3868 20.3395 11.1228 20.4387C10.8606 20.5344 10.6278 20.7619 10.4243 21.1214L9.78767 22.2459L9.70389 21.9747L11.8657 23.1986Z" fill="#D9D9D9"/>
<path d="M16.3585 18.3747C16.1486 18.6039 15.9155 18.7825 15.6594 18.9106C15.403 19.0331 15.1388 19.1031 14.8667 19.1206C14.5943 19.1325 14.3282 19.094 14.0681 19.0051C13.8079 18.9106 13.5661 18.7611 13.3427 18.5564C13.1194 18.3518 12.9508 18.1253 12.837 17.8769C12.7229 17.6229 12.6613 17.3611 12.6524 17.0914C12.6431 16.8162 12.6899 16.5469 12.7925 16.2834C12.8923 16.0174 13.0485 15.7683 13.2611 15.5363C13.471 15.3072 13.7042 15.1313 13.9606 15.0088C14.2141 14.8836 14.4755 14.8137 14.745 14.7992C15.017 14.7817 15.2832 14.8202 15.5435 14.9147C15.8064 15.0062 16.0496 15.1543 16.2729 15.359C16.4962 15.5636 16.6649 15.7929 16.779 16.0469C16.8958 16.2979 16.9573 16.5597 16.9636 16.8323C16.9726 17.102 16.9272 17.3699 16.8274 17.6359C16.7248 17.8994 16.5685 18.1456 16.3585 18.3747ZM16.0714 18.1116C16.2388 17.9289 16.3625 17.7328 16.4425 17.5233C16.5222 17.3082 16.5573 17.0923 16.5479 16.8755C16.5382 16.6532 16.4871 16.441 16.3948 16.239C16.2996 16.0344 16.1606 15.8483 15.9779 15.6809C15.7952 15.5134 15.5992 15.3925 15.3899 15.3181C15.1777 15.2411 14.9619 15.2087 14.7425 15.2211C14.5228 15.2279 14.3108 15.2817 14.1064 15.3825C13.9017 15.4777 13.7156 15.6167 13.5482 15.7994C13.3808 15.9821 13.2572 16.181 13.1775 16.3961C13.0949 16.6085 13.0584 16.8259 13.0681 17.0482C13.0776 17.265 13.1286 17.4771 13.2212 17.6847C13.3135 17.8867 13.4511 18.0714 13.6338 18.2389C13.8136 18.4036 14.0096 18.5246 14.2218 18.6016C14.4366 18.6758 14.6538 18.7094 14.8735 18.7026C15.0929 18.6903 15.3063 18.635 15.5136 18.5369C15.718 18.4361 15.904 18.2943 16.0714 18.1116Z" fill="#D9D9D9"/>
<path d="M19.2458 15.8039L16.8039 12.4726L17.1561 12.2144L19.3748 15.2412L21.2403 13.8737L21.4636 14.1783L19.2458 15.8039Z" fill="#D9D9D9"/>
<path d="M22.4106 13.3381L20.4962 9.67804L20.8831 9.47567L22.6225 12.8011L24.6721 11.729L24.8471 12.0636L22.4106 13.3381Z" fill="#D9D9D9"/>
<path d="M30.0614 10.6521L29.5849 6.54923L31.2554 6.35521C31.693 6.30437 32.0862 6.34782 32.4348 6.48553C32.7869 6.61888 33.0727 6.82924 33.2922 7.11661C33.5117 7.40397 33.6449 7.74889 33.6916 8.15136C33.7384 8.55384 33.6878 8.92009 33.54 9.25011C33.3922 9.58014 33.1625 9.85236 32.8508 10.0668C32.5425 10.2768 32.1696 10.4073 31.7319 10.4581L30.0614 10.6521ZM30.4516 10.2266L31.6649 10.0857C32.0283 10.0435 32.3347 9.93662 32.5841 9.76509C32.8369 9.5892 33.023 9.36759 33.1425 9.10026C33.2614 8.82902 33.3019 8.52929 33.2637 8.20106C33.2252 7.86892 33.1171 7.58643 32.9396 7.3536C32.762 7.12076 32.5303 6.94967 32.2443 6.84031C31.9618 6.7266 31.6389 6.69084 31.2755 6.73305L30.0622 6.87397L30.4516 10.2266Z" fill="#D9D9D9"/>
<path d="M37.2875 10.3177C36.9788 10.2819 36.6975 10.1977 36.4436 10.0653C36.194 9.92936 35.9825 9.75628 35.8089 9.54603C35.6397 9.33232 35.5149 9.09407 35.4345 8.83128C35.3585 8.56504 35.338 8.28148 35.3729 7.9806C35.4079 7.67972 35.4926 7.41037 35.6272 7.17254C35.7661 6.93126 35.9421 6.72796 36.1554 6.56264C36.373 6.39386 36.6186 6.27388 36.8922 6.20269C37.1663 6.1276 37.4596 6.1082 37.7722 6.14451C38.0809 6.18037 38.36 6.26625 38.6096 6.40216C38.8596 6.53416 39.0694 6.70506 39.2391 6.91486C39.4127 7.12512 39.5375 7.36337 39.6135 7.62961C39.6934 7.89631 39.7159 8.18009 39.6809 8.48097C39.646 8.78185 39.5591 9.05293 39.4202 9.29421C39.2852 9.53595 39.1091 9.73925 38.8919 9.90412C38.6787 10.0694 38.435 10.1896 38.1609 10.2647C37.8873 10.3359 37.5962 10.3536 37.2875 10.3177ZM37.3324 9.9309C37.5786 9.95949 37.81 9.94479 38.0266 9.88678C38.2476 9.82532 38.4432 9.72725 38.6133 9.59256C38.7877 9.45441 38.9297 9.28873 39.0393 9.09553C39.1493 8.89841 39.2186 8.67677 39.2472 8.4306C39.2758 8.18442 39.2589 7.95475 39.1966 7.74157C39.1346 7.52449 39.0344 7.33067 38.8958 7.16012C38.7615 6.98612 38.5937 6.84584 38.3922 6.73927C38.1951 6.62925 37.9735 6.55995 37.7273 6.53136C37.4811 6.50276 37.2475 6.5192 37.0265 6.58065C36.806 6.6382 36.6085 6.73605 36.434 6.8742C36.264 7.00889 36.1219 7.17457 36.008 7.37123C35.8985 7.56443 35.8294 7.78412 35.8008 8.0303C35.7726 8.27256 35.7895 8.50224 35.8514 8.71932C35.9173 8.93686 36.0173 9.13263 36.1515 9.30663C36.2901 9.47718 36.4599 9.61769 36.661 9.72816C36.8624 9.83473 37.0863 9.90231 37.3324 9.9309Z" fill="#D9D9D9"/>
<path d="M42.3412 10.9596L42.6189 6.60954L43.0339 6.7796L42.766 10.8722L42.5585 10.7872L45.2779 7.69923L45.6492 7.85139L45.4032 11.953L45.2066 11.8724L47.8987 8.77326L48.2864 8.93213L45.4316 12.2261L45.0057 12.0515L45.2302 8.15796L45.3394 8.20271L42.7616 11.1319L42.3412 10.9596Z" fill="#D9D9D9"/>
<path d="M48.5919 13.9454L51.0822 10.6501L51.3693 10.8671L51.4801 15.4477L51.3295 15.3338L53.4925 12.4716L53.8361 12.7313L51.3458 16.0266L51.0587 15.8096L50.9526 11.2326L51.1032 11.3465L48.9402 14.2087L48.5919 13.9454Z" fill="#D9D9D9"/>
<circle cx="59.1947" cy="24.6295" r="1.2963" fill="#D9D9D9"/>
<circle cx="11.6635" cy="45.3703" r="1.2963" fill="#D9D9D9"/>
</svg>
