<svg width="18" height="13" viewBox="0 0 18 13" fill="none" xmlns="http://www.w3.org/2000/svg">
<path d="M13.939 1.14164C12 1.14164 10.5366 2.43059 9.95122 4.45609C9.03659 3.01983 8.30488 1.39943 7.90244 0H5.85366V5.4136C5.85366 6.48159 4.97561 7.36544 3.91463 7.36544C2.85366 7.36544 1.97561 6.48159 1.97561 5.4136V0.036827H0V5.45042C0 7.69688 1.79268 9.50142 3.9878 9.50142C6.18293 9.50142 7.97561 7.69688 7.97561 5.45042V4.52974C8.37805 5.33994 8.89024 6.22379 9.43902 6.99717L8.15854 13H10.2439L11.122 8.61756C11.9268 9.13314 12.8415 9.42776 13.939 9.42776C16.1707 9.42776 18 7.5864 18 5.22946C18 2.983 16.1707 1.14164 13.939 1.14164ZM13.939 7.36544C13.1341 7.36544 12.2927 6.99717 11.6341 6.44476L11.8537 5.63456V5.59773C12 4.71388 12.4756 3.24079 13.9756 3.24079C15.1098 3.24079 16.0244 4.16147 16.0244 5.30312C15.9878 6.44476 15 7.36544 13.939 7.36544Z" fill="#D9D9D9"/>
</svg>
