<svg width="30" height="12" viewBox="0 0 30 12" fill="none" xmlns="http://www.w3.org/2000/svg">
<path d="M14.0037 5.83965V9.31004H12.9023V0.740234H15.822C16.562 0.740234 17.1929 0.986914 17.7092 1.48021C18.237 1.97352 18.5008 2.5758 18.5008 3.28707C18.5008 4.01557 18.237 4.61785 17.7092 5.10541C17.1987 5.59297 16.5677 5.83391 15.822 5.83391H14.0037V5.83965ZM14.0037 1.79568V4.7842H15.845C16.2809 4.7842 16.6481 4.63508 16.9348 4.34252C17.2274 4.04996 17.3765 3.69436 17.3765 3.29281C17.3765 2.89701 17.2274 2.54709 16.9348 2.25459C16.648 1.95055 16.2867 1.80143 15.845 1.80143H14.0037V1.79568ZM21.3803 3.25268C22.1948 3.25268 22.8373 3.47064 23.3077 3.90658C23.778 4.34252 24.0132 4.93906 24.0132 5.69627V9.31004H22.9635V8.49553H22.9176C22.4644 9.16666 21.8564 9.49936 21.0993 9.49936C20.4511 9.49936 19.9119 9.31004 19.4759 8.92572C19.04 8.54141 18.822 8.06527 18.822 7.4917C18.822 6.88367 19.0515 6.40186 19.5104 6.04619C19.9693 5.68484 20.583 5.50701 21.3459 5.50701C21.9998 5.50701 22.5391 5.62748 22.9578 5.86836V5.616C22.9578 5.23168 22.8087 4.91047 22.5046 4.64088C22.2006 4.37129 21.845 4.23934 21.4377 4.23934C20.8239 4.23934 20.3364 4.49744 19.9807 5.01945L19.0113 4.41143C19.5448 3.63699 20.3364 3.25268 21.3803 3.25268ZM19.9578 7.50887C19.9578 7.79568 20.0783 8.03662 20.3249 8.22588C20.5658 8.4152 20.8526 8.5127 21.1796 8.5127C21.6442 8.5127 22.0572 8.34061 22.4186 7.99643C22.78 7.65225 22.9635 7.2507 22.9635 6.78611C22.6194 6.51652 22.1433 6.37883 21.5295 6.37883C21.0821 6.37883 20.7093 6.48781 20.411 6.70004C20.1069 6.92375 19.9578 7.1934 19.9578 7.50887ZM30.0018 3.44193L26.3306 11.8855H25.1948L26.56 8.93141L24.1394 3.44193H25.3382L27.082 7.65225H27.105L28.8029 3.44193H30.0018Z" fill="#383E41"/>
<path d="M9.53049 4.10547H4.91406V5.9984L7.57275 5.99898C7.46494 6.62881 7.11789 7.1657 6.58615 7.52365V7.524L6.58674 7.52365L6.53887 8.65504L8.16936 8.75119L8.16871 8.75178C9.09279 7.89654 9.6223 6.63227 9.6223 5.13859C9.6226 4.79217 9.59187 4.44641 9.53049 4.10547Z" fill="#0085F7"/>
<path d="M6.58625 7.5243L6.58566 7.52465C6.14522 7.82154 5.57809 7.99522 4.91475 7.99522C3.63271 7.99522 2.54516 7.13137 2.15568 5.96693H2.15551L2.15568 5.96752L0.794492 5.75195L0.523438 7.23385C1.33232 8.83861 2.99451 9.93977 4.9148 9.93977C6.24178 9.93977 7.35664 9.50348 8.16828 8.75236C8.16852 8.7522 8.16874 8.752 8.16893 8.75178L6.58625 7.5243Z" fill="#00A94B"/>
<path d="M2.00133 5.02701C2.00133 4.70006 2.05582 4.384 2.15508 4.08687L1.73004 2.82031H0.522539C0.188145 3.484 0 4.23313 0 5.02701C0 5.8209 0.18873 6.57002 0.522539 7.23371L0.522773 7.23354L2.15508 5.96715C2.05343 5.66412 2.00151 5.34663 2.00133 5.02701Z" fill="#FFBB00"/>
<path d="M4.91504 0.115234C2.99516 0.115234 1.33227 1.21656 0.523438 2.82156L2.15592 4.08812C2.54539 2.92369 3.63295 2.05984 4.91498 2.05984C5.63943 2.05984 6.28824 2.30939 6.80047 2.79695L8.20297 1.39563C7.35119 0.602207 6.24066 0.115234 4.91504 0.115234Z" fill="#FF4031"/>
</svg>
