<svg width="30" height="20" viewBox="0 0 30 20" fill="none" xmlns="http://www.w3.org/2000/svg">
<path d="M9.375 19.375C14.5527 19.375 18.75 15.1777 18.75 10C18.75 4.82233 14.5527 0.625 9.375 0.625C4.19733 0.625 0 4.82233 0 10C0 15.1777 4.19733 19.375 9.375 19.375Z" fill="#F93232"/>
<path d="M20.625 0.625C18.5194 0.625 16.5825 1.32812 15.0188 2.5H15V2.51312C14.6288 2.7925 14.2875 3.1075 13.9622 3.4375H16.0378C16.3266 3.73094 16.5928 4.045 16.8394 4.375H13.1531C12.926 4.67459 12.7171 4.98766 12.5278 5.3125H17.4628C17.6391 5.61625 17.805 5.92562 17.9484 6.25H12.0506C11.9159 6.55586 11.7979 6.86882 11.6972 7.1875H18.3009C18.3984 7.49312 18.4753 7.80719 18.5428 8.125H11.4525C11.3897 8.4325 11.3372 8.74375 11.3053 9.0625H18.6938C18.7303 9.37 18.75 9.68219 18.75 10H11.25C11.25 10.3178 11.2753 10.6281 11.3063 10.9375H18.6956C18.66 11.2553 18.6084 11.5675 18.5438 11.875H11.4534C11.5181 12.1947 11.6016 12.5059 11.6981 12.8125H18.3019C18.2011 13.1312 18.0832 13.4441 17.9484 13.75H12.0506C12.1922 14.0725 12.3516 14.3856 12.5278 14.6875H17.4628C17.2732 15.0126 17.0637 15.3257 16.8356 15.625H13.1531C13.4025 15.955 13.6716 16.2691 13.9613 16.5625H16.0378C15.7151 16.8958 15.3682 17.2047 15 17.4869C16.6191 18.7125 18.5943 19.3755 20.625 19.375C25.8028 19.375 30 15.1769 30 10C30 4.82313 25.8028 0.625 20.625 0.625Z" fill="#FED049"/>
</svg>
