<svg width="105" height="38" viewBox="0 0 105 38" fill="none" xmlns="http://www.w3.org/2000/svg">
<g clip-path="url(#clip0_2001_1101)">
<path fill-rule="evenodd" clip-rule="evenodd" d="M45.9629 6.36067H48.1716C48.9761 6.36067 49.3817 6.75826 49.3817 7.65609V10.8368H53.7077V7.65609C53.7077 6.75826 54.107 6.36067 55.0146 6.36067H57.1265V8.45128H56.2248L56.1221 8.55345V17.5053H53.7077V13.0296H49.3817V17.5053H46.9673V8.55345C46.9673 8.55345 46.9673 8.45128 46.8647 8.45128H45.9629V6.36067ZM63.4613 6.16211L63.516 6.16789V8.46333L63.4613 8.45128C61.6524 8.45128 60.2424 9.94526 60.2424 11.8368C60.2424 13.8248 61.6524 15.4152 63.4613 15.4152L63.516 15.4031V17.6981L63.4613 17.7043C60.2424 17.7043 57.6285 15.1197 57.6285 11.8368C57.6285 8.64983 60.2424 6.16211 63.4613 6.16211Z" fill="#ED1C24"/>
<path fill-rule="evenodd" clip-rule="evenodd" d="M63.5155 6.16797L64.6351 6.2764C67.2916 6.79448 69.2941 9.0475 69.2941 11.8369C69.2941 14.7044 67.2916 17.0475 64.6351 17.5839L63.516 17.6981V15.4032L64.744 15.1381C65.93 14.596 66.7833 13.3246 66.7833 11.8369C66.7833 10.4152 65.93 9.22244 64.744 8.71642L63.516 8.4634L63.5155 6.16797ZM69.7965 6.36074H74.776V8.45135H73.2149V10.7405H74.776V12.7285H73.2149V15.2162C73.2149 15.3189 73.2149 15.3189 73.318 15.3189H74.776V17.5054H72.0111C71.2061 17.5054 70.8068 17.1078 70.8068 16.2104V8.45135H69.7965V6.36074ZM74.776 6.36074H74.8244C77.0389 6.36074 78.3458 7.55352 78.3458 9.34871C78.3458 10.4393 77.8439 11.1381 77.3414 11.6379C78.249 12.0355 78.8483 13.0297 78.8483 14.1198C78.8483 16.2104 77.2388 17.5054 74.9275 17.5054H74.776V15.3189H75.0243C75.8288 15.3189 76.337 14.8186 76.337 14.0234C76.337 13.2282 75.8288 12.7285 75.0243 12.7285H74.776V10.7405H74.8244C75.5325 10.7405 75.9319 10.2403 75.9319 9.54774C75.9319 8.84895 75.5325 8.45135 74.8244 8.45135H74.776V6.36074ZM83.4768 6.36074H84.6811V9.54774C84.5843 9.7463 84.4812 10.0417 84.4812 10.3429L83.6767 12.6321H84.6811V14.7164H83.0774L82.3697 16.5116C82.1698 17.2042 81.7705 17.5054 80.966 17.5054H79.4533V15.3189H79.9553C80.161 15.3189 80.161 15.3189 80.2578 15.2162L83.4768 6.36074ZM84.6811 6.36074H85.8912L89.1101 15.2162C89.2069 15.3189 89.2069 15.3189 89.4064 15.3189H89.812V17.5054H88.402C87.5975 17.5054 87.1981 17.2042 86.9924 16.409L86.2905 14.7164H84.6811V12.6321H85.6855L84.8868 10.3429C84.8868 10.0417 84.7837 9.7463 84.6811 9.54774V6.36074ZM45.9629 20.6861H54.7121C55.5171 20.6861 56.019 21.0837 56.019 21.9815V29.5416C56.019 29.638 56.019 29.638 56.1221 29.638H56.9266V31.8307H54.8152C53.9076 31.8307 53.5083 31.4331 53.5083 30.5358V22.8789C53.5083 22.8789 53.5083 22.7767 53.4052 22.7767H49.3817V31.8307H46.9673V22.7767H45.9629V20.6861ZM63.2619 20.4876L63.3103 20.4933V22.7888L63.2619 22.7767C61.4467 22.7767 60.0429 24.2707 60.0429 26.1623C60.0429 28.1502 61.4467 29.7406 63.2619 29.7406L63.3103 29.7286V32.0235L63.2619 32.0298C60.0429 32.0298 57.5259 29.4394 57.5259 26.1623C57.5259 22.9753 60.0429 20.4876 63.2619 20.4876ZM63.3103 20.4933L64.4657 20.6018C67.1706 21.1198 69.0947 23.3729 69.0947 26.1623C69.0947 29.0298 67.1706 31.3729 64.4657 31.9093L63.3103 32.0235V29.7286L64.5867 29.4635C65.791 28.9213 66.5834 27.65 66.5834 26.1623C66.5834 24.7406 65.791 23.5478 64.5867 23.0418L63.3103 22.7888V20.4933ZM69.5966 20.6861H71.8112C72.6161 20.6861 73.0155 21.0837 73.0155 21.9815V29.5416C73.0155 29.638 73.0155 29.638 73.1181 29.638H76.0345V20.6861H78.4489V29.638H81.3653C81.468 29.638 81.468 29.638 81.468 29.5416V21.9815C81.468 21.0837 81.8673 20.6861 82.6723 20.6861H84.8868V22.7767H83.9792C83.8761 22.7767 83.8761 22.8789 83.8761 22.8789V30.5358C83.8761 31.4331 83.4768 31.8307 82.6723 31.8307H71.908C71.0067 31.8307 70.601 31.4331 70.601 30.5358V22.8789C70.601 22.8789 70.601 22.7767 70.5042 22.7767H69.5966V20.6861ZM86.7925 20.6861H94.3379C95.2455 20.6861 95.548 21.0837 95.548 21.8789V23.7705H93.3335V22.8789C93.3335 22.7767 93.3335 22.7767 93.2304 22.7767H91.8266V31.8307H89.4064V22.7767H88.0026C87.9 22.7767 87.9 22.7767 87.9 22.8789V23.7705H85.685V21.8789C85.685 21.0837 85.988 20.6861 86.7925 20.6861ZM98.6638 20.6861H99.8681V23.8731C99.7416 24.1196 99.6732 24.3915 99.6682 24.6683L98.8637 26.9575H99.8681V29.0418H98.2587L97.5568 30.7343C97.3569 31.5295 96.9517 31.8307 96.1468 31.8307H94.6404V29.638H95.1424C95.3481 29.638 95.3481 29.638 95.4449 29.5416L98.6638 20.6861Z" fill="#ED1C24"/>
<path fill-rule="evenodd" clip-rule="evenodd" d="M99.8681 20.6859H101.072L104.298 29.5413C104.394 29.6377 104.394 29.6377 104.6 29.6377H105V31.8305H103.589C102.785 31.8305 102.386 31.5293 102.18 30.7341L101.478 29.0416H99.8681V26.9572H100.873L100.068 24.6681C100.068 24.3669 99.9707 24.0714 99.8681 23.8729V20.6859ZM30.4616 11.1017C30.5768 11.0656 30.7279 11.1379 30.8794 11.3364L37.7161 17.9991C38.1154 18.3967 38.1154 18.9991 37.7161 19.2945L30.8789 26.0594C30.7274 26.2584 30.5763 26.3066 30.4611 26.2464C30.3464 26.1861 30.2738 26.0112 30.2738 25.7582V11.5355C30.2738 11.2882 30.3469 11.1379 30.4616 11.1017ZM18.7655 -0.000976562H19.2496L19.7157 0.191796L26.7528 7.15568C27.0554 7.55328 26.9523 7.85448 26.4503 7.85448H23.5339C23.4153 7.85372 23.2977 7.87641 23.1879 7.92126C23.0781 7.96611 22.9784 8.03222 22.8945 8.11574C22.8106 8.19927 22.7442 8.29855 22.6992 8.40783C22.6541 8.5171 22.6313 8.6342 22.6321 8.75232V13.921C22.6321 14.4208 22.227 14.8184 21.6219 14.8184H16.4968C16.3779 14.8192 16.26 14.7966 16.1499 14.7519C16.0399 14.7071 15.9398 14.6412 15.8554 14.5578C15.771 14.4744 15.7041 14.3752 15.6584 14.2659C15.6127 14.1566 15.5892 14.0394 15.5892 13.921V8.75232C15.5898 8.63376 15.5667 8.51628 15.5212 8.4067C15.4757 8.29713 15.4088 8.19767 15.3243 8.1141C15.2398 8.03054 15.1395 7.96454 15.0292 7.91997C14.9188 7.8754 14.8007 7.85314 14.6816 7.85448H11.5658C11.0633 7.85448 10.9607 7.55328 11.2632 7.15568L18.3062 0.191796L18.7655 -0.000976562ZM7.74177 10.9509C7.86859 11.0111 7.94749 11.1861 7.94749 11.4391V25.9572C7.94749 26.2102 7.86859 26.3606 7.74177 26.4088C7.62076 26.457 7.44505 26.4088 7.23933 26.2584L0.299506 19.2945C-0.0998353 18.9991 -0.0998353 18.3967 0.299506 17.9991L7.23933 11.1379C7.44505 10.9388 7.62076 10.8906 7.74177 10.9509ZM16.4968 22.3789H21.6219C22.227 22.3789 22.6321 22.7765 22.6321 23.2762V28.7461C22.6321 29.3428 23.0315 29.7404 23.5339 29.7404H26.2504C26.7528 29.7404 26.9523 30.0353 26.5529 30.3365L19.7157 37.1982C19.51 37.3968 19.2622 37.4994 19.008 37.4994C18.8769 37.4976 18.7474 37.47 18.627 37.4183C18.5066 37.3667 18.3976 37.2919 18.3062 37.1982L11.469 30.3365C11.0633 30.0353 11.2632 29.7404 11.7652 29.7404H14.6816C15.1899 29.7404 15.5892 29.3428 15.5892 28.7461V23.2762C15.5892 22.7765 15.9948 22.3789 16.4968 22.3789Z" fill="#ED1C24"/>
</g>
<defs>
<clipPath id="clip0_2001_1101">
<rect width="105" height="37.5" fill="white"/>
</clipPath>
</defs>
</svg>
