<svg width="30" height="14" viewBox="0 0 30 14" fill="none" xmlns="http://www.w3.org/2000/svg">
<path d="M5.66991 2.27781C6.02311 1.83602 6.26276 1.24287 6.19959 0.636719C5.68256 0.662441 5.05163 0.977851 4.68635 1.41994C4.35834 1.79857 4.06807 2.41656 4.14377 2.99728C4.72409 3.04762 5.30399 2.70719 5.66991 2.27781ZM6.19297 3.11066C5.3501 3.06045 4.63344 3.58902 4.2309 3.58902C3.82819 3.58902 3.21178 3.13598 2.5451 3.14816C1.67739 3.16094 0.87225 3.65154 0.431918 4.43183C-0.473766 5.99283 0.192914 8.30834 1.07364 9.57965C1.50131 10.2086 2.01682 10.9012 2.69598 10.8763C3.3377 10.8511 3.58924 10.4607 4.36924 10.4607C5.14871 10.4607 5.3753 10.8763 6.05457 10.8637C6.75905 10.8511 7.19944 10.2344 7.62711 9.60478C8.11778 8.88777 8.31864 8.19549 8.33123 8.15746C8.31858 8.14486 6.97286 7.62859 6.96037 6.08061C6.94766 4.78445 8.01694 4.16787 8.06727 4.12967C7.46352 3.2367 6.52004 3.13598 6.19297 3.11066ZM13.5321 1.35648C15.3641 1.35648 16.6398 2.6193 16.6398 4.45785C16.6398 6.30297 15.3378 7.57234 13.4862 7.57234H11.4579V10.798H9.99237V1.35648H13.5321ZM11.4578 6.34223H13.1393C14.4153 6.34223 15.1414 5.65527 15.1414 4.46441C15.1414 3.27367 14.4153 2.59316 13.1459 2.59316H11.4578V6.34223ZM17.0227 8.84172C17.0227 7.63773 17.9452 6.8984 19.5811 6.80682L21.4654 6.6956V6.16568C21.4654 5.40016 20.9485 4.94213 20.085 4.94213C19.2669 4.94213 18.7565 5.33465 18.6324 5.94977H17.2976C17.3761 4.70652 18.436 3.79053 20.1372 3.79053C21.8056 3.79053 22.8721 4.67383 22.8721 6.05436V10.798H21.5176V9.66607H21.4851C21.086 10.4317 20.2157 10.9158 19.3128 10.9158C17.9649 10.9158 17.0227 10.0782 17.0227 8.84172ZM21.4653 8.22016V7.67711L19.7707 7.78176C18.9266 7.8407 18.449 8.21365 18.449 8.80252C18.449 9.40439 18.9463 9.79703 19.7053 9.79703C20.6932 9.79691 21.4653 9.11646 21.4653 8.22016ZM24.1507 13.3302V12.1851C24.2553 12.2113 24.4907 12.2113 24.6086 12.2113C25.2628 12.2113 25.6162 11.9365 25.832 11.2299C25.832 11.2168 25.9565 10.8111 25.9565 10.8045L23.4702 3.9148H25.0011L26.7417 9.5156H26.7678L28.5084 3.9148H30L27.4219 11.1578C26.8333 12.8264 26.1528 13.3629 24.7264 13.3629C24.6086 13.3629 24.2552 13.3497 24.1507 13.3302Z" fill="black"/>
</svg>
