<svg width="141" height="37" viewBox="0 0 141 37" fill="none" xmlns="http://www.w3.org/2000/svg">
<g clip-path="url(#clip0_2001_4705)">
<path d="M25.2643 22.1248L13.0176 19.3534C9.36759 18.5274 7.07791 14.8987 7.90367 11.2485C8.72991 7.59821 12.3586 5.30901 16.0086 6.13477C19.6588 6.96083 21.9483 10.5894 21.1225 14.2394C20.7087 16.0669 19.5923 17.552 18.1226 18.4771C18.1223 18.4771 18.1188 18.4801 18.1174 18.4808C18.0954 18.4966 18.0774 18.5173 18.0651 18.5414C18.0527 18.5655 18.0462 18.5921 18.0462 18.6192C18.0462 18.6988 18.1012 18.7657 18.1754 18.7836C18.1757 18.7838 23.6231 20.0156 23.624 20.0156C23.6874 20.0299 23.7535 20.0256 23.8144 20.0033C23.8754 19.981 23.9287 19.9416 23.9679 19.8898C23.9683 19.8888 23.9681 19.8896 23.9681 19.8896C25.4688 17.9038 26.3703 15.4259 26.3703 12.7459C26.3703 6.43449 21.4393 1.27661 15.2197 0.910271C15.1642 0.907204 14.8272 0.894035 14.7133 0.892414C11.9595 0.849182 9.16744 1.6388 6.73947 3.3392C0.607861 7.63248 -0.881856 16.0831 3.41089 22.2145L14.306 37.7744C14.3296 37.8068 14.3606 37.8331 14.3963 37.8512C14.432 37.8694 14.4715 37.8789 14.5115 37.8789C14.5963 37.8789 14.6715 37.8371 14.7178 37.7732L25.4174 22.5144C25.4447 22.474 25.4609 22.4249 25.4609 22.3723C25.461 22.3149 25.4416 22.2591 25.4058 22.2142C25.3701 22.1692 25.3202 22.1377 25.2643 22.1248Z" fill="#FABC26"/>
<path d="M35.7464 8.17539C35.8775 8.17539 35.9643 8.2188 36.0078 8.30592L39.6406 14.5054H39.8144L42.9036 8.39262C42.9687 8.2402 43.0995 8.17539 43.2735 8.17539H45.4923C45.6882 8.17539 45.7966 8.37122 45.7095 8.52321L39.314 19.8354C39.2489 19.9657 39.1186 20.0313 38.9443 20.0313H36.769C36.5296 20.0313 36.5081 19.8788 36.5952 19.7048L38.3134 16.7679L33.1798 8.45816C33.0924 8.30592 33.1579 8.17539 33.3101 8.17539H35.7464ZM49.5293 8.17539C49.7252 8.17539 49.834 8.28386 49.834 8.47974V13.1322L54.729 8.34915C54.8593 8.2402 55.055 8.17539 55.2943 8.17539H57.9483C58.1441 8.17539 58.2096 8.34915 58.057 8.50157L52.8576 13.3745L58.3834 19.7048C58.5356 19.8568 58.449 20.0313 58.2531 20.0313H55.6426C55.4033 20.0313 55.2295 19.9657 55.0984 19.8133L50.9587 14.9303L49.834 15.9764V19.7264C49.834 19.9223 49.7252 20.0313 49.5293 20.0313H47.6152C47.4193 20.0313 47.3108 19.9223 47.3108 19.7264V8.47974C47.3108 8.28386 47.4193 8.17539 47.6152 8.17539H49.5293ZM65.5969 14.4838C66.9238 14.4838 67.685 13.6573 67.685 12.5044C67.685 11.373 66.9238 10.5684 65.5969 10.5684H62.4421V14.4838H65.5969ZM65.5969 8.17515C68.2286 8.17515 70.2079 10.0676 70.2079 12.5044C70.2079 15.0277 68.2286 16.8768 65.5969 16.8768H62.4421V19.7264C62.4421 19.9221 62.3333 20.031 62.1379 20.031H60.2232C60.0275 20.031 59.9185 19.9221 59.9185 19.7264V8.47974C59.9185 8.28386 60.0275 8.17515 60.2232 8.17515H65.5969ZM82.0988 8.17539C82.2942 8.17539 82.4036 8.28386 82.4036 8.47974V19.7264C82.4036 19.9223 82.2942 20.0313 82.0988 20.0313H80.1838C79.989 20.0313 79.8796 19.9223 79.8796 19.7264V10.5463H74.615V19.7264C74.615 19.9223 74.5062 20.0313 74.3108 20.0313H72.3964C72.2004 20.0313 72.0916 19.9223 72.0916 19.7264V8.47974C72.0916 8.28386 72.2004 8.17539 72.3964 8.17539H82.0988ZM87.195 14.1139C87.195 16.2676 88.7174 17.8334 90.8927 17.8334C93.047 17.8334 94.5699 16.2676 94.5699 14.1139C94.5699 11.9167 93.047 10.3723 90.8927 10.3723C88.7174 10.3723 87.195 11.9167 87.195 14.1139ZM90.8927 8.00085C94.3084 8.00085 97.115 10.6332 97.115 14.1139C97.115 17.6162 94.3084 20.2051 90.8927 20.2051C87.4559 20.2051 84.6499 17.6162 84.6499 14.1139C84.6499 10.6332 87.4559 8.00085 90.8927 8.00085ZM105.561 17.6601V8.4795C105.561 8.2841 105.67 8.17539 105.866 8.17539H107.737C107.933 8.17539 108.042 8.2841 108.042 8.4795V17.6601H111.761V8.4795C111.761 8.2841 111.87 8.17539 112.066 8.17539H113.937C114.133 8.17539 114.241 8.2841 114.241 8.4795V19.7264C114.241 19.9223 114.133 20.0313 113.937 20.0313H99.6661C99.514 20.0313 99.3613 19.9223 99.3613 19.7264V8.4795C99.3613 8.2841 99.4695 8.17539 99.6661 8.17539H101.537C101.733 8.17539 101.841 8.2841 101.841 8.4795V17.6601H105.561ZM126.33 8.17539C126.525 8.17539 126.634 8.28386 126.634 8.47974V10.2635C126.634 10.4594 126.525 10.5679 126.33 10.5679H122.544V19.7264C122.544 19.9223 122.435 20.0313 122.239 20.0313H120.325C120.13 20.0313 120.021 19.9223 120.021 19.7264V10.5679H116.235C116.04 10.5679 115.931 10.4594 115.931 10.2635V8.47974C115.931 8.28386 116.04 8.17539 116.235 8.17539H126.33ZM130.634 15.3977H134.767L132.853 10.525H132.614L130.634 15.3977ZM135.638 17.6817H129.72L128.894 19.7698C128.829 19.9441 128.699 20.031 128.524 20.031H126.371C126.154 20.031 126.088 19.9221 126.154 19.7264L131.287 8.34939C131.33 8.24045 131.418 8.17515 131.57 8.17515H134.05C134.202 8.17515 134.289 8.24045 134.332 8.34939L139.227 19.6827C139.293 19.8573 139.184 20.031 138.988 20.031H136.921C136.704 20.031 136.551 19.9221 136.464 19.7264L135.638 17.6817Z" fill="#2C2E2C"/>
<path d="M34.8555 30.1962V25.1192H38.1957V25.704H35.5265V30.1962H34.8555ZM39.8409 27.6505C39.8409 28.92 40.5331 29.7399 41.6108 29.7399C42.6743 29.7399 43.3665 28.9124 43.3665 27.6505C43.3665 26.3957 42.6743 25.5828 41.5965 25.5828C40.3975 25.5828 39.8409 26.5666 39.8409 27.6505ZM44.0377 27.6148C44.0377 29.1055 43.2168 30.3174 41.6038 30.3174C39.9767 30.3174 39.1702 29.0766 39.1702 27.6005C39.1702 26.018 40.1192 24.998 41.5965 24.998C43.1738 24.998 44.0377 26.103 44.0377 27.6148ZM49.2899 30.1962H48.6192V25.704H46.7421L46.6423 28.5632C46.6066 29.5832 46.2353 30.3033 45.4647 30.3033C45.3217 30.3033 45.1077 30.2533 44.9793 30.2033V29.6328C45.0723 29.6901 45.2648 29.7044 45.3431 29.7044C45.7071 29.7044 45.9716 29.5046 46.007 28.2137L46.0998 25.1192H49.2899V30.1962ZM51.5439 27.6505C51.5439 28.92 52.236 29.7399 53.3138 29.7399C54.3771 29.7399 55.0694 28.9124 55.0694 27.6505C55.0694 26.3957 54.3771 25.5828 53.2995 25.5828C52.1005 25.5828 51.5439 26.5666 51.5439 27.6505ZM55.7402 27.6148C55.7402 29.1055 54.9198 30.3174 53.3068 30.3174C51.6794 30.3174 50.8726 29.0766 50.8726 27.6005C50.8726 26.018 51.8222 24.998 53.2995 24.998C54.8769 24.998 55.7402 26.103 55.7402 27.6148ZM57.9759 29.6328H59.3179C59.9957 29.6328 60.6594 29.5903 60.6594 28.6989C60.6594 27.8147 59.8815 27.8217 59.2037 27.8217H57.9759V29.6328ZM57.9759 27.294H59.1821C59.7531 27.294 60.4384 27.2512 60.4384 26.4884C60.4384 25.7251 59.8456 25.6897 59.2465 25.6897H57.9759V27.294ZM59.4891 25.1192C60.3313 25.1192 61.1088 25.4545 61.1088 26.3884C61.1088 26.8874 60.8165 27.3156 60.3597 27.4793C60.9878 27.6223 61.3373 28.0925 61.3373 28.7631C61.3373 29.9325 60.3811 30.1962 59.4106 30.1962H57.3194V25.1192H59.4891ZM66.9656 30.1962H66.2946V27.8217H63.6112V30.1962H62.9402V25.1192H63.6112V27.2367H66.2946V25.1192H66.9656V30.1962ZM70.7126 25.7608L69.8348 28.1071H71.5766L70.7126 25.7608ZM73.0893 30.1962H72.3402L71.7762 28.6419H69.6423L69.0645 30.1962H68.3503L70.3488 25.1192H71.1052L73.0893 30.1962ZM81.3619 30.1962H80.6909V25.704H78.0075V30.1962H77.3365V25.1192H81.3619V30.1962ZM83.622 27.6505C83.622 28.92 84.3141 29.7399 85.3915 29.7399C86.4551 29.7399 87.1471 28.9124 87.1471 27.6505C87.1471 26.3957 86.4551 25.5828 85.3777 25.5828C84.1782 25.5828 83.622 26.5666 83.622 27.6505ZM87.8181 27.6148C87.8181 29.1055 86.9974 30.3174 85.3849 30.3174C83.7573 30.3174 82.951 29.0766 82.951 27.6005C82.951 26.018 83.8998 24.998 85.3777 24.998C86.9547 24.998 87.8181 26.103 87.8181 27.6148ZM89.3976 25.1192H90.0686V29.6116H92.3239V25.1192H92.9943V29.6116H95.2496V25.1192H95.9206V30.1962H89.3976V25.1192ZM101.431 25.704H99.7253V30.1962H99.0543V25.704H97.3486V25.1192H101.431V25.704ZM104.029 25.7608L103.152 28.1071H104.893L104.029 25.7608ZM106.406 30.1962H105.657L105.093 28.6419H102.959L102.381 30.1962H101.667L103.665 25.1192H104.422L106.406 30.1962ZM112.637 27.1587L114.864 30.1962H114.007L112.166 27.6148L111.324 28.4138V30.1962H110.653V25.1192H111.324V27.6364L113.9 25.1192H114.778L112.637 27.1587ZM116.951 27.5507H118.243C118.893 27.5507 119.392 27.3725 119.392 26.624C119.392 25.8108 118.814 25.6967 118.15 25.6967H116.951V27.5507ZM118.371 25.1192C119.342 25.1192 120.063 25.5255 120.063 26.581C120.063 27.7292 119.321 28.1142 118.329 28.1142H116.951V30.1962H116.28V25.1192H118.371ZM123.032 25.7608L122.154 28.1071H123.895L123.032 25.7608ZM125.408 30.1962H124.659L124.095 28.6419H121.961L121.383 30.1962H120.669L122.667 25.1192H123.424L125.408 30.1962ZM128.139 24.6842H127.496V23.9641H128.139V24.6842ZM127.475 30.1962H126.804V25.1192H127.475V30.1962ZM126.789 24.6842H126.147V23.9641H126.789V24.6842ZM133.356 30.1962H132.686V27.8217H130.002V30.1962H129.331V25.1192H130.002V27.2367H132.686V25.1192H133.356V30.1962ZM135.203 25.1192H135.874V29.4191H135.888L138.379 25.1192H139.228V30.1962H138.558V25.882H138.543L136.045 30.1962H135.203V25.1192Z" fill="#617171"/>
</g>
<defs>
<clipPath id="clip0_2001_4705">
<rect width="140" height="37" fill="white" transform="translate(0.333984)"/>
</clipPath>
</defs>
</svg>
