<svg width="30" height="10" viewBox="0 0 30 10" fill="none" xmlns="http://www.w3.org/2000/svg">
<path d="M11.3908 0.326641L7.46379 9.69731H4.90066L2.96953 2.21975C2.85064 1.75861 2.74904 1.5908 2.39256 1.39498C1.80861 1.07928 0.848086 0.783144 0 0.598691L0.0593555 0.326699H4.18313C4.70906 0.326699 5.18191 0.6775 5.3008 1.28225L6.32191 6.7058L8.84402 0.326699L11.3908 0.326641ZM21.4306 6.63649C21.442 4.16465 18.0103 4.03012 18.035 2.92428C18.0417 2.58672 18.3616 2.22953 19.0622 2.13936C19.4102 2.09307 20.3677 2.05914 21.4529 2.55736L21.8782 0.571152C21.2943 0.359218 20.5438 0.15625 19.611 0.15625C17.2151 0.15625 15.5285 1.43061 15.5143 3.25398C15.4986 4.60234 16.7176 5.3548 17.6371 5.80387C18.5813 6.26336 18.897 6.55674 18.8937 6.96883C18.8875 7.59777 18.1403 7.87264 17.4434 7.885C16.2244 7.90399 15.5173 7.55559 14.9527 7.29262L14.5138 9.34709C15.0794 9.60678 16.1266 9.83225 17.2103 9.84555C19.7568 9.84543 21.4226 8.58467 21.4306 6.63649ZM27.7575 9.69736H30L28.0433 0.326699H25.9731C25.5079 0.326699 25.1157 0.597989 24.941 1.01359L21.3057 9.69736H23.8502L24.3553 8.29791H27.4655L27.7575 9.69736ZM25.0526 6.37727L26.3291 2.85871L27.0635 6.37727H25.0526ZM14.855 0.326641L12.8493 9.69731H10.4248L12.4309 0.326641H14.855Z" fill="#1A2ADF"/>
</svg>
