<svg width="70" height="70" viewBox="0 0 70 70" fill="none" xmlns="http://www.w3.org/2000/svg">
<g clip-path="url(#clip0_2059_437)">
<g >
<path d="M47.9883 39.512C47.6458 39.849 47.3894 40.2634 47.2407 40.7202C47.092 41.1771 47.0553 41.663 47.1339 42.137L48.6574 51.0311C49.0898 53.4605 46.5471 55.2929 44.3648 54.1708L36.3868 49.9502C35.5118 49.4973 34.4824 49.4973 33.6177 49.9502L25.6295 54.1708C24.775 54.6135 23.8589 54.5929 23.0868 54.2635C21.9133 53.7591 21.0795 52.5032 21.3368 51.0311L21.8721 47.9017L22.8603 42.137C22.9389 41.663 22.9022 41.1771 22.7535 40.7202C22.6048 40.2634 22.3484 39.849 22.0059 39.512L15.5309 33.2017C13.7809 31.4929 14.7486 28.5179 17.1677 28.1576L26.1236 26.8605C27.0912 26.7267 27.9045 26.1194 28.3471 25.2341L32.3515 17.1429C33.4324 14.9399 36.5618 14.9399 37.6427 17.1429L39.0942 20.087L41.6471 25.2341C41.7809 25.5017 41.9559 25.7488 42.1412 25.9547C42.5942 26.4488 43.2015 26.7576 43.8706 26.8605L52.8265 28.1576C55.2456 28.5179 56.2133 31.4929 54.4633 33.2017L47.9883 39.512ZM36.4887 2.67657C36.8593 3.04716 37.0951 3.57936 37.0951 4.1723V9.27304C37.0951 9.86701 36.8603 10.3982 36.4887 10.7698C36.2115 11.0482 35.8618 11.2432 35.4793 11.3327C35.0968 11.4223 34.6968 11.4027 34.3249 11.2763C33.4468 10.9675 32.9023 10.0894 32.9023 9.16186V4.28451C32.9023 3.35701 33.4468 2.47892 34.3249 2.16907C34.6969 2.04278 35.0969 2.02338 35.4795 2.1131C35.862 2.20281 36.2116 2.39803 36.4887 2.67657ZM36.4887 59.2304C36.8593 59.601 37.0951 60.1332 37.0951 60.7272V65.8269C37.0951 66.4208 36.8603 66.953 36.4887 67.3236C36.2116 67.6022 35.862 67.7974 35.4795 67.8871C35.0969 67.9768 34.6969 67.9574 34.3249 67.8311C33.4468 67.5223 32.9023 66.6442 32.9023 65.7157V60.8383C32.9023 59.9108 33.4468 59.0327 34.3249 58.7239C34.6968 58.5975 35.0968 58.5779 35.4793 58.6675C35.8618 58.757 36.2115 58.952 36.4887 59.2304ZM13.1973 11.093C13.7223 11.093 14.2637 11.303 14.6837 11.723L18.2898 15.3291C18.7098 15.7491 18.9198 16.2916 18.9198 16.8155C18.9198 17.568 18.5183 18.3195 17.7483 18.7045C16.9083 19.107 15.9026 18.8713 15.2468 18.2155L11.7983 14.767C11.1415 14.1102 10.9058 13.1045 11.3083 12.2655C11.4819 11.9129 11.7509 11.6161 12.0849 11.4088C12.4188 11.2015 12.8042 11.0921 13.1973 11.093ZM53.1858 51.0805C53.7108 51.0805 54.2523 51.2905 54.6723 51.7105L58.2783 55.3166C58.6983 55.7366 58.9083 56.2791 58.9083 56.803C58.9083 57.5545 58.5068 58.307 57.7358 58.692C56.8968 59.0945 55.8911 58.8588 55.2343 58.202L51.7858 54.7535C51.13 54.0977 50.8943 53.092 51.2968 52.252C51.4706 51.8996 51.7397 51.603 52.0736 51.3959C52.4075 51.1888 52.7929 51.0795 53.1858 51.0805ZM2.67873 33.5147C3.04932 33.1441 3.58152 32.9083 4.17549 32.9083H9.2752C9.83463 32.9037 10.373 33.1214 10.772 33.5136C11.0505 33.7909 11.2457 34.1408 11.3352 34.5235C11.4247 34.9062 11.4051 35.3064 11.2784 35.6785C10.9696 36.5566 10.0915 37.1011 9.16402 37.1011H4.28667C3.35917 37.1011 2.48108 36.5566 2.17226 35.6785C2.04584 35.3065 2.02628 34.9066 2.11581 34.5241C2.20534 34.1416 2.40037 33.7919 2.67873 33.5147ZM59.2284 33.5126C59.599 33.142 60.1312 32.9063 60.7252 32.9063H65.8249C66.3843 32.9017 66.9227 33.1194 67.3217 33.5116C67.6002 33.7889 67.7954 34.1388 67.8849 34.5215C67.9744 34.9042 67.9548 35.3043 67.8281 35.6764C67.5193 36.5545 66.6412 37.098 65.7137 37.098H60.8364C59.9099 37.098 59.0308 36.5545 58.722 35.6775C58.5953 35.3054 58.5757 34.9052 58.6652 34.5225C58.7547 34.1398 58.9499 33.7899 59.2284 33.5126ZM11.0952 56.8051C11.0952 56.2801 11.3052 55.7386 11.7252 55.3186L15.3302 51.7126C15.7226 51.3139 16.2573 51.0873 16.8167 51.0826C17.5692 51.0826 18.3206 51.4841 18.7056 52.2541C19.1081 53.093 18.8724 54.0988 18.2167 54.7555L14.7681 58.2041C14.1124 58.8598 13.1067 59.0955 12.2667 58.6941C11.9142 58.5203 11.6176 58.2512 11.4105 57.9173C11.2034 57.5834 11.0942 57.198 11.0952 56.8051ZM51.0796 16.8166C51.0796 16.2916 51.2896 15.7501 51.7096 15.3311L55.3156 11.7241C55.708 11.3253 56.2427 11.0987 56.8021 11.0941C57.5536 11.0941 58.305 11.4966 58.6911 12.2666C59.0925 13.1055 58.8568 14.1113 58.2011 14.768L54.7525 18.2166C54.0968 18.8723 53.0911 19.108 52.2511 18.7055C51.8986 18.5318 51.602 18.2627 51.3949 17.9288C51.1878 17.5948 51.0786 17.2095 51.0796 16.8166Z" fill="#FFD80C"/>
</g>
<g filter="url(#filter1_d_2059_437)">
<path d="M47.9894 39.512C47.6469 39.849 47.3905 40.2634 47.2418 40.7203C47.0931 41.1771 47.0564 41.663 47.1349 42.137L48.6585 51.0312C49.0908 53.4606 46.5482 55.2929 44.3658 54.1709L36.3879 49.9503C35.5129 49.4973 34.4835 49.4973 33.6188 49.9503L25.6305 54.1709C24.7761 54.6135 23.8599 54.5929 23.0879 54.2635C31.0123 44.0826 36.9633 32.9794 39.0952 20.087L41.6482 25.2341C41.782 25.5017 41.957 25.7488 42.1423 25.9547C42.5952 26.4488 43.2026 26.7576 43.8717 26.8606L52.8276 28.1576C55.2467 28.5179 56.2144 31.4929 54.4644 33.2017L47.9894 39.512Z" fill="#FFBE00"/>
</g>
</g>
<defs>
<filter id="filter0_d_2059_437" x="-10.2595" y="-10.2624" width="90.5199" height="90.525" filterUnits="userSpaceOnUse" color-interpolation-filters="sRGB">
<feFlood flood-opacity="0" result="BackgroundImageFix"/>
<feColorMatrix in="SourceAlpha" type="matrix" values="0 0 0 0 0 0 0 0 0 0 0 0 0 0 0 0 0 0 127 0" result="hardAlpha"/>
<feOffset/>
<feGaussianBlur stdDeviation="6.16"/>
<feComposite in2="hardAlpha" operator="out"/>
<feColorMatrix type="matrix" values="0 0 0 0 1 0 0 0 0 0.854902 0 0 0 0 0.388235 0 0 0 1 0"/>
<feBlend mode="normal" in2="BackgroundImageFix" result="effect1_dropShadow_2059_437"/>
<feBlend mode="normal" in="SourceGraphic" in2="effect1_dropShadow_2059_437" result="shape"/>
</filter>
<filter id="filter1_d_2059_437" x="10.7679" y="7.76704" width="56.9095" height="59.0618" filterUnits="userSpaceOnUse" color-interpolation-filters="sRGB">
<feFlood flood-opacity="0" result="BackgroundImageFix"/>
<feColorMatrix in="SourceAlpha" type="matrix" values="0 0 0 0 0 0 0 0 0 0 0 0 0 0 0 0 0 0 127 0" result="hardAlpha"/>
<feOffset/>
<feGaussianBlur stdDeviation="6.16"/>
<feComposite in2="hardAlpha" operator="out"/>
<feColorMatrix type="matrix" values="0 0 0 0 1 0 0 0 0 0.854902 0 0 0 0 0.388235 0 0 0 1 0"/>
<feBlend mode="normal" in2="BackgroundImageFix" result="effect1_dropShadow_2059_437"/>
<feBlend mode="normal" in="SourceGraphic" in2="effect1_dropShadow_2059_437" result="shape"/>
</filter>
<clipPath id="clip0_2059_437">
<rect width="70" height="70" fill="white"/>
</clipPath>
</defs>
</svg>
