<svg width="18" height="12" viewBox="0 0 18 12" fill="none" xmlns="http://www.w3.org/2000/svg">
<path d="M17.6896 11.7931H0.310359C0.228049 11.7931 0.149114 11.7604 0.0909123 11.7022C0.0327107 11.644 9.32209e-06 11.5651 0 11.4827L0 0.310359C9.32209e-06 0.228049 0.0327107 0.149114 0.0909123 0.0909122C0.149114 0.0327107 0.228049 9.32209e-06 0.310359 0H17.6896C17.7719 9.32209e-06 17.8509 0.0327107 17.9091 0.0909122C17.9673 0.149114 18 0.228049 18 0.310359V11.4827C18 11.5651 17.9673 11.644 17.9091 11.7022C17.8509 11.7604 17.7719 11.7931 17.6896 11.7931Z" fill="#F5F5F5"/>
<path d="M18 0.907205H0V0.310359C9.32209e-06 0.228049 0.0327107 0.149114 0.0909123 0.0909122C0.149114 0.0327107 0.228049 9.32209e-06 0.310359 0H17.6896C17.7719 9.32209e-06 17.8509 0.0327107 17.9091 0.0909122C17.9673 0.149114 18 0.228049 18 0.310359L18 0.907205ZM0 3.62865H18V4.53582H0V3.62865ZM0 1.81423H18V2.7214H0V1.81423ZM18 6.35016H0.310359C0.228049 6.35015 0.149114 6.31745 0.0909123 6.25924C0.0327107 6.20104 9.32209e-06 6.12211 0 6.0398L0 5.44295H18V6.35016ZM0 9.07188H18V9.97905H0V9.07188ZM17.6896 11.7931H0.310359C0.228049 11.7931 0.149114 11.7604 0.0909123 11.7022C0.0327107 11.644 9.32209e-06 11.5651 0 11.4827L0 10.8859H18V11.4828C18 11.5651 17.9673 11.644 17.909 11.7022C17.8508 11.7604 17.7719 11.7931 17.6896 11.7931ZM0 7.25747H18V8.16464H0V7.25747Z" fill="#FF4B55"/>
<path d="M8.06896 7.62939e-05H0.310359C0.228053 7.62934e-05 0.149117 0.0327698 0.0909146 0.0909659C0.0327119 0.149162 9.32333e-06 0.228094 0 0.3104L0 6.03981C9.32211e-06 6.12212 0.0327108 6.20106 0.0909125 6.25926C0.149114 6.31746 0.22805 6.35016 0.310359 6.35017H8.06899C8.1513 6.35016 8.23024 6.31746 8.28844 6.25926C8.34664 6.20106 8.37934 6.12212 8.37935 6.03981V0.3104C8.37932 0.228094 8.34661 0.149167 8.2884 0.0909742C8.2302 0.0327812 8.15126 8.56105e-05 8.06896 7.62939e-05Z" fill="#41479B"/>
<path d="M0.871395 0.712396L0.940091 0.918411L1.15725 0.920063C1.18538 0.920309 1.19701 0.956169 1.17441 0.972868L0.999716 1.10189L1.06525 1.30893C1.07375 1.33572 1.0432 1.35793 1.02032 1.34155L0.843657 1.21531L0.666997 1.34159C0.64411 1.35793 0.61363 1.33575 0.622067 1.30896L0.687599 1.10193L0.512907 0.972903C0.490302 0.956169 0.501938 0.920345 0.530063 0.920099L0.747224 0.918446L0.815919 0.712431C0.824778 0.685712 0.862466 0.685712 0.871395 0.712396ZM0.871395 1.79008L0.940091 1.99609L1.15725 1.99774C1.18538 1.99799 1.19701 2.03385 1.17441 2.05055L0.999716 2.17957L1.06525 2.38661C1.07375 2.4134 1.0432 2.43561 1.02032 2.41923L0.843657 2.29298L0.666997 2.41927C0.64411 2.43561 0.61363 2.41343 0.622067 2.38664L0.687599 2.17961L0.512907 2.05058C0.490302 2.03385 0.501938 1.99802 0.530063 1.99778L0.747224 1.99613L0.815919 1.79011C0.824778 1.76343 0.862466 1.76343 0.871395 1.79008ZM0.871395 2.86775L0.940091 3.07377L1.15725 3.07542C1.18538 3.07567 1.19701 3.11153 1.17441 3.12823L0.999716 3.25725L1.06525 3.46429C1.07375 3.49107 1.0432 3.51329 1.02032 3.49691L0.843657 3.37066L0.666997 3.49695C0.64411 3.51329 0.61363 3.49111 0.622067 3.46432L0.687599 3.25729L0.512907 3.12826C0.490302 3.11153 0.501938 3.0757 0.530063 3.07546L0.747224 3.07381L0.815919 2.86779C0.824778 2.84111 0.862466 2.84111 0.871395 2.86775ZM0.871395 3.94547L0.940091 4.15148L1.15725 4.15314C1.18538 4.15338 1.19701 4.18924 1.17441 4.20594L0.999716 4.33497L1.06525 4.542C1.07375 4.56879 1.0432 4.59101 1.02032 4.57463L0.843657 4.44838L0.666997 4.57466C0.64411 4.59101 0.61363 4.56882 0.622067 4.54204L0.687599 4.335L0.512907 4.20598C0.490302 4.18924 0.501938 4.15342 0.530063 4.15317L0.747224 4.15152L0.815919 3.9455C0.824778 3.91879 0.862466 3.91879 0.871395 3.94547ZM0.871395 5.02315L0.940091 5.22916L1.15725 5.23082C1.18538 5.23106 1.19701 5.26692 1.17441 5.28362L0.999716 5.41264L1.06525 5.61968C1.07375 5.64647 1.0432 5.66869 1.02032 5.65231L0.843657 5.52606L0.666997 5.65234C0.64411 5.66869 0.61363 5.6465 0.622067 5.61972L0.687599 5.41268L0.512907 5.28366C0.490302 5.26692 0.501938 5.2311 0.530063 5.23085L0.747224 5.2292L0.815919 5.02318C0.824778 4.99643 0.862466 4.99643 0.871395 5.02315ZM1.70787 1.24076L1.77656 1.44677L1.99372 1.44843C2.02185 1.44867 2.03349 1.48453 2.01088 1.50123L1.83619 1.63025L1.90172 1.83729C1.91023 1.86408 1.87968 1.8863 1.85679 1.86991L1.68013 1.74363L1.50347 1.86991C1.48058 1.88626 1.4501 1.86408 1.45854 1.83729L1.52407 1.63025L1.34938 1.50123C1.32677 1.4845 1.33841 1.44867 1.36654 1.44843L1.5837 1.44677L1.65239 1.24076C1.66122 1.21411 1.69897 1.21411 1.70787 1.24076ZM1.70787 2.31847L1.77656 2.52449L1.99372 2.52614C2.02185 2.52639 2.03349 2.56225 2.01088 2.57895L1.83619 2.70797L1.90172 2.915C1.91023 2.94179 1.87968 2.96401 1.85679 2.94763L1.68013 2.82135L1.50347 2.94763C1.48058 2.96398 1.4501 2.94183 1.45854 2.915L1.52407 2.70797L1.34938 2.57895C1.32677 2.56221 1.33841 2.52639 1.36654 2.52614L1.5837 2.52449L1.65239 2.31847C1.66122 2.29179 1.69897 2.29179 1.70787 2.31847ZM1.70787 3.39615L1.77656 3.60217L1.99372 3.60382C2.02185 3.60407 2.03349 3.63993 2.01088 3.65663L1.83619 3.78565L1.90172 3.99268C1.91023 4.01947 1.87968 4.04169 1.85679 4.02531L1.68013 3.89903L1.50347 4.02531C1.48058 4.04166 1.4501 4.01947 1.45854 3.99268L1.52407 3.78565L1.34938 3.65663C1.32677 3.63989 1.33841 3.60407 1.36654 3.60382L1.5837 3.60217L1.65239 3.39615C1.66122 3.36947 1.69897 3.36947 1.70787 3.39615ZM1.70787 4.47383L1.77656 4.67985L1.99372 4.6815C2.02185 4.68175 2.03349 4.71761 2.01088 4.7343L1.83619 4.86333L1.90172 5.07036C1.91023 5.09715 1.87968 5.11937 1.85679 5.10299L1.68013 4.97671L1.50347 5.10299C1.48058 5.11934 1.4501 5.09715 1.45854 5.07036L1.52407 4.86333L1.34938 4.7343C1.32677 4.71757 1.33841 4.68175 1.36654 4.6815L1.5837 4.67985L1.65239 4.47383C1.66122 4.44718 1.69897 4.44718 1.70787 4.47383ZM2.54434 0.712396L2.61304 0.918411L2.8302 0.920063C2.85832 0.920309 2.86996 0.956169 2.84735 0.972868L2.67266 1.10189L2.73819 1.30893C2.7467 1.33572 2.71615 1.35793 2.69326 1.34155L2.5166 1.21527L2.33994 1.34155C2.31706 1.3579 2.28658 1.33572 2.29501 1.30893L2.36054 1.10189L2.18585 0.972868C2.16325 0.956134 2.17488 0.920309 2.20301 0.920063L2.42017 0.918411L2.48886 0.712396C2.49772 0.685712 2.53545 0.685712 2.54434 0.712396ZM2.54434 1.79008L2.61304 1.99609L2.8302 1.99774C2.85832 1.99799 2.86996 2.03385 2.84735 2.05055L2.67266 2.17957L2.73819 2.38661C2.7467 2.4134 2.71615 2.43561 2.69326 2.41923L2.5166 2.29295L2.33994 2.41923C2.31706 2.43558 2.28658 2.4134 2.29501 2.38661L2.36054 2.17957L2.18585 2.05055C2.16325 2.03381 2.17488 1.99799 2.20301 1.99774L2.42017 1.99609L2.48886 1.79008C2.49772 1.76343 2.53545 1.76343 2.54434 1.79008ZM2.54434 2.86775L2.61304 3.07377L2.8302 3.07542C2.85832 3.07567 2.86996 3.11153 2.84735 3.12823L2.67266 3.25725L2.73819 3.46429C2.7467 3.49107 2.71615 3.51329 2.69326 3.49691L2.5166 3.37063L2.33994 3.49691C2.31706 3.51326 2.28658 3.49107 2.29501 3.46429L2.36054 3.25725L2.18585 3.12823C2.16325 3.11149 2.17488 3.07567 2.20301 3.07542L2.42017 3.07377L2.48886 2.86775C2.49772 2.84111 2.53545 2.84111 2.54434 2.86775ZM2.54434 3.94547L2.61304 4.15148L2.8302 4.15314C2.85832 4.15338 2.86996 4.18924 2.84735 4.20594L2.67266 4.33497L2.73819 4.542C2.7467 4.56879 2.71615 4.59101 2.69326 4.57463L2.5166 4.44834L2.33994 4.57463C2.31706 4.59097 2.28658 4.56879 2.29501 4.542L2.36054 4.33497L2.18585 4.20594C2.16325 4.18921 2.17488 4.15338 2.20301 4.15314L2.42017 4.15148L2.48886 3.94547C2.49772 3.91879 2.53545 3.91879 2.54434 3.94547ZM2.54434 5.02315L2.61304 5.22916L2.8302 5.23082C2.85832 5.23106 2.86996 5.26692 2.84735 5.28362L2.67266 5.41264L2.73819 5.61968C2.7467 5.64647 2.71615 5.66869 2.69326 5.65231L2.5166 5.52602L2.33994 5.65231C2.31706 5.66865 2.28658 5.64647 2.29501 5.61968L2.36054 5.41264L2.18585 5.28362C2.16325 5.26689 2.17488 5.23106 2.20301 5.23082L2.42017 5.22916L2.48886 5.02315C2.49772 4.99643 2.53545 4.99643 2.54434 5.02315ZM3.38085 1.24076L3.44954 1.44677L3.6667 1.44843C3.69483 1.44867 3.70647 1.48453 3.68386 1.50123L3.50917 1.63025L3.5747 1.83729C3.58321 1.86408 3.55266 1.8863 3.52977 1.86991L3.35311 1.74363L3.17645 1.86991C3.15356 1.88626 3.12308 1.86408 3.13152 1.83729L3.19705 1.63025L3.02236 1.50123C2.99975 1.4845 3.01139 1.44867 3.03952 1.44843L3.25668 1.44677L3.32537 1.24076C3.3342 1.21411 3.37195 1.21411 3.38085 1.24076ZM3.38085 2.31847L3.44954 2.52449L3.6667 2.52614C3.69483 2.52639 3.70647 2.56225 3.68386 2.57895L3.50917 2.70797L3.5747 2.915C3.58321 2.94179 3.55266 2.96401 3.52977 2.94763L3.35311 2.82135L3.17645 2.94763C3.15356 2.96398 3.12308 2.94183 3.13152 2.915L3.19705 2.70797L3.02236 2.57895C2.99975 2.56221 3.01139 2.52639 3.03952 2.52614L3.25668 2.52449L3.32537 2.31847C3.3342 2.29179 3.37195 2.29179 3.38085 2.31847ZM3.38085 3.39615L3.44954 3.60217L3.6667 3.60382C3.69483 3.60407 3.70647 3.63993 3.68386 3.65663L3.50917 3.78565L3.5747 3.99268C3.58321 4.01947 3.55266 4.04169 3.52977 4.02531L3.35311 3.89903L3.17645 4.02531C3.15356 4.04166 3.12308 4.01947 3.13152 3.99268L3.19705 3.78565L3.02236 3.65663C2.99975 3.63989 3.01139 3.60407 3.03952 3.60382L3.25668 3.60217L3.32537 3.39615C3.3342 3.36947 3.37195 3.36947 3.38085 3.39615ZM3.38085 4.47383L3.44954 4.67985L3.6667 4.6815C3.69483 4.68175 3.70647 4.71761 3.68386 4.7343L3.50917 4.86333L3.5747 5.07036C3.58321 5.09715 3.55266 5.11937 3.52977 5.10299L3.35311 4.97671L3.17645 5.10299C3.15356 5.11934 3.12308 5.09715 3.13152 5.07036L3.19705 4.86333L3.02236 4.7343C2.99975 4.71757 3.01139 4.68175 3.03952 4.6815L3.25668 4.67985L3.32537 4.47383C3.3342 4.44718 3.37195 4.44718 3.38085 4.47383ZM4.21732 0.712396L4.28602 0.918411L4.50318 0.920063C4.5313 0.920309 4.54294 0.956169 4.52033 0.972868L4.34564 1.10189L4.41117 1.30893C4.41968 1.33572 4.38913 1.35793 4.36624 1.34155L4.18955 1.21527L4.01289 1.34155C3.99 1.3579 3.95952 1.33572 3.96796 1.30893L4.03349 1.10189L3.8588 0.972868C3.83619 0.956134 3.84783 0.920309 3.87595 0.920063L4.09311 0.918411L4.16181 0.712396C4.1707 0.685712 4.20843 0.685712 4.21732 0.712396ZM4.21732 1.79008L4.28602 1.99609L4.50318 1.99774C4.5313 1.99799 4.54294 2.03385 4.52033 2.05055L4.34564 2.17957L4.41117 2.38661C4.41968 2.4134 4.38913 2.43561 4.36624 2.41923L4.18955 2.29295L4.01289 2.41923C3.99 2.43558 3.95952 2.4134 3.96796 2.38661L4.03349 2.17957L3.8588 2.05055C3.83619 2.03381 3.84783 1.99799 3.87595 1.99774L4.09311 1.99609L4.16181 1.79008C4.1707 1.76343 4.20843 1.76343 4.21732 1.79008ZM4.21732 2.86775L4.28602 3.07377L4.50318 3.07542C4.5313 3.07567 4.54294 3.11153 4.52033 3.12823L4.34564 3.25725L4.41117 3.46429C4.41968 3.49107 4.38913 3.51329 4.36624 3.49691L4.18955 3.37063L4.01289 3.49691C3.99 3.51326 3.95952 3.49107 3.96796 3.46429L4.03349 3.25725L3.8588 3.12823C3.83619 3.11149 3.84783 3.07567 3.87595 3.07542L4.09311 3.07377L4.16181 2.86775C4.1707 2.84111 4.20843 2.84111 4.21732 2.86775ZM4.21732 3.94547L4.28602 4.15148L4.50318 4.15314C4.5313 4.15338 4.54294 4.18924 4.52033 4.20594L4.34564 4.33497L4.41117 4.542C4.41968 4.56879 4.38913 4.59101 4.36624 4.57463L4.18955 4.44834L4.01289 4.57463C3.99 4.59097 3.95952 4.56879 3.96796 4.542L4.03349 4.33497L3.8588 4.20594C3.83619 4.18921 3.84783 4.15338 3.87595 4.15314L4.09311 4.15148L4.16181 3.94547C4.1707 3.91879 4.20843 3.91879 4.21732 3.94547ZM4.21732 5.02315L4.28602 5.22916L4.50318 5.23082C4.5313 5.23106 4.54294 5.26692 4.52033 5.28362L4.34564 5.41264L4.41117 5.61968C4.41968 5.64647 4.38913 5.66869 4.36624 5.65231L4.18955 5.52602L4.01289 5.65231C3.99 5.66865 3.95952 5.64647 3.96796 5.61968L4.03349 5.41264L3.8588 5.28362C3.83619 5.26689 3.84783 5.23106 3.87595 5.23082L4.09311 5.22916L4.16181 5.02315C4.1707 4.99643 4.20843 4.99643 4.21732 5.02315ZM5.05379 1.24076L5.12249 1.44677L5.33965 1.44843C5.36777 1.44867 5.37941 1.48453 5.35681 1.50123L5.18211 1.63025L5.24765 1.83729C5.25615 1.86408 5.2256 1.8863 5.20272 1.86991L5.02606 1.74363L4.8494 1.86991C4.82651 1.88626 4.79603 1.86408 4.80447 1.83729L4.87 1.63025L4.69531 1.50123C4.6727 1.4845 4.68434 1.44867 4.71246 1.44843L4.92962 1.44677L4.99832 1.24076C5.00721 1.21411 5.0449 1.21411 5.05379 1.24076ZM5.05379 2.31847L5.12249 2.52449L5.33965 2.52614C5.36777 2.52639 5.37941 2.56225 5.35681 2.57895L5.18211 2.70797L5.24765 2.915C5.25615 2.94179 5.2256 2.96401 5.20272 2.94763L5.02606 2.82135L4.8494 2.94763C4.82651 2.96398 4.79603 2.94183 4.80447 2.915L4.87 2.70797L4.69531 2.57895C4.6727 2.56221 4.68434 2.52639 4.71246 2.52614L4.92962 2.52449L4.99832 2.31847C5.00721 2.29179 5.0449 2.29179 5.05379 2.31847ZM5.05379 3.39615L5.12249 3.60217L5.33965 3.60382C5.36777 3.60407 5.37941 3.63993 5.35681 3.65663L5.18211 3.78565L5.24765 3.99268C5.25615 4.01947 5.2256 4.04169 5.20272 4.02531L5.02606 3.89903L4.8494 4.02531C4.82651 4.04166 4.79603 4.01947 4.80447 3.99268L4.87 3.78565L4.69531 3.65663C4.6727 3.63989 4.68434 3.60407 4.71246 3.60382L4.92962 3.60217L4.99832 3.39615C5.00721 3.36947 5.0449 3.36947 5.05379 3.39615ZM5.05379 4.47383L5.12249 4.67985L5.33965 4.6815C5.36777 4.68175 5.37941 4.71761 5.35681 4.7343L5.18211 4.86333L5.24765 5.07036C5.25615 5.09715 5.2256 5.11937 5.20272 5.10299L5.02606 4.97671L4.8494 5.10299C4.82651 5.11934 4.79603 5.09715 4.80447 5.07036L4.87 4.86333L4.69531 4.7343C4.6727 4.71757 4.68434 4.68175 4.71246 4.6815L4.92962 4.67985L4.99832 4.47383C5.00721 4.44718 5.0449 4.44718 5.05379 4.47383ZM5.8903 0.712396L5.959 0.918411L6.17616 0.920063C6.20428 0.920309 6.21592 0.956169 6.19331 0.972868L6.01862 1.10189L6.08415 1.30893C6.09266 1.33572 6.06211 1.35793 6.03922 1.34155L5.86256 1.21527L5.6859 1.34155C5.66302 1.3579 5.63254 1.33572 5.64097 1.30893L5.7065 1.10189L5.53181 0.972868C5.50921 0.956134 5.52084 0.920309 5.54897 0.920063L5.76613 0.918411L5.83483 0.712396C5.84365 0.685712 5.88141 0.685712 5.8903 0.712396ZM5.8903 1.79008L5.959 1.99609L6.17616 1.99774C6.20428 1.99799 6.21592 2.03385 6.19331 2.05055L6.01862 2.17957L6.08415 2.38661C6.09266 2.4134 6.06211 2.43561 6.03922 2.41923L5.86256 2.29295L5.6859 2.41923C5.66302 2.43558 5.63254 2.4134 5.64097 2.38661L5.7065 2.17957L5.53181 2.05055C5.50921 2.03381 5.52084 1.99799 5.54897 1.99774L5.76613 1.99609L5.83483 1.79008C5.84365 1.76343 5.88141 1.76343 5.8903 1.79008ZM5.8903 2.86775L5.959 3.07377L6.17616 3.07542C6.20428 3.07567 6.21592 3.11153 6.19331 3.12823L6.01862 3.25725L6.08415 3.46429C6.09266 3.49107 6.06211 3.51329 6.03922 3.49691L5.86256 3.37063L5.6859 3.49691C5.66302 3.51326 5.63254 3.49107 5.64097 3.46429L5.7065 3.25725L5.53181 3.12823C5.50921 3.11149 5.52084 3.07567 5.54897 3.07542L5.76613 3.07377L5.83483 2.86775C5.84365 2.84111 5.88141 2.84111 5.8903 2.86775ZM5.8903 3.94547L5.959 4.15148L6.17616 4.15314C6.20428 4.15338 6.21592 4.18924 6.19331 4.20594L6.01862 4.33497L6.08415 4.542C6.09266 4.56879 6.06211 4.59101 6.03922 4.57463L5.86256 4.44834L5.6859 4.57463C5.66302 4.59097 5.63254 4.56879 5.64097 4.542L5.7065 4.33497L5.53181 4.20594C5.50921 4.18921 5.52084 4.15338 5.54897 4.15314L5.76613 4.15148L5.83483 3.94547C5.84365 3.91879 5.88141 3.91879 5.8903 3.94547ZM5.8903 5.02315L5.959 5.22916L6.17616 5.23082C6.20428 5.23106 6.21592 5.26692 6.19331 5.28362L6.01862 5.41264L6.08415 5.61968C6.09266 5.64647 6.06211 5.66869 6.03922 5.65231L5.86256 5.52602L5.6859 5.65231C5.66302 5.66865 5.63254 5.64647 5.64097 5.61968L5.7065 5.41264L5.53181 5.28362C5.50921 5.26689 5.52084 5.23106 5.54897 5.23082L5.76613 5.22916L5.83483 5.02315C5.84365 4.99643 5.88141 4.99643 5.8903 5.02315ZM6.72677 1.24076L6.79547 1.44677L7.01263 1.44843C7.04076 1.44867 7.05239 1.48453 7.02979 1.50123L6.85509 1.63025L6.92063 1.83729C6.92913 1.86408 6.89858 1.8863 6.8757 1.86991L6.69904 1.74363L6.52238 1.86991C6.49949 1.88626 6.46901 1.86408 6.47745 1.83729L6.54298 1.63025L6.36829 1.50123C6.34568 1.4845 6.35732 1.44867 6.38544 1.44843L6.6026 1.44677L6.6713 1.24076C6.68016 1.21411 6.71792 1.21411 6.72677 1.24076ZM6.72677 2.31847L6.79547 2.52449L7.01263 2.52614C7.04076 2.52639 7.05239 2.56225 7.02979 2.57895L6.85509 2.70797L6.92063 2.915C6.92913 2.94179 6.89858 2.96401 6.8757 2.94763L6.69904 2.82135L6.52238 2.94763C6.49949 2.96398 6.46901 2.94183 6.47745 2.915L6.54298 2.70797L6.36829 2.57895C6.34568 2.56221 6.35732 2.52639 6.38544 2.52614L6.6026 2.52449L6.6713 2.31847C6.68016 2.29179 6.71792 2.29179 6.72677 2.31847ZM6.72677 3.39615L6.79547 3.60217L7.01263 3.60382C7.04076 3.60407 7.05239 3.63993 7.02979 3.65663L6.85509 3.78565L6.92063 3.99268C6.92913 4.01947 6.89858 4.04169 6.8757 4.02531L6.69904 3.89903L6.52238 4.02531C6.49949 4.04166 6.46901 4.01947 6.47745 3.99268L6.54298 3.78565L6.36829 3.65663C6.34568 3.63989 6.35732 3.60407 6.38544 3.60382L6.6026 3.60217L6.6713 3.39615C6.68016 3.36947 6.71792 3.36947 6.72677 3.39615ZM6.72677 4.47383L6.79547 4.67985L7.01263 4.6815C7.04076 4.68175 7.05239 4.71761 7.02979 4.7343L6.85509 4.86333L6.92063 5.07036C6.92913 5.09715 6.89858 5.11937 6.8757 5.10299L6.69904 4.97671L6.52238 5.10299C6.49949 5.11934 6.46901 5.09715 6.47745 5.07036L6.54298 4.86333L6.36829 4.7343C6.34568 4.71757 6.35732 4.68175 6.38544 4.6815L6.6026 4.67985L6.6713 4.47383C6.68016 4.44718 6.71792 4.44718 6.72677 4.47383ZM7.56328 0.712396L7.63198 0.918411L7.84914 0.920063C7.87726 0.920309 7.8889 0.956169 7.86629 0.972868L7.6916 1.10189L7.75713 1.30893C7.76564 1.33572 7.73509 1.35793 7.7122 1.34155L7.53554 1.21527L7.35888 1.34155C7.336 1.3579 7.30552 1.33572 7.31395 1.30893L7.37949 1.10189L7.20479 0.972868C7.18219 0.956134 7.19383 0.920309 7.22195 0.920063L7.43911 0.918411L7.50781 0.712396C7.51666 0.685712 7.55435 0.685712 7.56328 0.712396ZM7.56328 1.79008L7.63198 1.99609L7.84914 1.99774C7.87726 1.99799 7.8889 2.03385 7.86629 2.05055L7.6916 2.17957L7.75713 2.38661C7.76564 2.4134 7.73509 2.43561 7.7122 2.41923L7.53554 2.29295L7.35888 2.41923C7.336 2.43558 7.30552 2.4134 7.31395 2.38661L7.37949 2.17957L7.20479 2.05055C7.18219 2.03381 7.19383 1.99799 7.22195 1.99774L7.43911 1.99609L7.50781 1.79008C7.51666 1.76343 7.55435 1.76343 7.56328 1.79008ZM7.56328 2.86775L7.63198 3.07377L7.84914 3.07542C7.87726 3.07567 7.8889 3.11153 7.86629 3.12823L7.6916 3.25725L7.75713 3.46429C7.76564 3.49107 7.73509 3.51329 7.7122 3.49691L7.53554 3.37063L7.35888 3.49691C7.336 3.51326 7.30552 3.49107 7.31395 3.46429L7.37949 3.25725L7.20479 3.12823C7.18219 3.11149 7.19383 3.07567 7.22195 3.07542L7.43911 3.07377L7.50781 2.86775C7.51666 2.84111 7.55435 2.84111 7.56328 2.86775ZM7.56328 3.94547L7.63198 4.15148L7.84914 4.15314C7.87726 4.15338 7.8889 4.18924 7.86629 4.20594L7.6916 4.33497L7.75713 4.542C7.76564 4.56879 7.73509 4.59101 7.7122 4.57463L7.53554 4.44834L7.35888 4.57463C7.336 4.59097 7.30552 4.56879 7.31395 4.542L7.37949 4.33497L7.20479 4.20594C7.18219 4.18921 7.19383 4.15338 7.22195 4.15314L7.43911 4.15148L7.50781 3.94547C7.51666 3.91879 7.55435 3.91879 7.56328 3.94547ZM7.56328 5.02315L7.63198 5.22916L7.84914 5.23082C7.87726 5.23106 7.8889 5.26692 7.86629 5.28362L7.6916 5.41264L7.75713 5.61968C7.76564 5.64647 7.73509 5.66869 7.7122 5.65231L7.53554 5.52602L7.35888 5.65231C7.336 5.66865 7.30552 5.64647 7.31395 5.61968L7.37949 5.41264L7.20479 5.28362C7.18219 5.26689 7.19383 5.23106 7.22195 5.23082L7.43911 5.22916L7.50781 5.02315C7.51666 4.99643 7.55435 4.99643 7.56328 5.02315Z" fill="#F5F5F5"/>
</svg>
