<svg width="271" height="23" viewBox="0 0 271 23" fill="none" xmlns="http://www.w3.org/2000/svg">
<circle cx="11.5" cy="11.5" r="11.5" fill="#D4AF37" fill-opacity="0.2"/>
<circle cx="11.5" cy="11.5" r="7.5" fill="#D4AF37" fill-opacity="0.2"/>
<circle cx="11.5" cy="11.5" r="3.5" fill="#D4AF37"/>
<path d="M36.26 17.5V4.63H50.012V6.97H39.14V10.534H48.608V12.874H39.14V17.5H36.26ZM53.9537 17.5C52.8977 17.5 52.1237 17.236 51.6317 16.708C51.1517 16.18 50.9117 15.496 50.9117 14.656V8.23H53.5217V14.35C53.5217 15.07 53.8817 15.43 54.6017 15.43H58.3457C59.0657 15.43 59.4257 15.07 59.4257 14.35V8.23H62.0357V14.656C62.0357 15.496 61.7897 16.18 61.2977 16.708C60.8177 17.236 60.0497 17.5 58.9937 17.5H53.9537ZM63.9216 17.5V4.63H66.5316V17.5H63.9216ZM68.5095 17.5V4.63H71.1195V17.5H68.5095ZM72.7914 17.59V15.52H81.6114C82.1154 15.52 82.3674 15.238 82.3674 14.674C82.3674 14.122 82.1154 13.846 81.6114 13.846H75.9054C74.8374 13.846 74.0274 13.606 73.4754 13.126C72.9234 12.634 72.6474 11.932 72.6474 11.02C72.6474 10.096 72.9234 9.388 73.4754 8.896C74.0394 8.392 74.8494 8.14 75.9054 8.14H84.1134V10.21H76.0314C75.5154 10.21 75.2574 10.462 75.2574 10.966C75.2574 11.218 75.3294 11.416 75.4734 11.56C75.6174 11.704 75.8034 11.776 76.0314 11.776H82.0794C83.0154 11.776 83.7294 12.022 84.2214 12.514C84.7254 12.994 84.9774 13.696 84.9774 14.62C84.9774 15.556 84.7254 16.288 84.2214 16.816C83.7174 17.332 83.0034 17.59 82.0794 17.59H72.7914ZM91.3335 17.5C90.2895 17.5 89.5215 17.242 89.0295 16.726C88.5375 16.198 88.2915 15.508 88.2915 14.656V10.3H85.6095V8.23H88.2915V5.386H90.9015V8.23H94.7535V10.3H90.9015V14.332C90.9015 15.064 91.2615 15.43 91.9815 15.43H95.2575V17.5H91.3335ZM99.0654 17.5C98.0934 17.5 97.3494 17.254 96.8334 16.762C96.3174 16.27 96.0594 15.568 96.0594 14.656C96.0594 13.756 96.3174 13.06 96.8334 12.568C97.3494 12.076 98.0934 11.83 99.0654 11.83H105.977V11.398C105.977 10.666 105.617 10.3 104.897 10.3H97.2654V8.23H105.581C106.673 8.23 107.447 8.482 107.903 8.986C108.359 9.478 108.587 10.174 108.587 11.074V17.5H99.0654ZM99.5334 15.43H105.977V13.9H99.5334C99.3054 13.9 99.1254 13.972 98.9934 14.116C98.8734 14.248 98.8134 14.428 98.8134 14.656C98.8134 14.884 98.8734 15.07 98.9934 15.214C99.1254 15.358 99.3054 15.43 99.5334 15.43ZM115.326 17.59C113.718 17.59 112.464 17.194 111.564 16.402C110.664 15.598 110.214 14.422 110.214 12.874C110.214 11.314 110.664 10.138 111.564 9.346C112.464 8.542 113.718 8.14 115.326 8.14H121.356V10.21H115.326C114.546 10.21 113.946 10.426 113.526 10.858C113.118 11.29 112.914 11.962 112.914 12.874C112.914 13.774 113.118 14.44 113.526 14.872C113.946 15.304 114.546 15.52 115.326 15.52H121.536V17.59H115.326ZM122.879 17.5V4.63H125.489V8.23H131.717C132.773 8.23 133.577 8.482 134.129 8.986C134.693 9.478 134.975 10.186 134.975 11.11C134.975 12.622 134.255 13.522 132.815 13.81L135.011 17.5H132.077L129.953 13.918H125.489V17.5H122.879ZM131.591 10.282H125.489V11.866H131.591C131.831 11.866 132.017 11.794 132.149 11.65C132.293 11.506 132.365 11.308 132.365 11.056C132.365 10.54 132.107 10.282 131.591 10.282ZM143.188 17.5V4.63H146.068V17.5H143.188ZM148.314 17.5V8.23H156.396C157.452 8.23 158.22 8.494 158.7 9.022C159.192 9.538 159.438 10.222 159.438 11.074V17.5H156.828V11.38C156.828 10.66 156.468 10.3 155.748 10.3H150.924V17.5H148.314ZM161.322 17.5V8.23H169.404C170.46 8.23 171.228 8.494 171.708 9.022C172.2 9.538 172.446 10.222 172.446 11.074V17.5H169.836V11.38C169.836 10.66 169.476 10.3 168.756 10.3H163.932V17.5H161.322ZM179.082 17.59C177.474 17.59 176.22 17.194 175.32 16.402C174.42 15.598 173.97 14.422 173.97 12.874C173.97 11.314 174.42 10.138 175.32 9.346C176.22 8.542 177.474 8.14 179.082 8.14H182.412C184.02 8.14 185.274 8.542 186.174 9.346C187.074 10.138 187.524 11.314 187.524 12.874C187.524 14.422 187.074 15.598 186.174 16.402C185.274 17.194 184.02 17.59 182.412 17.59H179.082ZM179.082 15.52H182.412C183.192 15.52 183.786 15.304 184.194 14.872C184.614 14.44 184.824 13.774 184.824 12.874C184.824 11.962 184.614 11.29 184.194 10.858C183.786 10.426 183.192 10.21 182.412 10.21H179.082C178.302 10.21 177.702 10.426 177.282 10.858C176.874 11.29 176.67 11.962 176.67 12.874C176.67 13.774 176.874 14.44 177.282 14.872C177.702 15.304 178.302 15.52 179.082 15.52ZM192.068 17.5L188.162 8.23H190.898L193.922 15.412H194.822L197.846 8.23H200.582L196.676 17.5H192.068ZM204.218 17.5C203.246 17.5 202.502 17.254 201.986 16.762C201.47 16.27 201.212 15.568 201.212 14.656C201.212 13.756 201.47 13.06 201.986 12.568C202.502 12.076 203.246 11.83 204.218 11.83H211.13V11.398C211.13 10.666 210.77 10.3 210.05 10.3H202.418V8.23H210.734C211.826 8.23 212.6 8.482 213.056 8.986C213.512 9.478 213.74 10.174 213.74 11.074V17.5H204.218ZM204.686 15.43H211.13V13.9H204.686C204.458 13.9 204.278 13.972 204.146 14.116C204.026 14.248 203.966 14.428 203.966 14.656C203.966 14.884 204.026 15.07 204.146 15.214C204.278 15.358 204.458 15.43 204.686 15.43ZM220.55 17.5C219.506 17.5 218.738 17.242 218.246 16.726C217.754 16.198 217.508 15.508 217.508 14.656V10.3H214.826V8.23H217.508V5.386H220.118V8.23H223.97V10.3H220.118V14.332C220.118 15.064 220.478 15.43 221.198 15.43H224.474V17.5H220.55ZM225.816 17.5V8.23H228.426V17.5H225.816ZM225.798 6.7V4.666H228.444V6.7H225.798ZM235.156 17.59C233.548 17.59 232.294 17.194 231.394 16.402C230.494 15.598 230.044 14.422 230.044 12.874C230.044 11.314 230.494 10.138 231.394 9.346C232.294 8.542 233.548 8.14 235.156 8.14H238.486C240.094 8.14 241.348 8.542 242.248 9.346C243.148 10.138 243.598 11.314 243.598 12.874C243.598 14.422 243.148 15.598 242.248 16.402C241.348 17.194 240.094 17.59 238.486 17.59H235.156ZM235.156 15.52H238.486C239.266 15.52 239.86 15.304 240.268 14.872C240.688 14.44 240.898 13.774 240.898 12.874C240.898 11.962 240.688 11.29 240.268 10.858C239.86 10.426 239.266 10.21 238.486 10.21H235.156C234.376 10.21 233.776 10.426 233.356 10.858C232.948 11.29 232.744 11.962 232.744 12.874C232.744 13.774 232.948 14.44 233.356 14.872C233.776 15.304 234.376 15.52 235.156 15.52ZM245.222 17.5V8.23H253.304C254.36 8.23 255.128 8.494 255.608 9.022C256.1 9.538 256.346 10.222 256.346 11.074V17.5H253.736V11.38C253.736 10.66 253.376 10.3 252.656 10.3H247.832V17.5H245.222ZM257.924 17.59V15.52H266.744C267.248 15.52 267.5 15.238 267.5 14.674C267.5 14.122 267.248 13.846 266.744 13.846H261.038C259.97 13.846 259.16 13.606 258.608 13.126C258.056 12.634 257.78 11.932 257.78 11.02C257.78 10.096 258.056 9.388 258.608 8.896C259.172 8.392 259.982 8.14 261.038 8.14H269.246V10.21H261.164C260.648 10.21 260.39 10.462 260.39 10.966C260.39 11.218 260.462 11.416 260.606 11.56C260.75 11.704 260.936 11.776 261.164 11.776H267.212C268.148 11.776 268.862 12.022 269.354 12.514C269.858 12.994 270.11 13.696 270.11 14.62C270.11 15.556 269.858 16.288 269.354 16.816C268.85 17.332 268.136 17.59 267.212 17.59H257.924Z" fill="white"/>
</svg>
